<svg xmlns="http://www.w3.org/2000/svg" xmlns:xlink="http://www.w3.org/1999/xlink" width="816" zoomAndPan="magnify" viewBox="0 0 612 791.999994" height="1056" preserveAspectRatio="xMidYMid meet" version="1.0"><defs><g/><clipPath id="eac64d71d8"><path d="M 54 66.960938 L 500.945312 66.960938 L 500.945312 87.839844 L 54 87.839844 Z M 54 66.960938 " clip-rule="nonzero"/></clipPath><clipPath id="0985ca52b7"><path d="M 0 0.960938 L 446.945312 0.960938 L 446.945312 21.839844 L 0 21.839844 Z M 0 0.960938 " clip-rule="nonzero"/></clipPath><clipPath id="3f9fc2ab2d"><rect x="0" width="447" y="0" height="22"/></clipPath><clipPath id="7c1387e05e"><path d="M 489.132812 20.992188 L 586.488281 20.992188 L 586.488281 118.347656 L 489.132812 118.347656 Z M 489.132812 20.992188 " clip-rule="nonzero"/></clipPath><clipPath id="4d4de9cddb"><path d="M 537.808594 20.992188 C 510.925781 20.992188 489.132812 42.785156 489.132812 69.671875 C 489.132812 96.554688 510.925781 118.347656 537.808594 118.347656 C 564.691406 118.347656 586.488281 96.554688 586.488281 69.671875 C 586.488281 42.785156 564.691406 20.992188 537.808594 20.992188 Z M 537.808594 20.992188 " clip-rule="nonzero"/></clipPath><clipPath id="dc1a62b7ce"><path d="M 0.132812 0.992188 L 97.488281 0.992188 L 97.488281 98.347656 L 0.132812 98.347656 Z M 0.132812 0.992188 " clip-rule="nonzero"/></clipPath><clipPath id="a5a76d842b"><path d="M 48.808594 0.992188 C 21.925781 0.992188 0.132812 22.785156 0.132812 49.671875 C 0.132812 76.554688 21.925781 98.347656 48.808594 98.347656 C 75.691406 98.347656 97.488281 76.554688 97.488281 49.671875 C 97.488281 22.785156 75.691406 0.992188 48.808594 0.992188 Z M 48.808594 0.992188 " clip-rule="nonzero"/></clipPath><clipPath id="c8fb8d9017"><rect x="0" width="98" y="0" height="99"/></clipPath><clipPath id="f437e97376"><path d="M 512.507812 44.367188 L 563.113281 44.367188 L 563.113281 94.972656 L 512.507812 94.972656 Z M 512.507812 44.367188 " clip-rule="nonzero"/></clipPath><clipPath id="299b615d33"><path d="M 537.808594 44.367188 C 523.835938 44.367188 512.507812 55.695312 512.507812 69.671875 C 512.507812 83.644531 523.835938 94.972656 537.808594 94.972656 C 551.785156 94.972656 563.113281 83.644531 563.113281 69.671875 C 563.113281 55.695312 551.785156 44.367188 537.808594 44.367188 Z M 537.808594 44.367188 " clip-rule="nonzero"/></clipPath><clipPath id="4c05b70660"><path d="M 0.507812 0.367188 L 51.113281 0.367188 L 51.113281 50.972656 L 0.507812 50.972656 Z M 0.507812 0.367188 " clip-rule="nonzero"/></clipPath><clipPath id="5db5991515"><path d="M 25.808594 0.367188 C 11.835938 0.367188 0.507812 11.695312 0.507812 25.671875 C 0.507812 39.644531 11.835938 50.972656 25.808594 50.972656 C 39.785156 50.972656 51.113281 39.644531 51.113281 25.671875 C 51.113281 11.695312 39.785156 0.367188 25.808594 0.367188 Z M 25.808594 0.367188 " clip-rule="nonzero"/></clipPath><clipPath id="667041bf38"><rect x="0" width="52" y="0" height="51"/></clipPath><clipPath id="5aebe85da1"><path d="M 518.3125 49.136719 L 557 49.136719 L 557 85.886719 L 518.3125 85.886719 Z M 518.3125 49.136719 " clip-rule="nonzero"/></clipPath><clipPath id="9722cbc287"><path d="M 346.320312 17 L 364 17 L 364 34 L 346.320312 34 Z M 346.320312 17 " clip-rule="nonzero"/></clipPath><clipPath id="1cd0483544"><path d="M 346.320312 16.605469 L 364.320312 16.605469 L 364.320312 34.605469 L 346.320312 34.605469 Z M 346.320312 16.605469 " clip-rule="nonzero"/></clipPath><clipPath id="d8f123b96a"><path d="M 422.640625 16.605469 L 440.640625 16.605469 L 440.640625 34.605469 L 422.640625 34.605469 Z M 422.640625 16.605469 " clip-rule="nonzero"/></clipPath><clipPath id="d9139a9ef0"><path d="M 424.308594 18.445312 L 438.710938 18.445312 L 438.710938 32.847656 L 424.308594 32.847656 Z M 424.308594 18.445312 " clip-rule="nonzero"/></clipPath><clipPath id="3123ed4870"><path d="M 431.507812 18.445312 C 427.53125 18.445312 424.308594 21.667969 424.308594 25.644531 C 424.308594 29.625 427.53125 32.847656 431.507812 32.847656 C 435.488281 32.847656 438.710938 29.625 438.710938 25.644531 C 438.710938 21.667969 435.488281 18.445312 431.507812 18.445312 Z M 431.507812 18.445312 " clip-rule="nonzero"/></clipPath><clipPath id="5a024113c7"><path d="M 0.308594 0.445312 L 14.710938 0.445312 L 14.710938 14.847656 L 0.308594 14.847656 Z M 0.308594 0.445312 " clip-rule="nonzero"/></clipPath><clipPath id="e322972228"><path d="M 7.507812 0.445312 C 3.53125 0.445312 0.308594 3.667969 0.308594 7.644531 C 0.308594 11.625 3.53125 14.847656 7.507812 14.847656 C 11.488281 14.847656 14.710938 11.625 14.710938 7.644531 C 14.710938 3.667969 11.488281 0.445312 7.507812 0.445312 Z M 7.507812 0.445312 " clip-rule="nonzero"/></clipPath><clipPath id="cea193c84a"><rect x="0" width="15" y="0" height="15"/></clipPath><clipPath id="9e1f485220"><path d="M 428.132812 19.359375 L 432 19.359375 L 432 32 L 428.132812 32 Z M 428.132812 19.359375 " clip-rule="nonzero"/></clipPath><clipPath id="a9a9e84c43"><path d="M 432 19.359375 L 434.882812 19.359375 L 434.882812 32 L 432 32 Z M 432 19.359375 " clip-rule="nonzero"/></clipPath></defs><rect x="-61.2" width="734.4" fill="#ffffff" y="-79.199999" height="950.399992" fill-opacity="1"/><rect x="-61.2" width="734.4" fill="#ffffff" y="-79.199999" height="950.399992" fill-opacity="1"/><g clip-path="url(#eac64d71d8)"><g transform="matrix(1, 0, 0, 1, 54, 66)"><g clip-path="url(#3f9fc2ab2d)"><g clip-path="url(#0985ca52b7)"><path fill="#f7591f" d="M 0 0.960938 L 446.960938 0.960938 L 446.960938 21.839844 L 0 21.839844 Z M 0 0.960938 " fill-opacity="1" fill-rule="nonzero"/></g></g></g></g><g clip-path="url(#7c1387e05e)"><g clip-path="url(#4d4de9cddb)"><g transform="matrix(1, 0, 0, 1, 489, 20)"><g clip-path="url(#c8fb8d9017)"><g clip-path="url(#dc1a62b7ce)"><g clip-path="url(#a5a76d842b)"><path fill="#f7591f" d="M 0.132812 0.992188 L 97.488281 0.992188 L 97.488281 98.347656 L 0.132812 98.347656 Z M 0.132812 0.992188 " fill-opacity="1" fill-rule="nonzero"/></g></g></g></g></g></g><g clip-path="url(#f437e97376)"><g clip-path="url(#299b615d33)"><g transform="matrix(1, 0, 0, 1, 512, 44)"><g clip-path="url(#667041bf38)"><g clip-path="url(#4c05b70660)"><g clip-path="url(#5db5991515)"><path fill="#ffffff" d="M 0.507812 0.367188 L 51.113281 0.367188 L 51.113281 50.972656 L 0.507812 50.972656 Z M 0.507812 0.367188 " fill-opacity="1" fill-rule="nonzero"/></g></g></g></g></g></g><g clip-path="url(#5aebe85da1)"><path fill="#f7591f" d="M 555.914062 60.953125 C 555.914062 60.953125 544.515625 50.273438 544.515625 50.273438 C 543.375 49.136719 541.257812 49.703125 540.835938 51.257812 C 540.835938 51.257812 537.148438 63.402344 537.148438 63.402344 L 536.761719 62.921875 C 536.617188 62.738281 536.324219 62.722656 536.160156 62.886719 C 535.875 63.171875 535.574219 63.402344 535.253906 63.605469 C 534.578125 64.046875 534.183594 64.078125 533.582031 64.378906 C 532.773438 64.8125 532.179688 65.6875 531.8125 66.984375 C 530.03125 65.644531 527.445312 66.222656 526.277344 67.695312 C 523.511719 66.324219 520.332031 68.246094 520.101562 71.640625 L 518.738281 71.640625 C 518.511719 71.640625 518.332031 71.820312 518.332031 72.042969 C 518.332031 77.027344 521.382812 81.484375 525.976562 83.308594 C 525.707031 83.726562 524.574219 85.503906 525.550781 85.59375 C 525.550781 85.59375 535.394531 85.59375 535.394531 85.59375 C 536.371094 85.503906 535.238281 83.726562 534.96875 83.308594 C 539.5625 81.476562 542.613281 77.027344 542.613281 72.042969 C 542.613281 71.820312 542.433594 71.640625 542.207031 71.640625 L 541.226562 71.640625 C 541.324219 70.042969 540.117188 67.824219 538.214844 67.148438 C 538.214844 67.121094 538.222656 67.089844 538.222656 67.058594 C 538.582031 67.1875 538.96875 67.234375 539.34375 67.171875 L 546.375 66.085938 C 546.375 66.085938 554.707031 64.796875 554.707031 64.796875 C 556.527344 64.574219 557.277344 62.167969 555.914062 60.953125 Z M 526.105469 84.796875 C 526.277344 84.347656 526.507812 83.929688 526.808594 83.554688 L 534.136719 83.554688 C 534.4375 83.9375 534.675781 84.347656 534.839844 84.796875 Z M 541.804688 72.457031 C 541.636719 77.09375 538.640625 81.195312 534.242188 82.738281 L 526.703125 82.738281 C 522.304688 81.195312 519.308594 77.101562 519.140625 72.457031 Z M 539.585938 69.164062 C 540.289062 70.074219 540.417969 71.078125 540.425781 71.644531 L 520.910156 71.644531 C 521.179688 68.617188 523.960938 67.269531 526.195312 68.574219 C 526.375 68.671875 526.597656 68.617188 526.71875 68.453125 C 526.816406 68.320312 527.714844 67.113281 529.296875 67.046875 C 530.683594 66.984375 531.597656 67.839844 531.769531 68.011719 C 531.875 68.117188 532.03125 68.15625 532.171875 68.117188 C 532.316406 68.070312 532.421875 67.960938 532.449219 67.808594 C 533.15625 64.414062 534.375 65.488281 536.394531 63.777344 L 536.699219 64.160156 C 536.738281 64.257812 536.78125 64.371094 536.828125 64.460938 C 536.640625 65.214844 536.894531 66.046875 537.449219 66.59375 C 537.5 66.957031 537.132812 67.636719 537.644531 67.824219 C 538.429688 68.070312 539.105469 68.535156 539.585938 69.164062 Z M 539.234375 66.378906 C 538.222656 66.542969 537.316406 65.515625 537.652344 64.527344 C 537.855469 63.867188 538.796875 60.742188 538.976562 60.152344 C 540.027344 60.503906 540.175781 61.148438 540.199219 61.621094 C 540.183594 64.273438 543.625 62.667969 544.859375 64.09375 C 545.191406 64.429688 545.476562 64.84375 545.738281 65.375 C 545.738281 65.375 539.234375 66.378906 539.234375 66.378906 Z M 555.75 63.007812 C 555.585938 63.546875 555.148438 63.914062 554.59375 64.003906 L 546.5625 65.246094 C 545.78125 63.425781 544.570312 62.550781 542.753906 62.5625 C 542.261719 62.511719 541.59375 62.535156 541.179688 62.25 C 541.046875 62.113281 541.015625 61.851562 541.007812 61.589844 C 540.980469 60.824219 540.625 59.859375 539.210938 59.378906 L 541.601562 51.488281 C 541.773438 50.890625 542.351562 50.46875 542.980469 50.46875 C 543.339844 50.46875 543.683594 50.605469 543.953125 50.859375 L 555.351562 61.539062 C 555.765625 61.925781 555.914062 62.472656 555.75 63.007812 Z M 545.558594 54.386719 C 545.714844 54.652344 545.503906 55.003906 545.207031 54.996094 C 545.0625 54.996094 544.929688 54.921875 544.851562 54.792969 C 544.472656 54.109375 543.453125 54.066406 543.445312 54.066406 C 542.917969 54.050781 542.941406 53.234375 543.472656 53.257812 C 543.527344 53.257812 544.941406 53.308594 545.558594 54.386719 Z M 551.867188 62.347656 C 551.132812 62.085938 550.339844 62.714844 550.324219 62.714844 C 550.152344 62.855469 549.894531 62.828125 549.753906 62.652344 C 549.613281 62.480469 549.640625 62.226562 549.8125 62.085938 C 549.859375 62.046875 550.96875 61.164062 552.136719 61.582031 C 552.640625 61.769531 552.363281 62.527344 551.867188 62.347656 Z M 542.597656 58.792969 C 541.585938 58.292969 541.269531 57.0625 541.257812 57.019531 C 541.203125 56.800781 541.332031 56.582031 541.546875 56.523438 C 541.765625 56.472656 541.984375 56.597656 542.042969 56.816406 C 542.050781 56.839844 542.289062 57.738281 542.957031 58.066406 C 543.4375 58.316406 543.070312 59.035156 542.597656 58.792969 Z M 549.058594 59.542969 C 549.207031 59.707031 549.199219 59.964844 549.035156 60.113281 C 548.871094 60.261719 548.613281 60.257812 548.464844 60.089844 C 548.425781 60.054688 547.582031 59.117188 547.707031 58 C 547.769531 57.476562 548.570312 57.566406 548.511719 58.089844 C 548.421875 58.839844 549.050781 59.535156 549.058594 59.542969 Z M 545.289062 59.933594 C 545.273438 59.949219 544.652344 60.636719 544.742188 61.378906 C 544.800781 61.90625 544 62 543.9375 61.46875 C 543.8125 60.347656 544.660156 59.417969 544.695312 59.378906 C 545.054688 58.988281 545.648438 59.542969 545.289062 59.933594 Z M 545.289062 59.933594 " fill-opacity="1" fill-rule="nonzero"/></g><g fill="#ffffff" fill-opacity="1"><g transform="translate(519.775341, 43.669047)"><g><path d="M 0.671875 -9.515625 L 1.296875 -1.265625 C 1.328125 -1.054688 1.300781 -0.875 1.21875 -0.71875 C 1.132812 -0.5625 1.015625 -0.445312 0.859375 -0.375 C 0.628906 -0.25 0.421875 -0.222656 0.234375 -0.296875 C 0.0546875 -0.367188 -0.0820312 -0.503906 -0.1875 -0.703125 C -0.226562 -0.785156 -0.257812 -0.875 -0.28125 -0.96875 L -1.078125 -10.640625 C -1.117188 -10.859375 -1.085938 -11.054688 -0.984375 -11.234375 C -0.890625 -11.410156 -0.753906 -11.53125 -0.578125 -11.59375 C -0.421875 -11.675781 -0.25 -11.707031 -0.0625 -11.6875 C 0.125 -11.664062 0.296875 -11.582031 0.453125 -11.4375 L 7.765625 -5.359375 C 7.867188 -5.253906 7.945312 -5.15625 8 -5.0625 C 8.125 -4.820312 8.144531 -4.59375 8.0625 -4.375 C 7.976562 -4.15625 7.84375 -3.992188 7.65625 -3.890625 C 7.5 -3.816406 7.332031 -3.789062 7.15625 -3.8125 C 6.976562 -3.84375 6.804688 -3.925781 6.640625 -4.0625 L 0.3125 -9.25 Z M 0.859375 -3.109375 L 0.8125 -5.015625 L 4.40625 -6.890625 L 5.4375 -5.484375 Z M 0.859375 -3.109375 "/></g></g></g><g fill="#ffffff" fill-opacity="1"><g transform="translate(528.876077, 39.105505)"><g><path d="M 3.8125 -11.203125 C 4.320312 -11.273438 4.828125 -11.195312 5.328125 -10.96875 C 5.828125 -10.738281 6.25 -10.390625 6.59375 -9.921875 C 6.945312 -9.460938 7.171875 -8.925781 7.265625 -8.3125 C 7.359375 -7.6875 7.304688 -7.101562 7.109375 -6.5625 C 6.910156 -6.03125 6.609375 -5.578125 6.203125 -5.203125 C 5.796875 -4.828125 5.335938 -4.601562 4.828125 -4.53125 L 2.109375 -4.109375 L 2.203125 -4.390625 L 2.671875 -1.328125 C 2.710938 -1.078125 2.664062 -0.851562 2.53125 -0.65625 C 2.40625 -0.457031 2.21875 -0.335938 1.96875 -0.296875 C 1.71875 -0.265625 1.5 -0.320312 1.3125 -0.46875 C 1.125 -0.625 1.007812 -0.828125 0.96875 -1.078125 L -0.328125 -9.640625 C -0.367188 -9.898438 -0.3125 -10.128906 -0.15625 -10.328125 C -0.0078125 -10.523438 0.191406 -10.644531 0.453125 -10.6875 Z M 4.5625 -6.21875 C 4.757812 -6.238281 4.929688 -6.34375 5.078125 -6.53125 C 5.234375 -6.726562 5.347656 -6.957031 5.421875 -7.21875 C 5.503906 -7.488281 5.523438 -7.765625 5.484375 -8.046875 C 5.441406 -8.328125 5.34375 -8.582031 5.1875 -8.8125 C 5.03125 -9.050781 4.851562 -9.234375 4.65625 -9.359375 C 4.457031 -9.484375 4.257812 -9.535156 4.0625 -9.515625 L 1.3125 -9.09375 L 1.453125 -9.359375 L 2.03125 -5.578125 L 1.828125 -5.796875 Z M 4.5625 -6.21875 "/></g></g></g><g fill="#ffffff" fill-opacity="1"><g transform="translate(538.462156, 37.749335)"><g><path d="M 7.140625 -9.421875 C 7.648438 -9.335938 8.101562 -9.109375 8.5 -8.734375 C 8.90625 -8.359375 9.203125 -7.894531 9.390625 -7.34375 C 9.578125 -6.800781 9.617188 -6.222656 9.515625 -5.609375 C 9.410156 -4.984375 9.175781 -4.445312 8.8125 -4 C 8.457031 -3.550781 8.023438 -3.210938 7.515625 -2.984375 C 7.015625 -2.765625 6.507812 -2.695312 6 -2.78125 L 3.296875 -3.25 L 3.46875 -3.46875 L 2.953125 -0.421875 C 2.910156 -0.171875 2.796875 0.0234375 2.609375 0.171875 C 2.429688 0.328125 2.210938 0.378906 1.953125 0.328125 C 1.710938 0.285156 1.523438 0.164062 1.390625 -0.03125 C 1.265625 -0.238281 1.222656 -0.46875 1.265625 -0.71875 L 2.71875 -9.25 C 2.757812 -9.507812 2.878906 -9.707031 3.078125 -9.84375 C 3.285156 -9.988281 3.519531 -10.039062 3.78125 -10 Z M 6.296875 -4.453125 C 6.492188 -4.421875 6.691406 -4.46875 6.890625 -4.59375 C 7.085938 -4.726562 7.265625 -4.910156 7.421875 -5.140625 C 7.585938 -5.378906 7.695312 -5.640625 7.75 -5.921875 C 7.789062 -6.203125 7.769531 -6.472656 7.6875 -6.734375 C 7.613281 -6.992188 7.503906 -7.21875 7.359375 -7.40625 C 7.222656 -7.59375 7.054688 -7.703125 6.859375 -7.734375 L 4.125 -8.203125 L 4.3125 -8.4375 L 3.671875 -4.65625 L 3.578125 -4.921875 Z M 6.296875 -4.453125 "/></g></g></g><g fill="#ffffff" fill-opacity="1"><g transform="translate(547.991738, 39.484563)"><g><path d="M 3.890625 2.25 C 3.273438 1.925781 2.757812 1.550781 2.34375 1.125 C 1.9375 0.707031 1.613281 0.1875 1.375 -0.4375 C 1.3125 -0.601562 1.28125 -0.765625 1.28125 -0.921875 C 1.289062 -1.078125 1.328125 -1.210938 1.390625 -1.328125 C 1.492188 -1.535156 1.660156 -1.675781 1.890625 -1.75 C 2.117188 -1.832031 2.34375 -1.816406 2.5625 -1.703125 C 2.726562 -1.617188 2.847656 -1.476562 2.921875 -1.28125 C 3.117188 -0.851562 3.34375 -0.476562 3.59375 -0.15625 C 3.851562 0.164062 4.222656 0.457031 4.703125 0.71875 C 5.035156 0.894531 5.363281 1 5.6875 1.03125 C 6.019531 1.070312 6.316406 1.054688 6.578125 0.984375 C 6.835938 0.910156 7.023438 0.757812 7.140625 0.53125 C 7.285156 0.269531 7.328125 0.00390625 7.265625 -0.265625 C 7.203125 -0.535156 7.039062 -0.820312 6.78125 -1.125 C 6.519531 -1.425781 6.15625 -1.75 5.6875 -2.09375 C 5.25 -2.414062 4.890625 -2.742188 4.609375 -3.078125 C 4.328125 -3.421875 4.125 -3.765625 4 -4.109375 C 3.875 -4.460938 3.828125 -4.828125 3.859375 -5.203125 C 3.898438 -5.578125 4.019531 -5.953125 4.21875 -6.328125 C 4.519531 -6.898438 4.925781 -7.3125 5.4375 -7.5625 C 5.957031 -7.820312 6.523438 -7.921875 7.140625 -7.859375 C 7.765625 -7.796875 8.378906 -7.609375 8.984375 -7.296875 C 9.554688 -6.992188 10.039062 -6.625 10.4375 -6.1875 C 10.84375 -5.75 11.128906 -5.3125 11.296875 -4.875 C 11.429688 -4.550781 11.425781 -4.253906 11.28125 -3.984375 C 11.175781 -3.796875 11.007812 -3.660156 10.78125 -3.578125 C 10.5625 -3.503906 10.351562 -3.519531 10.15625 -3.625 C 10.019531 -3.695312 9.914062 -3.796875 9.84375 -3.921875 C 9.769531 -4.128906 9.644531 -4.347656 9.46875 -4.578125 C 9.289062 -4.816406 9.085938 -5.039062 8.859375 -5.25 C 8.628906 -5.46875 8.398438 -5.640625 8.171875 -5.765625 C 7.796875 -5.960938 7.453125 -6.082031 7.140625 -6.125 C 6.828125 -6.164062 6.554688 -6.140625 6.328125 -6.046875 C 6.109375 -5.953125 5.941406 -5.796875 5.828125 -5.578125 C 5.679688 -5.304688 5.640625 -5.039062 5.703125 -4.78125 C 5.765625 -4.53125 5.914062 -4.273438 6.15625 -4.015625 C 6.394531 -3.765625 6.695312 -3.492188 7.0625 -3.203125 C 7.539062 -2.816406 7.941406 -2.453125 8.265625 -2.109375 C 8.597656 -1.765625 8.84375 -1.414062 9 -1.0625 C 9.15625 -0.71875 9.21875 -0.351562 9.1875 0.03125 C 9.15625 0.414062 9.023438 0.832031 8.796875 1.28125 C 8.484375 1.851562 8.054688 2.257812 7.515625 2.5 C 6.984375 2.75 6.394531 2.847656 5.75 2.796875 C 5.113281 2.742188 4.492188 2.5625 3.890625 2.25 Z M 3.890625 2.25 "/></g></g></g><g fill="#ffffff" fill-opacity="1"><g transform="translate(497.98704, 85.466026)"><g><path d="M 2 3.6875 C 1.632812 3.070312 1.441406 2.441406 1.421875 1.796875 C 1.398438 1.148438 1.523438 0.5625 1.796875 0.03125 C 2.066406 -0.5 2.445312 -0.910156 2.9375 -1.203125 C 3.363281 -1.460938 3.796875 -1.625 4.234375 -1.6875 C 4.679688 -1.75 5.132812 -1.707031 5.59375 -1.5625 C 6.0625 -1.414062 6.523438 -1.164062 6.984375 -0.8125 L 6.53125 0.8125 C 6.039062 0.28125 5.601562 0 5.21875 -0.03125 C 4.84375 -0.0703125 4.46875 0.015625 4.09375 0.234375 C 3.832031 0.390625 3.613281 0.601562 3.4375 0.875 C 3.269531 1.15625 3.191406 1.488281 3.203125 1.875 C 3.222656 2.257812 3.378906 2.695312 3.671875 3.1875 C 3.910156 3.59375 4.21875 3.898438 4.59375 4.109375 C 4.96875 4.328125 5.378906 4.460938 5.828125 4.515625 C 6.273438 4.566406 6.726562 4.554688 7.1875 4.484375 C 7.65625 4.410156 8.097656 4.285156 8.515625 4.109375 C 8.660156 4.046875 8.800781 4.035156 8.9375 4.078125 C 9.070312 4.128906 9.203125 4.257812 9.328125 4.46875 C 9.460938 4.695312 9.472656 4.925781 9.359375 5.15625 C 9.253906 5.394531 9.070312 5.566406 8.8125 5.671875 C 8.25 5.898438 7.65625 6.050781 7.03125 6.125 C 6.40625 6.195312 5.785156 6.171875 5.171875 6.046875 C 4.554688 5.921875 3.972656 5.664062 3.421875 5.28125 C 2.878906 4.90625 2.40625 4.375 2 3.6875 Z M 4.828125 8.21875 C 4.765625 8.113281 4.722656 8.015625 4.703125 7.921875 C 4.691406 7.835938 4.691406 7.757812 4.703125 7.6875 C 4.867188 6.757812 5.023438 5.90625 5.171875 5.125 C 5.328125 4.34375 5.484375 3.613281 5.640625 2.9375 C 5.796875 2.269531 5.972656 1.613281 6.171875 0.96875 C 6.347656 0.46875 6.5 0.015625 6.625 -0.390625 C 6.75 -0.804688 6.894531 -1.164062 7.0625 -1.46875 C 7.238281 -1.78125 7.484375 -2.03125 7.796875 -2.21875 C 8.210938 -2.46875 8.671875 -2.585938 9.171875 -2.578125 C 9.679688 -2.566406 10.175781 -2.414062 10.65625 -2.125 C 11.132812 -1.84375 11.546875 -1.410156 11.890625 -0.828125 C 12.242188 -0.234375 12.457031 0.359375 12.53125 0.953125 C 12.613281 1.546875 12.546875 2.023438 12.328125 2.390625 C 12.316406 2.390625 12.269531 2.4375 12.1875 2.53125 C 12.113281 2.632812 12.015625 2.722656 11.890625 2.796875 C 11.722656 2.890625 11.539062 2.910156 11.34375 2.859375 C 11.15625 2.816406 11.003906 2.691406 10.890625 2.484375 C 10.804688 2.347656 10.765625 2.222656 10.765625 2.109375 C 10.773438 2.003906 10.789062 1.914062 10.8125 1.84375 C 10.957031 1.507812 11.003906 1.1875 10.953125 0.875 C 10.910156 0.5625 10.789062 0.242188 10.59375 -0.078125 C 10.363281 -0.460938 10.085938 -0.691406 9.765625 -0.765625 C 9.441406 -0.847656 9.132812 -0.804688 8.84375 -0.640625 C 8.570312 -0.484375 8.363281 -0.234375 8.21875 0.109375 C 8.070312 0.460938 7.953125 0.828125 7.859375 1.203125 C 7.773438 1.585938 7.691406 1.921875 7.609375 2.203125 C 7.484375 2.617188 7.351562 3.085938 7.21875 3.609375 C 7.09375 4.140625 6.976562 4.660156 6.875 5.171875 C 6.769531 5.691406 6.671875 6.175781 6.578125 6.625 C 6.492188 7.070312 6.414062 7.4375 6.34375 7.71875 C 6.300781 7.882812 6.242188 8.023438 6.171875 8.140625 C 6.109375 8.265625 6.003906 8.367188 5.859375 8.453125 C 5.753906 8.515625 5.585938 8.546875 5.359375 8.546875 C 5.140625 8.546875 4.960938 8.4375 4.828125 8.21875 Z M 4.828125 8.21875 "/></g></g></g><g fill="#ffffff" fill-opacity="1"><g transform="translate(505.969617, 97.225952)"><g/></g></g><g fill="#ffffff" fill-opacity="1"><g transform="translate(511.558886, 102.548011)"><g><path d="M 3.78125 2.46875 C 3.175781 2.101562 2.675781 1.695312 2.28125 1.25 C 1.894531 0.800781 1.597656 0.257812 1.390625 -0.375 C 1.347656 -0.53125 1.332031 -0.6875 1.34375 -0.84375 C 1.351562 -1 1.390625 -1.132812 1.453125 -1.25 C 1.578125 -1.445312 1.753906 -1.578125 1.984375 -1.640625 C 2.210938 -1.710938 2.429688 -1.679688 2.640625 -1.546875 C 2.804688 -1.453125 2.925781 -1.3125 3 -1.125 C 3.164062 -0.675781 3.363281 -0.285156 3.59375 0.046875 C 3.832031 0.378906 4.191406 0.691406 4.671875 0.984375 C 4.984375 1.171875 5.300781 1.296875 5.625 1.359375 C 5.957031 1.421875 6.253906 1.414062 6.515625 1.34375 C 6.785156 1.28125 6.984375 1.140625 7.109375 0.921875 C 7.265625 0.671875 7.316406 0.40625 7.265625 0.125 C 7.222656 -0.144531 7.078125 -0.4375 6.828125 -0.75 C 6.585938 -1.070312 6.242188 -1.410156 5.796875 -1.765625 C 5.367188 -2.117188 5.019531 -2.46875 4.75 -2.8125 C 4.488281 -3.164062 4.304688 -3.523438 4.203125 -3.890625 C 4.109375 -4.253906 4.085938 -4.617188 4.140625 -4.984375 C 4.203125 -5.359375 4.347656 -5.726562 4.578125 -6.09375 C 4.910156 -6.644531 5.335938 -7.035156 5.859375 -7.265625 C 6.390625 -7.492188 6.957031 -7.5625 7.5625 -7.46875 C 8.175781 -7.375 8.773438 -7.148438 9.359375 -6.796875 C 9.921875 -6.460938 10.390625 -6.0625 10.765625 -5.59375 C 11.140625 -5.132812 11.398438 -4.691406 11.546875 -4.265625 C 11.660156 -3.921875 11.640625 -3.617188 11.484375 -3.359375 C 11.378906 -3.171875 11.207031 -3.039062 10.96875 -2.96875 C 10.738281 -2.90625 10.523438 -2.9375 10.328125 -3.0625 C 10.191406 -3.144531 10.097656 -3.25 10.046875 -3.375 C 9.972656 -3.582031 9.859375 -3.804688 9.703125 -4.046875 C 9.546875 -4.296875 9.359375 -4.535156 9.140625 -4.765625 C 8.921875 -4.992188 8.695312 -5.175781 8.46875 -5.3125 C 8.101562 -5.53125 7.765625 -5.664062 7.453125 -5.71875 C 7.148438 -5.78125 6.882812 -5.769531 6.65625 -5.6875 C 6.4375 -5.601562 6.257812 -5.457031 6.125 -5.25 C 5.96875 -4.988281 5.914062 -4.726562 5.96875 -4.46875 C 6.019531 -4.207031 6.15625 -3.941406 6.375 -3.671875 C 6.59375 -3.398438 6.875 -3.109375 7.21875 -2.796875 C 7.675781 -2.398438 8.0625 -2.019531 8.375 -1.65625 C 8.6875 -1.289062 8.910156 -0.929688 9.046875 -0.578125 C 9.179688 -0.222656 9.222656 0.144531 9.171875 0.53125 C 9.117188 0.914062 8.960938 1.320312 8.703125 1.75 C 8.367188 2.3125 7.925781 2.703125 7.375 2.921875 C 6.820312 3.140625 6.226562 3.203125 5.59375 3.109375 C 4.957031 3.023438 4.351562 2.8125 3.78125 2.46875 Z M 3.78125 2.46875 "/></g></g></g><g fill="#ffffff" fill-opacity="1"><g transform="translate(522.910757, 108.828306)"><g><path d="M 11.125 -8.296875 C 11.363281 -8.242188 11.539062 -8.125 11.65625 -7.9375 C 11.769531 -7.75 11.800781 -7.539062 11.75 -7.3125 L 9.875 1.21875 C 9.8125 1.476562 9.675781 1.675781 9.46875 1.8125 C 9.257812 1.945312 9.03125 1.984375 8.78125 1.921875 C 8.65625 1.898438 8.53125 1.847656 8.40625 1.765625 C 8.28125 1.691406 8.191406 1.613281 8.140625 1.53125 L 3.984375 -7.03125 L 4.4375 -7.203125 L 2.90625 -0.234375 C 2.851562 0.00390625 2.734375 0.1875 2.546875 0.3125 C 2.359375 0.4375 2.140625 0.472656 1.890625 0.421875 C 1.660156 0.367188 1.488281 0.242188 1.375 0.046875 C 1.257812 -0.140625 1.226562 -0.351562 1.28125 -0.59375 L 3.15625 -9.125 C 3.207031 -9.375 3.335938 -9.5625 3.546875 -9.6875 C 3.765625 -9.820312 4 -9.863281 4.25 -9.8125 C 4.382812 -9.78125 4.519531 -9.722656 4.65625 -9.640625 C 4.789062 -9.554688 4.882812 -9.453125 4.9375 -9.328125 L 8.9375 -0.984375 L 8.65625 -0.859375 L 10.15625 -7.65625 C 10.207031 -7.882812 10.320312 -8.0625 10.5 -8.1875 C 10.675781 -8.3125 10.882812 -8.347656 11.125 -8.296875 Z M 11.125 -8.296875 "/></g></g></g><g fill="#ffffff" fill-opacity="1"><g transform="translate(537.764822, 111.276609)"><g><path d="M 3.984375 -8.671875 L 1.65625 -0.734375 C 1.613281 -0.523438 1.523438 -0.359375 1.390625 -0.234375 C 1.265625 -0.117188 1.117188 -0.0507812 0.953125 -0.03125 C 0.691406 0 0.484375 -0.0507812 0.328125 -0.1875 C 0.179688 -0.320312 0.0976562 -0.5 0.078125 -0.71875 C 0.0664062 -0.8125 0.0664062 -0.90625 0.078125 -1 L 2.734375 -10.359375 C 2.773438 -10.566406 2.875 -10.734375 3.03125 -10.859375 C 3.1875 -10.984375 3.359375 -11.050781 3.546875 -11.0625 C 3.722656 -11.082031 3.894531 -11.046875 4.0625 -10.953125 C 4.238281 -10.867188 4.367188 -10.738281 4.453125 -10.5625 L 9.15625 -2.265625 C 9.226562 -2.140625 9.269531 -2.023438 9.28125 -1.921875 C 9.3125 -1.648438 9.25 -1.421875 9.09375 -1.234375 C 8.9375 -1.054688 8.753906 -0.957031 8.546875 -0.9375 C 8.367188 -0.914062 8.195312 -0.953125 8.03125 -1.046875 C 7.875 -1.140625 7.75 -1.28125 7.65625 -1.46875 L 3.5625 -8.53125 Z M 1.90625 -2.609375 L 2.53125 -4.40625 L 6.546875 -4.890625 L 7.03125 -3.21875 Z M 1.90625 -2.609375 "/></g></g></g><g fill="#ffffff" fill-opacity="1"><g transform="translate(551.086515, 109.057189)"><g><path d="M 3.515625 -12.609375 C 3.804688 -12.597656 4.03125 -12.472656 4.1875 -12.234375 C 4.34375 -12.003906 4.382812 -11.742188 4.3125 -11.453125 C 4.269531 -11.242188 4.160156 -11.085938 3.984375 -10.984375 C 3.804688 -10.878906 3.597656 -10.828125 3.359375 -10.828125 C 3.109375 -10.835938 2.847656 -10.8125 2.578125 -10.75 C 2.304688 -10.6875 2.039062 -10.597656 1.78125 -10.484375 C 1.289062 -10.253906 0.890625 -9.972656 0.578125 -9.640625 C 0.265625 -9.304688 0.0351562 -8.929688 -0.109375 -8.515625 C -0.253906 -8.109375 -0.304688 -7.675781 -0.265625 -7.21875 C -0.234375 -6.769531 -0.109375 -6.304688 0.109375 -5.828125 C 0.367188 -5.273438 0.671875 -4.828125 1.015625 -4.484375 C 1.367188 -4.148438 1.75 -3.910156 2.15625 -3.765625 C 2.5625 -3.628906 2.984375 -3.582031 3.421875 -3.625 C 3.867188 -3.675781 4.316406 -3.804688 4.765625 -4.015625 C 5.003906 -4.128906 5.238281 -4.257812 5.46875 -4.40625 C 5.695312 -4.5625 5.890625 -4.753906 6.046875 -4.984375 C 6.210938 -5.160156 6.390625 -5.28125 6.578125 -5.34375 C 6.773438 -5.40625 6.976562 -5.382812 7.1875 -5.28125 C 7.46875 -5.132812 7.640625 -4.925781 7.703125 -4.65625 C 7.765625 -4.382812 7.703125 -4.144531 7.515625 -3.9375 C 7.335938 -3.71875 7.140625 -3.507812 6.921875 -3.3125 C 6.710938 -3.125 6.488281 -2.945312 6.25 -2.78125 C 6.019531 -2.625 5.773438 -2.488281 5.515625 -2.375 C 4.859375 -2.070312 4.1875 -1.890625 3.5 -1.828125 C 2.8125 -1.773438 2.144531 -1.84375 1.5 -2.03125 C 0.851562 -2.226562 0.257812 -2.570312 -0.28125 -3.0625 C -0.820312 -3.5625 -1.28125 -4.210938 -1.65625 -5.015625 C -1.976562 -5.710938 -2.15625 -6.410156 -2.1875 -7.109375 C -2.21875 -7.816406 -2.113281 -8.488281 -1.875 -9.125 C -1.632812 -9.757812 -1.265625 -10.332031 -0.765625 -10.84375 C -0.273438 -11.363281 0.320312 -11.789062 1.03125 -12.125 C 1.425781 -12.300781 1.832031 -12.429688 2.25 -12.515625 C 2.675781 -12.609375 3.097656 -12.640625 3.515625 -12.609375 Z M 3.515625 -12.609375 "/></g></g></g><g fill="#ffffff" fill-opacity="1"><g transform="translate(562.95119, 102.93958)"><g><path d="M 6.125 -5.6875 C 5.914062 -5.5 5.675781 -5.429688 5.40625 -5.484375 L -0.25 -6.46875 L -0.1875 -8.40625 L 5.65625 -7.375 C 5.882812 -7.332031 6.078125 -7.226562 6.234375 -7.0625 C 6.421875 -6.863281 6.492188 -6.628906 6.453125 -6.359375 C 6.421875 -6.085938 6.3125 -5.863281 6.125 -5.6875 Z M -0.953125 -13.546875 C -0.773438 -13.710938 -0.5625 -13.773438 -0.3125 -13.734375 C -0.0625 -13.691406 0.128906 -13.597656 0.265625 -13.453125 C 0.410156 -13.304688 0.476562 -13.109375 0.46875 -12.859375 L -0.046875 -4.171875 L -1.5625 -5.703125 L -1.25 -12.796875 C -1.238281 -13.117188 -1.140625 -13.367188 -0.953125 -13.546875 Z M 1.515625 -1.40625 C 1.304688 -1.207031 1.078125 -1.113281 0.828125 -1.125 C 0.585938 -1.144531 0.378906 -1.25 0.203125 -1.4375 L -5.6875 -7.78125 C -5.863281 -7.976562 -5.945312 -8.203125 -5.9375 -8.453125 C -5.925781 -8.710938 -5.820312 -8.929688 -5.625 -9.109375 C -5.414062 -9.304688 -5.1875 -9.394531 -4.9375 -9.375 C -4.695312 -9.363281 -4.488281 -9.257812 -4.3125 -9.0625 L 1.578125 -2.71875 C 1.753906 -2.53125 1.835938 -2.3125 1.828125 -2.0625 C 1.828125 -1.8125 1.722656 -1.59375 1.515625 -1.40625 Z M 1.515625 -1.40625 "/></g></g></g><g fill="#ffffff" fill-opacity="1"><g transform="translate(572.539626, 93.121833)"><g><path d="M 2.34375 -3.84375 C 2 -3.238281 1.609375 -2.734375 1.171875 -2.328125 C 0.742188 -1.921875 0.210938 -1.601562 -0.421875 -1.375 C -0.578125 -1.320312 -0.734375 -1.296875 -0.890625 -1.296875 C -1.046875 -1.304688 -1.179688 -1.34375 -1.296875 -1.40625 C -1.492188 -1.519531 -1.628906 -1.691406 -1.703125 -1.921875 C -1.785156 -2.160156 -1.765625 -2.390625 -1.640625 -2.609375 C -1.546875 -2.773438 -1.40625 -2.894531 -1.21875 -2.96875 C -0.769531 -3.144531 -0.382812 -3.351562 -0.0625 -3.59375 C 0.257812 -3.84375 0.554688 -4.207031 0.828125 -4.6875 C 1.015625 -5.007812 1.132812 -5.332031 1.1875 -5.65625 C 1.238281 -5.988281 1.226562 -6.285156 1.15625 -6.546875 C 1.082031 -6.804688 0.9375 -7 0.71875 -7.125 C 0.445312 -7.269531 0.175781 -7.316406 -0.09375 -7.265625 C -0.363281 -7.210938 -0.648438 -7.0625 -0.953125 -6.8125 C -1.265625 -6.5625 -1.597656 -6.207031 -1.953125 -5.75 C -2.296875 -5.3125 -2.632812 -4.953125 -2.96875 -4.671875 C -3.3125 -4.398438 -3.660156 -4.207031 -4.015625 -4.09375 C -4.378906 -3.976562 -4.742188 -3.945312 -5.109375 -4 C -5.484375 -4.050781 -5.859375 -4.179688 -6.234375 -4.390625 C -6.796875 -4.703125 -7.195312 -5.113281 -7.4375 -5.625 C -7.675781 -6.144531 -7.757812 -6.710938 -7.6875 -7.328125 C -7.613281 -7.941406 -7.40625 -8.550781 -7.0625 -9.15625 C -6.75 -9.71875 -6.367188 -10.191406 -5.921875 -10.578125 C -5.484375 -10.972656 -5.046875 -11.25 -4.609375 -11.40625 C -4.273438 -11.539062 -3.976562 -11.53125 -3.71875 -11.375 C -3.519531 -11.269531 -3.382812 -11.101562 -3.3125 -10.875 C -3.238281 -10.644531 -3.257812 -10.425781 -3.375 -10.21875 C -3.445312 -10.082031 -3.550781 -9.988281 -3.6875 -9.9375 C -3.894531 -9.863281 -4.117188 -9.738281 -4.359375 -9.5625 C -4.597656 -9.394531 -4.828125 -9.203125 -5.046875 -8.984375 C -5.265625 -8.765625 -5.4375 -8.539062 -5.5625 -8.3125 C -5.769531 -7.9375 -5.894531 -7.59375 -5.9375 -7.28125 C -5.988281 -6.96875 -5.972656 -6.695312 -5.890625 -6.46875 C -5.804688 -6.25 -5.65625 -6.078125 -5.4375 -5.953125 C -5.175781 -5.804688 -4.914062 -5.757812 -4.65625 -5.8125 C -4.394531 -5.875 -4.132812 -6.019531 -3.875 -6.25 C -3.613281 -6.488281 -3.335938 -6.785156 -3.046875 -7.140625 C -2.640625 -7.609375 -2.257812 -8.003906 -1.90625 -8.328125 C -1.550781 -8.648438 -1.195312 -8.882812 -0.84375 -9.03125 C -0.488281 -9.175781 -0.125 -9.226562 0.25 -9.1875 C 0.632812 -9.144531 1.050781 -9 1.5 -8.75 C 2.0625 -8.425781 2.457031 -7.992188 2.6875 -7.453125 C 2.925781 -6.910156 3.007812 -6.320312 2.9375 -5.6875 C 2.875 -5.050781 2.675781 -4.4375 2.34375 -3.84375 Z M 2.34375 -3.84375 "/></g></g></g><path stroke-linecap="butt" transform="matrix(0, -0.75, 0.75, 0, 218.706568, 594.913766)" fill="none" stroke-linejoin="miter" d="M -0.000394694 1.000618 L 622.952761 1.000618 " stroke="#000000" stroke-width="2" stroke-opacity="1" stroke-miterlimit="4"/><path stroke-linecap="butt" transform="matrix(-0.75, 0, 0, -0.75, 567.503878, 628.567789)" fill="none" stroke-linejoin="miter" d="M -0.0000373015 1.001843 L 684.682288 1.001843 " stroke="#000000" stroke-width="2" stroke-opacity="1" stroke-miterlimit="4"/><g fill="#f7591f" fill-opacity="1"><g transform="translate(85.410233, 114.904337)"><g><path d="M 2.1875 -9.078125 L 2.1875 0 L 1 0 L 1 -9.078125 Z M 2.1875 -9.078125 "/></g></g></g><g fill="#f7591f" fill-opacity="1"><g transform="translate(88.610161, 114.904337)"><g><path d="M 8.140625 0 L 6.953125 0 L 2.1875 -7.21875 L 2.1875 0 L 1 0 L 1 -9.078125 L 2.1875 -9.078125 L 6.953125 -1.875 L 6.953125 -9.078125 L 8.140625 -9.078125 Z M 8.140625 0 "/></g></g></g><g fill="#f7591f" fill-opacity="1"><g transform="translate(97.754654, 114.904337)"><g><path d="M 7.875 -6.4375 C 7.625 -6.96875 7.257812 -7.378906 6.78125 -7.671875 C 6.300781 -7.960938 5.742188 -8.109375 5.109375 -8.109375 C 4.484375 -8.109375 3.914062 -7.960938 3.40625 -7.671875 C 2.894531 -7.378906 2.492188 -6.960938 2.203125 -6.421875 C 1.910156 -5.878906 1.765625 -5.253906 1.765625 -4.546875 C 1.765625 -3.828125 1.910156 -3.195312 2.203125 -2.65625 C 2.492188 -2.125 2.894531 -1.710938 3.40625 -1.421875 C 3.914062 -1.128906 4.484375 -0.984375 5.109375 -0.984375 C 5.992188 -0.984375 6.722656 -1.25 7.296875 -1.78125 C 7.867188 -2.3125 8.203125 -3.03125 8.296875 -3.9375 L 4.6875 -3.9375 L 4.6875 -4.890625 L 9.5625 -4.890625 L 9.5625 -3.984375 C 9.5 -3.234375 9.265625 -2.546875 8.859375 -1.921875 C 8.460938 -1.304688 7.9375 -0.816406 7.28125 -0.453125 C 6.632812 -0.0976562 5.910156 0.078125 5.109375 0.078125 C 4.273438 0.078125 3.507812 -0.117188 2.8125 -0.515625 C 2.113281 -0.910156 1.5625 -1.457031 1.15625 -2.15625 C 0.757812 -2.863281 0.5625 -3.660156 0.5625 -4.546875 C 0.5625 -5.429688 0.757812 -6.222656 1.15625 -6.921875 C 1.5625 -7.628906 2.113281 -8.179688 2.8125 -8.578125 C 3.507812 -8.972656 4.273438 -9.171875 5.109375 -9.171875 C 6.078125 -9.171875 6.929688 -8.929688 7.671875 -8.453125 C 8.410156 -7.984375 8.953125 -7.3125 9.296875 -6.4375 Z M 7.875 -6.4375 "/></g></g></g><g fill="#f7591f" fill-opacity="1"><g transform="translate(107.874733, 114.904337)"><g><path d="M 5.78125 0 L 3.625 -3.703125 L 2.1875 -3.703125 L 2.1875 0 L 1 0 L 1 -9.078125 L 3.9375 -9.078125 C 4.613281 -9.078125 5.1875 -8.957031 5.65625 -8.71875 C 6.132812 -8.488281 6.488281 -8.171875 6.71875 -7.765625 C 6.957031 -7.367188 7.078125 -6.914062 7.078125 -6.40625 C 7.078125 -5.78125 6.894531 -5.226562 6.53125 -4.75 C 6.175781 -4.269531 5.640625 -3.953125 4.921875 -3.796875 L 7.203125 0 Z M 2.1875 -4.65625 L 3.9375 -4.65625 C 4.570312 -4.65625 5.050781 -4.8125 5.375 -5.125 C 5.695312 -5.445312 5.859375 -5.875 5.859375 -6.40625 C 5.859375 -6.9375 5.695312 -7.347656 5.375 -7.640625 C 5.0625 -7.941406 4.582031 -8.09375 3.9375 -8.09375 L 2.1875 -8.09375 Z M 2.1875 -4.65625 "/></g></g></g><g fill="#f7591f" fill-opacity="1"><g transform="translate(115.783492, 114.904337)"><g><path d="M 2.1875 -8.109375 L 2.1875 -5.078125 L 5.5 -5.078125 L 5.5 -4.09375 L 2.1875 -4.09375 L 2.1875 -0.96875 L 5.890625 -0.96875 L 5.890625 0 L 1 0 L 1 -9.078125 L 5.890625 -9.078125 L 5.890625 -8.109375 Z M 2.1875 -8.109375 "/></g></g></g><g fill="#f7591f" fill-opacity="1"><g transform="translate(122.456507, 114.904337)"><g><path d="M 3.828125 -9.078125 C 4.816406 -9.078125 5.671875 -8.890625 6.390625 -8.515625 C 7.117188 -8.148438 7.675781 -7.625 8.0625 -6.9375 C 8.445312 -6.25 8.640625 -5.441406 8.640625 -4.515625 C 8.640625 -3.585938 8.445312 -2.78125 8.0625 -2.09375 C 7.675781 -1.414062 7.117188 -0.894531 6.390625 -0.53125 C 5.671875 -0.175781 4.816406 0 3.828125 0 L 1 0 L 1 -9.078125 Z M 3.828125 -0.96875 C 4.992188 -0.96875 5.882812 -1.28125 6.5 -1.90625 C 7.125 -2.53125 7.4375 -3.398438 7.4375 -4.515625 C 7.4375 -5.640625 7.125 -6.519531 6.5 -7.15625 C 5.882812 -7.789062 4.992188 -8.109375 3.828125 -8.109375 L 2.1875 -8.109375 L 2.1875 -0.96875 Z M 3.828125 -0.96875 "/></g></g></g><g fill="#f7591f" fill-opacity="1"><g transform="translate(131.653036, 114.904337)"><g><path d="M 2.1875 -9.078125 L 2.1875 0 L 1 0 L 1 -9.078125 Z M 2.1875 -9.078125 "/></g></g></g><g fill="#f7591f" fill-opacity="1"><g transform="translate(134.852964, 114.904337)"><g><path d="M 2.1875 -8.109375 L 2.1875 -5.078125 L 5.5 -5.078125 L 5.5 -4.09375 L 2.1875 -4.09375 L 2.1875 -0.96875 L 5.890625 -0.96875 L 5.890625 0 L 1 0 L 1 -9.078125 L 5.890625 -9.078125 L 5.890625 -8.109375 Z M 2.1875 -8.109375 "/></g></g></g><g fill="#f7591f" fill-opacity="1"><g transform="translate(141.52598, 114.904337)"><g><path d="M 8.140625 0 L 6.953125 0 L 2.1875 -7.21875 L 2.1875 0 L 1 0 L 1 -9.078125 L 2.1875 -9.078125 L 6.953125 -1.875 L 6.953125 -9.078125 L 8.140625 -9.078125 Z M 8.140625 0 "/></g></g></g><g fill="#f7591f" fill-opacity="1"><g transform="translate(150.670472, 114.904337)"><g><path d="M 6.578125 -9.078125 L 6.578125 -8.109375 L 4.109375 -8.109375 L 4.109375 0 L 2.921875 0 L 2.921875 -8.109375 L 0.4375 -8.109375 L 0.4375 -9.078125 Z M 6.578125 -9.078125 "/></g></g></g><g fill="#f7591f" fill-opacity="1"><g transform="translate(157.707707, 114.904337)"><g><path d="M 3.875 0.09375 C 3.28125 0.09375 2.742188 -0.0078125 2.265625 -0.21875 C 1.796875 -0.4375 1.425781 -0.734375 1.15625 -1.109375 C 0.882812 -1.484375 0.742188 -1.921875 0.734375 -2.421875 L 2 -2.421875 C 2.039062 -1.992188 2.21875 -1.632812 2.53125 -1.34375 C 2.84375 -1.050781 3.289062 -0.90625 3.875 -0.90625 C 4.4375 -0.90625 4.878906 -1.046875 5.203125 -1.328125 C 5.535156 -1.609375 5.703125 -1.972656 5.703125 -2.421875 C 5.703125 -2.765625 5.601562 -3.046875 5.40625 -3.265625 C 5.21875 -3.484375 4.976562 -3.648438 4.6875 -3.765625 C 4.40625 -3.878906 4.023438 -4 3.546875 -4.125 C 2.941406 -4.28125 2.457031 -4.4375 2.09375 -4.59375 C 1.738281 -4.75 1.429688 -4.992188 1.171875 -5.328125 C 0.921875 -5.660156 0.796875 -6.109375 0.796875 -6.671875 C 0.796875 -7.171875 0.921875 -7.609375 1.171875 -7.984375 C 1.421875 -8.367188 1.773438 -8.664062 2.234375 -8.875 C 2.691406 -9.082031 3.210938 -9.1875 3.796875 -9.1875 C 4.648438 -9.1875 5.347656 -8.972656 5.890625 -8.546875 C 6.429688 -8.117188 6.738281 -7.554688 6.8125 -6.859375 L 5.5 -6.859375 C 5.457031 -7.203125 5.273438 -7.503906 4.953125 -7.765625 C 4.640625 -8.035156 4.21875 -8.171875 3.6875 -8.171875 C 3.1875 -8.171875 2.78125 -8.039062 2.46875 -7.78125 C 2.15625 -7.53125 2 -7.175781 2 -6.71875 C 2 -6.382812 2.09375 -6.113281 2.28125 -5.90625 C 2.46875 -5.695312 2.695312 -5.535156 2.96875 -5.421875 C 3.25 -5.316406 3.632812 -5.195312 4.125 -5.0625 C 4.726562 -4.894531 5.210938 -4.726562 5.578125 -4.5625 C 5.941406 -4.40625 6.25 -4.160156 6.5 -3.828125 C 6.757812 -3.492188 6.890625 -3.039062 6.890625 -2.46875 C 6.890625 -2.03125 6.773438 -1.613281 6.546875 -1.21875 C 6.316406 -0.832031 5.96875 -0.515625 5.5 -0.265625 C 5.039062 -0.0234375 4.5 0.09375 3.875 0.09375 Z M 3.875 0.09375 "/></g></g></g><g fill="#f7591f" fill-opacity="1"><g transform="translate(358.88228, 114.904337)"><g><path d="M 3.828125 -9.078125 C 4.816406 -9.078125 5.671875 -8.890625 6.390625 -8.515625 C 7.117188 -8.148438 7.675781 -7.625 8.0625 -6.9375 C 8.445312 -6.25 8.640625 -5.441406 8.640625 -4.515625 C 8.640625 -3.585938 8.445312 -2.78125 8.0625 -2.09375 C 7.675781 -1.414062 7.117188 -0.894531 6.390625 -0.53125 C 5.671875 -0.175781 4.816406 0 3.828125 0 L 1 0 L 1 -9.078125 Z M 3.828125 -0.96875 C 4.992188 -0.96875 5.882812 -1.28125 6.5 -1.90625 C 7.125 -2.53125 7.4375 -3.398438 7.4375 -4.515625 C 7.4375 -5.640625 7.125 -6.519531 6.5 -7.15625 C 5.882812 -7.789062 4.992188 -8.109375 3.828125 -8.109375 L 2.1875 -8.109375 L 2.1875 -0.96875 Z M 3.828125 -0.96875 "/></g></g></g><g fill="#f7591f" fill-opacity="1"><g transform="translate(368.078809, 114.904337)"><g><path d="M 2.1875 -9.078125 L 2.1875 0 L 1 0 L 1 -9.078125 Z M 2.1875 -9.078125 "/></g></g></g><g fill="#f7591f" fill-opacity="1"><g transform="translate(371.278737, 114.904337)"><g><path d="M 5.78125 0 L 3.625 -3.703125 L 2.1875 -3.703125 L 2.1875 0 L 1 0 L 1 -9.078125 L 3.9375 -9.078125 C 4.613281 -9.078125 5.1875 -8.957031 5.65625 -8.71875 C 6.132812 -8.488281 6.488281 -8.171875 6.71875 -7.765625 C 6.957031 -7.367188 7.078125 -6.914062 7.078125 -6.40625 C 7.078125 -5.78125 6.894531 -5.226562 6.53125 -4.75 C 6.175781 -4.269531 5.640625 -3.953125 4.921875 -3.796875 L 7.203125 0 Z M 2.1875 -4.65625 L 3.9375 -4.65625 C 4.570312 -4.65625 5.050781 -4.8125 5.375 -5.125 C 5.695312 -5.445312 5.859375 -5.875 5.859375 -6.40625 C 5.859375 -6.9375 5.695312 -7.347656 5.375 -7.640625 C 5.0625 -7.941406 4.582031 -8.09375 3.9375 -8.09375 L 2.1875 -8.09375 Z M 2.1875 -4.65625 "/></g></g></g><g fill="#f7591f" fill-opacity="1"><g transform="translate(379.187497, 114.904337)"><g><path d="M 2.1875 -8.109375 L 2.1875 -5.078125 L 5.5 -5.078125 L 5.5 -4.09375 L 2.1875 -4.09375 L 2.1875 -0.96875 L 5.890625 -0.96875 L 5.890625 0 L 1 0 L 1 -9.078125 L 5.890625 -9.078125 L 5.890625 -8.109375 Z M 2.1875 -8.109375 "/></g></g></g><g fill="#f7591f" fill-opacity="1"><g transform="translate(385.860512, 114.904337)"><g><path d="M 0.5625 -4.546875 C 0.5625 -5.429688 0.757812 -6.222656 1.15625 -6.921875 C 1.550781 -7.628906 2.09375 -8.179688 2.78125 -8.578125 C 3.476562 -8.984375 4.25 -9.1875 5.09375 -9.1875 C 6.082031 -9.1875 6.941406 -8.945312 7.671875 -8.46875 C 8.410156 -7.988281 8.953125 -7.3125 9.296875 -6.4375 L 7.875 -6.4375 C 7.625 -6.988281 7.257812 -7.410156 6.78125 -7.703125 C 6.3125 -7.992188 5.75 -8.140625 5.09375 -8.140625 C 4.457031 -8.140625 3.882812 -7.992188 3.375 -7.703125 C 2.875 -7.410156 2.476562 -6.992188 2.1875 -6.453125 C 1.90625 -5.910156 1.765625 -5.273438 1.765625 -4.546875 C 1.765625 -3.828125 1.90625 -3.191406 2.1875 -2.640625 C 2.476562 -2.097656 2.875 -1.679688 3.375 -1.390625 C 3.882812 -1.097656 4.457031 -0.953125 5.09375 -0.953125 C 5.75 -0.953125 6.3125 -1.097656 6.78125 -1.390625 C 7.257812 -1.679688 7.625 -2.097656 7.875 -2.640625 L 9.296875 -2.640625 C 8.953125 -1.773438 8.410156 -1.101562 7.671875 -0.625 C 6.941406 -0.15625 6.082031 0.078125 5.09375 0.078125 C 4.25 0.078125 3.476562 -0.117188 2.78125 -0.515625 C 2.09375 -0.910156 1.550781 -1.457031 1.15625 -2.15625 C 0.757812 -2.863281 0.5625 -3.660156 0.5625 -4.546875 Z M 0.5625 -4.546875 "/></g></g></g><g fill="#f7591f" fill-opacity="1"><g transform="translate(395.902553, 114.904337)"><g><path d="M 6.578125 -9.078125 L 6.578125 -8.109375 L 4.109375 -8.109375 L 4.109375 0 L 2.921875 0 L 2.921875 -8.109375 L 0.4375 -8.109375 L 0.4375 -9.078125 Z M 6.578125 -9.078125 "/></g></g></g><g fill="#f7591f" fill-opacity="1"><g transform="translate(402.939788, 114.904337)"><g><path d="M 2.1875 -9.078125 L 2.1875 0 L 1 0 L 1 -9.078125 Z M 2.1875 -9.078125 "/></g></g></g><g fill="#f7591f" fill-opacity="1"><g transform="translate(406.139716, 114.904337)"><g><path d="M 5.109375 0.09375 C 4.273438 0.09375 3.507812 -0.101562 2.8125 -0.5 C 2.113281 -0.894531 1.5625 -1.445312 1.15625 -2.15625 C 0.757812 -2.863281 0.5625 -3.660156 0.5625 -4.546875 C 0.5625 -5.429688 0.757812 -6.222656 1.15625 -6.921875 C 1.5625 -7.628906 2.113281 -8.179688 2.8125 -8.578125 C 3.507812 -8.972656 4.273438 -9.171875 5.109375 -9.171875 C 5.960938 -9.171875 6.734375 -8.972656 7.421875 -8.578125 C 8.117188 -8.179688 8.664062 -7.632812 9.0625 -6.9375 C 9.46875 -6.238281 9.671875 -5.441406 9.671875 -4.546875 C 9.671875 -3.648438 9.46875 -2.847656 9.0625 -2.140625 C 8.664062 -1.441406 8.117188 -0.894531 7.421875 -0.5 C 6.734375 -0.101562 5.960938 0.09375 5.109375 0.09375 Z M 5.109375 -0.9375 C 5.742188 -0.9375 6.316406 -1.082031 6.828125 -1.375 C 7.335938 -1.675781 7.734375 -2.097656 8.015625 -2.640625 C 8.304688 -3.191406 8.453125 -3.828125 8.453125 -4.546875 C 8.453125 -5.273438 8.304688 -5.910156 8.015625 -6.453125 C 7.734375 -6.992188 7.335938 -7.410156 6.828125 -7.703125 C 6.328125 -7.992188 5.753906 -8.140625 5.109375 -8.140625 C 4.472656 -8.140625 3.898438 -7.992188 3.390625 -7.703125 C 2.890625 -7.410156 2.492188 -6.992188 2.203125 -6.453125 C 1.910156 -5.910156 1.765625 -5.273438 1.765625 -4.546875 C 1.765625 -3.828125 1.910156 -3.191406 2.203125 -2.640625 C 2.492188 -2.097656 2.894531 -1.675781 3.40625 -1.375 C 3.914062 -1.082031 4.484375 -0.9375 5.109375 -0.9375 Z M 5.109375 -0.9375 "/></g></g></g><g fill="#f7591f" fill-opacity="1"><g transform="translate(416.363867, 114.904337)"><g><path d="M 8.140625 0 L 6.953125 0 L 2.1875 -7.21875 L 2.1875 0 L 1 0 L 1 -9.078125 L 2.1875 -9.078125 L 6.953125 -1.875 L 6.953125 -9.078125 L 8.140625 -9.078125 Z M 8.140625 0 "/></g></g></g><g fill="#f7591f" fill-opacity="1"><g transform="translate(425.50836, 114.904337)"><g><path d="M 3.875 0.09375 C 3.28125 0.09375 2.742188 -0.0078125 2.265625 -0.21875 C 1.796875 -0.4375 1.425781 -0.734375 1.15625 -1.109375 C 0.882812 -1.484375 0.742188 -1.921875 0.734375 -2.421875 L 2 -2.421875 C 2.039062 -1.992188 2.21875 -1.632812 2.53125 -1.34375 C 2.84375 -1.050781 3.289062 -0.90625 3.875 -0.90625 C 4.4375 -0.90625 4.878906 -1.046875 5.203125 -1.328125 C 5.535156 -1.609375 5.703125 -1.972656 5.703125 -2.421875 C 5.703125 -2.765625 5.601562 -3.046875 5.40625 -3.265625 C 5.21875 -3.484375 4.976562 -3.648438 4.6875 -3.765625 C 4.40625 -3.878906 4.023438 -4 3.546875 -4.125 C 2.941406 -4.28125 2.457031 -4.4375 2.09375 -4.59375 C 1.738281 -4.75 1.429688 -4.992188 1.171875 -5.328125 C 0.921875 -5.660156 0.796875 -6.109375 0.796875 -6.671875 C 0.796875 -7.171875 0.921875 -7.609375 1.171875 -7.984375 C 1.421875 -8.367188 1.773438 -8.664062 2.234375 -8.875 C 2.691406 -9.082031 3.210938 -9.1875 3.796875 -9.1875 C 4.648438 -9.1875 5.347656 -8.972656 5.890625 -8.546875 C 6.429688 -8.117188 6.738281 -7.554688 6.8125 -6.859375 L 5.5 -6.859375 C 5.457031 -7.203125 5.273438 -7.503906 4.953125 -7.765625 C 4.640625 -8.035156 4.21875 -8.171875 3.6875 -8.171875 C 3.1875 -8.171875 2.78125 -8.039062 2.46875 -7.78125 C 2.15625 -7.53125 2 -7.175781 2 -6.71875 C 2 -6.382812 2.09375 -6.113281 2.28125 -5.90625 C 2.46875 -5.695312 2.695312 -5.535156 2.96875 -5.421875 C 3.25 -5.316406 3.632812 -5.195312 4.125 -5.0625 C 4.726562 -4.894531 5.210938 -4.726562 5.578125 -4.5625 C 5.941406 -4.40625 6.25 -4.160156 6.5 -3.828125 C 6.757812 -3.492188 6.890625 -3.039062 6.890625 -2.46875 C 6.890625 -2.03125 6.773438 -1.613281 6.546875 -1.21875 C 6.316406 -0.832031 5.96875 -0.515625 5.5 -0.265625 C 5.039062 -0.0234375 4.5 0.09375 3.875 0.09375 Z M 3.875 0.09375 "/></g></g></g><g fill="#f7591f" fill-opacity="1"><g transform="translate(54.84375, 617.267869)"><g><path d="M 8.140625 0 L 6.953125 0 L 2.1875 -7.21875 L 2.1875 0 L 1 0 L 1 -9.078125 L 2.1875 -9.078125 L 6.953125 -1.875 L 6.953125 -9.078125 L 8.140625 -9.078125 Z M 8.140625 0 "/></g></g></g><g fill="#f7591f" fill-opacity="1"><g transform="translate(63.988242, 617.267869)"><g><path d="M 5.109375 0.09375 C 4.273438 0.09375 3.507812 -0.101562 2.8125 -0.5 C 2.113281 -0.894531 1.5625 -1.445312 1.15625 -2.15625 C 0.757812 -2.863281 0.5625 -3.660156 0.5625 -4.546875 C 0.5625 -5.429688 0.757812 -6.222656 1.15625 -6.921875 C 1.5625 -7.628906 2.113281 -8.179688 2.8125 -8.578125 C 3.507812 -8.972656 4.273438 -9.171875 5.109375 -9.171875 C 5.960938 -9.171875 6.734375 -8.972656 7.421875 -8.578125 C 8.117188 -8.179688 8.664062 -7.632812 9.0625 -6.9375 C 9.46875 -6.238281 9.671875 -5.441406 9.671875 -4.546875 C 9.671875 -3.648438 9.46875 -2.847656 9.0625 -2.140625 C 8.664062 -1.441406 8.117188 -0.894531 7.421875 -0.5 C 6.734375 -0.101562 5.960938 0.09375 5.109375 0.09375 Z M 5.109375 -0.9375 C 5.742188 -0.9375 6.316406 -1.082031 6.828125 -1.375 C 7.335938 -1.675781 7.734375 -2.097656 8.015625 -2.640625 C 8.304688 -3.191406 8.453125 -3.828125 8.453125 -4.546875 C 8.453125 -5.273438 8.304688 -5.910156 8.015625 -6.453125 C 7.734375 -6.992188 7.335938 -7.410156 6.828125 -7.703125 C 6.328125 -7.992188 5.753906 -8.140625 5.109375 -8.140625 C 4.472656 -8.140625 3.898438 -7.992188 3.390625 -7.703125 C 2.890625 -7.410156 2.492188 -6.992188 2.203125 -6.453125 C 1.910156 -5.910156 1.765625 -5.273438 1.765625 -4.546875 C 1.765625 -3.828125 1.910156 -3.191406 2.203125 -2.640625 C 2.492188 -2.097656 2.894531 -1.675781 3.40625 -1.375 C 3.914062 -1.082031 4.484375 -0.9375 5.109375 -0.9375 Z M 5.109375 -0.9375 "/></g></g></g><g fill="#f7591f" fill-opacity="1"><g transform="translate(74.212393, 617.267869)"><g><path d="M 6.578125 -9.078125 L 6.578125 -8.109375 L 4.109375 -8.109375 L 4.109375 0 L 2.921875 0 L 2.921875 -8.109375 L 0.4375 -8.109375 L 0.4375 -9.078125 Z M 6.578125 -9.078125 "/></g></g></g><g fill="#f7591f" fill-opacity="1"><g transform="translate(81.249628, 617.267869)"><g><path d="M 2.1875 -8.109375 L 2.1875 -5.078125 L 5.5 -5.078125 L 5.5 -4.09375 L 2.1875 -4.09375 L 2.1875 -0.96875 L 5.890625 -0.96875 L 5.890625 0 L 1 0 L 1 -9.078125 L 5.890625 -9.078125 L 5.890625 -8.109375 Z M 2.1875 -8.109375 "/></g></g></g><g fill="#f7591f" fill-opacity="1"><g transform="translate(87.922644, 617.267869)"><g><path d="M 3.875 0.09375 C 3.28125 0.09375 2.742188 -0.0078125 2.265625 -0.21875 C 1.796875 -0.4375 1.425781 -0.734375 1.15625 -1.109375 C 0.882812 -1.484375 0.742188 -1.921875 0.734375 -2.421875 L 2 -2.421875 C 2.039062 -1.992188 2.21875 -1.632812 2.53125 -1.34375 C 2.84375 -1.050781 3.289062 -0.90625 3.875 -0.90625 C 4.4375 -0.90625 4.878906 -1.046875 5.203125 -1.328125 C 5.535156 -1.609375 5.703125 -1.972656 5.703125 -2.421875 C 5.703125 -2.765625 5.601562 -3.046875 5.40625 -3.265625 C 5.21875 -3.484375 4.976562 -3.648438 4.6875 -3.765625 C 4.40625 -3.878906 4.023438 -4 3.546875 -4.125 C 2.941406 -4.28125 2.457031 -4.4375 2.09375 -4.59375 C 1.738281 -4.75 1.429688 -4.992188 1.171875 -5.328125 C 0.921875 -5.660156 0.796875 -6.109375 0.796875 -6.671875 C 0.796875 -7.171875 0.921875 -7.609375 1.171875 -7.984375 C 1.421875 -8.367188 1.773438 -8.664062 2.234375 -8.875 C 2.691406 -9.082031 3.210938 -9.1875 3.796875 -9.1875 C 4.648438 -9.1875 5.347656 -8.972656 5.890625 -8.546875 C 6.429688 -8.117188 6.738281 -7.554688 6.8125 -6.859375 L 5.5 -6.859375 C 5.457031 -7.203125 5.273438 -7.503906 4.953125 -7.765625 C 4.640625 -8.035156 4.21875 -8.171875 3.6875 -8.171875 C 3.1875 -8.171875 2.78125 -8.039062 2.46875 -7.78125 C 2.15625 -7.53125 2 -7.175781 2 -6.71875 C 2 -6.382812 2.09375 -6.113281 2.28125 -5.90625 C 2.46875 -5.695312 2.695312 -5.535156 2.96875 -5.421875 C 3.25 -5.316406 3.632812 -5.195312 4.125 -5.0625 C 4.726562 -4.894531 5.210938 -4.726562 5.578125 -4.5625 C 5.941406 -4.40625 6.25 -4.160156 6.5 -3.828125 C 6.757812 -3.492188 6.890625 -3.039062 6.890625 -2.46875 C 6.890625 -2.03125 6.773438 -1.613281 6.546875 -1.21875 C 6.316406 -0.832031 5.96875 -0.515625 5.5 -0.265625 C 5.039062 -0.0234375 4.5 0.09375 3.875 0.09375 Z M 3.875 0.09375 "/></g></g></g><g clip-path="url(#9722cbc287)"><path fill="#ffffff" d="M 363.527344 25.46875 C 363.527344 26.019531 363.476562 26.5625 363.367188 27.097656 C 363.261719 27.636719 363.101562 28.15625 362.894531 28.664062 C 362.683594 29.167969 362.425781 29.648438 362.121094 30.105469 C 361.820312 30.5625 361.472656 30.984375 361.085938 31.371094 C 360.699219 31.757812 360.277344 32.101562 359.820312 32.40625 C 359.363281 32.710938 358.882812 32.96875 358.378906 33.179688 C 357.871094 33.386719 357.351562 33.546875 356.8125 33.652344 C 356.277344 33.761719 355.734375 33.8125 355.183594 33.8125 C 354.636719 33.8125 354.09375 33.761719 353.558594 33.652344 C 353.019531 33.546875 352.5 33.386719 351.992188 33.179688 C 351.484375 32.96875 351.003906 32.710938 350.550781 32.40625 C 350.09375 32.101562 349.671875 31.757812 349.285156 31.371094 C 348.898438 30.984375 348.550781 30.5625 348.246094 30.105469 C 347.941406 29.648438 347.6875 29.167969 347.476562 28.664062 C 347.265625 28.15625 347.109375 27.636719 347 27.097656 C 346.894531 26.5625 346.839844 26.019531 346.839844 25.46875 C 346.839844 24.921875 346.894531 24.378906 347 23.84375 C 347.109375 23.304688 347.265625 22.785156 347.476562 22.277344 C 347.6875 21.769531 347.941406 21.289062 348.246094 20.835938 C 348.550781 20.378906 348.898438 19.957031 349.285156 19.570312 C 349.671875 19.183594 350.09375 18.835938 350.550781 18.53125 C 351.003906 18.226562 351.484375 17.972656 351.992188 17.761719 C 352.5 17.550781 353.019531 17.394531 353.558594 17.285156 C 354.09375 17.179688 354.636719 17.125 355.183594 17.125 C 355.734375 17.125 356.277344 17.179688 356.8125 17.285156 C 357.351562 17.394531 357.871094 17.550781 358.378906 17.761719 C 358.882812 17.972656 359.363281 18.226562 359.820312 18.53125 C 360.277344 18.835938 360.699219 19.183594 361.085938 19.570312 C 361.472656 19.957031 361.820312 20.378906 362.121094 20.835938 C 362.425781 21.289062 362.683594 21.769531 362.894531 22.277344 C 363.101562 22.785156 363.261719 23.304688 363.367188 23.84375 C 363.476562 24.378906 363.527344 24.921875 363.527344 25.46875 Z M 363.527344 25.46875 " fill-opacity="1" fill-rule="nonzero"/></g><g clip-path="url(#1cd0483544)"><path fill="#f7591f" d="M 355.183594 16.605469 C 350.285156 16.605469 346.320312 20.570312 346.320312 25.46875 C 346.320312 30.371094 350.285156 34.335938 355.183594 34.335938 C 360.085938 34.335938 364.050781 30.371094 364.050781 25.46875 C 364.050781 20.570312 360.085938 16.605469 355.183594 16.605469 Z M 355.183594 33.292969 C 350.871094 33.292969 347.363281 29.785156 347.363281 25.46875 C 347.363281 21.15625 350.871094 17.648438 355.183594 17.648438 C 359.5 17.648438 363.007812 21.15625 363.007812 25.46875 C 363.007812 29.785156 359.5 33.292969 355.183594 33.292969 Z M 355.183594 33.292969 " fill-opacity="1" fill-rule="nonzero"/></g><path fill="#f7591f" d="M 355.921875 27.683594 L 354.449219 29.15625 C 353.632812 29.972656 352.3125 29.972656 351.496094 29.15625 C 350.683594 28.34375 350.683594 27.019531 351.496094 26.207031 L 352.972656 24.734375 C 353.175781 24.527344 353.175781 24.199219 352.972656 23.996094 C 352.769531 23.792969 352.4375 23.792969 352.234375 23.996094 L 350.761719 25.46875 C 349.539062 26.691406 349.539062 28.675781 350.761719 29.894531 C 351.980469 31.113281 353.964844 31.113281 355.183594 29.894531 L 356.660156 28.421875 C 356.863281 28.214844 356.863281 27.886719 356.660156 27.683594 C 356.457031 27.480469 356.125 27.480469 355.921875 27.683594 Z M 355.921875 27.683594 " fill-opacity="1" fill-rule="nonzero"/><path fill="#f7591f" d="M 355.183594 21.046875 L 353.710938 22.519531 C 353.507812 22.722656 353.507812 23.054688 353.710938 23.257812 C 353.914062 23.460938 354.242188 23.460938 354.449219 23.257812 L 355.921875 21.78125 C 356.734375 20.96875 358.058594 20.96875 358.871094 21.78125 C 359.6875 22.597656 359.6875 23.917969 358.871094 24.734375 L 357.398438 26.207031 C 357.195312 26.410156 357.195312 26.742188 357.398438 26.945312 C 357.601562 27.148438 357.929688 27.148438 358.136719 26.945312 L 359.609375 25.46875 C 360.832031 24.25 360.832031 22.265625 359.609375 21.046875 C 358.390625 19.824219 356.40625 19.824219 355.183594 21.046875 Z M 355.183594 21.046875 " fill-opacity="1" fill-rule="nonzero"/><path fill="#f7591f" d="M 352.972656 27.683594 C 353.175781 27.886719 353.507812 27.886719 353.710938 27.683594 L 357.398438 23.996094 C 357.601562 23.792969 357.601562 23.460938 357.398438 23.257812 C 357.195312 23.054688 356.863281 23.054688 356.660156 23.257812 L 352.972656 26.945312 C 352.769531 27.148438 352.769531 27.480469 352.972656 27.683594 Z M 352.972656 27.683594 " fill-opacity="1" fill-rule="nonzero"/><path fill="#ffffff" d="M 439.847656 25.46875 C 439.847656 26.019531 439.796875 26.5625 439.6875 27.097656 C 439.582031 27.636719 439.421875 28.15625 439.214844 28.664062 C 439.003906 29.167969 438.746094 29.648438 438.441406 30.105469 C 438.136719 30.5625 437.792969 30.984375 437.40625 31.371094 C 437.019531 31.757812 436.597656 32.101562 436.140625 32.40625 C 435.683594 32.710938 435.203125 32.96875 434.699219 33.179688 C 434.191406 33.386719 433.671875 33.546875 433.132812 33.652344 C 432.59375 33.761719 432.054688 33.8125 431.503906 33.8125 C 430.957031 33.8125 430.414062 33.761719 429.878906 33.652344 C 429.339844 33.546875 428.816406 33.386719 428.3125 33.179688 C 427.804688 32.96875 427.324219 32.710938 426.871094 32.40625 C 426.414062 32.101562 425.992188 31.757812 425.605469 31.371094 C 425.21875 30.984375 424.871094 30.5625 424.566406 30.105469 C 424.261719 29.648438 424.007812 29.167969 423.796875 28.664062 C 423.585938 28.15625 423.429688 27.636719 423.320312 27.097656 C 423.214844 26.5625 423.160156 26.019531 423.160156 25.46875 C 423.160156 24.921875 423.214844 24.378906 423.320312 23.84375 C 423.429688 23.304688 423.585938 22.785156 423.796875 22.277344 C 424.007812 21.769531 424.261719 21.289062 424.566406 20.835938 C 424.871094 20.378906 425.21875 19.957031 425.605469 19.570312 C 425.992188 19.183594 426.414062 18.835938 426.871094 18.53125 C 427.324219 18.226562 427.804688 17.972656 428.3125 17.761719 C 428.816406 17.550781 429.339844 17.394531 429.878906 17.285156 C 430.414062 17.179688 430.957031 17.125 431.503906 17.125 C 432.054688 17.125 432.59375 17.179688 433.132812 17.285156 C 433.671875 17.394531 434.191406 17.550781 434.699219 17.761719 C 435.203125 17.972656 435.683594 18.226562 436.140625 18.53125 C 436.597656 18.835938 437.019531 19.183594 437.40625 19.570312 C 437.792969 19.957031 438.136719 20.378906 438.441406 20.835938 C 438.746094 21.289062 439.003906 21.769531 439.214844 22.277344 C 439.421875 22.785156 439.582031 23.304688 439.6875 23.84375 C 439.796875 24.378906 439.847656 24.921875 439.847656 25.46875 Z M 439.847656 25.46875 " fill-opacity="1" fill-rule="nonzero"/><g clip-path="url(#d8f123b96a)"><path fill="#f7591f" d="M 431.503906 16.605469 C 426.605469 16.605469 422.640625 20.570312 422.640625 25.46875 C 422.640625 30.371094 426.605469 34.335938 431.503906 34.335938 C 436.40625 34.335938 440.371094 30.371094 440.371094 25.46875 C 440.371094 20.570312 436.40625 16.605469 431.503906 16.605469 Z M 431.503906 33.292969 C 427.191406 33.292969 423.683594 29.785156 423.683594 25.46875 C 423.683594 21.15625 427.191406 17.648438 431.503906 17.648438 C 435.820312 17.648438 439.328125 21.15625 439.328125 25.46875 C 439.328125 29.785156 435.820312 33.292969 431.503906 33.292969 Z M 431.503906 33.292969 " fill-opacity="1" fill-rule="nonzero"/></g><path fill="#f7591f" d="M 432.242188 27.683594 L 430.769531 29.15625 C 429.953125 29.972656 428.632812 29.972656 427.816406 29.15625 C 427.003906 28.34375 427.003906 27.019531 427.816406 26.207031 L 429.292969 24.734375 C 429.496094 24.527344 429.496094 24.199219 429.292969 23.996094 C 429.089844 23.792969 428.757812 23.792969 428.554688 23.996094 L 427.082031 25.46875 C 425.859375 26.691406 425.859375 28.675781 427.082031 29.894531 C 428.300781 31.113281 430.285156 31.113281 431.503906 29.894531 L 432.980469 28.421875 C 433.183594 28.214844 433.183594 27.886719 432.980469 27.683594 C 432.777344 27.480469 432.445312 27.480469 432.242188 27.683594 Z M 432.242188 27.683594 " fill-opacity="1" fill-rule="nonzero"/><path fill="#f7591f" d="M 431.503906 21.046875 L 430.03125 22.519531 C 429.828125 22.722656 429.828125 23.054688 430.03125 23.257812 C 430.234375 23.460938 430.5625 23.460938 430.769531 23.257812 L 432.242188 21.78125 C 433.054688 20.96875 434.378906 20.96875 435.191406 21.78125 C 436.007812 22.597656 436.007812 23.917969 435.191406 24.734375 L 433.71875 26.207031 C 433.515625 26.410156 433.515625 26.742188 433.71875 26.945312 C 433.921875 27.148438 434.25 27.148438 434.457031 26.945312 L 435.929688 25.46875 C 437.148438 24.25 437.148438 22.265625 435.929688 21.046875 C 434.710938 19.824219 432.726562 19.824219 431.503906 21.046875 Z M 431.503906 21.046875 " fill-opacity="1" fill-rule="nonzero"/><path fill="#f7591f" d="M 429.292969 27.683594 C 429.496094 27.886719 429.828125 27.886719 430.03125 27.683594 L 433.71875 23.996094 C 433.921875 23.792969 433.921875 23.460938 433.71875 23.257812 C 433.515625 23.054688 433.183594 23.054688 432.980469 23.257812 L 429.292969 26.945312 C 429.089844 27.148438 429.089844 27.480469 429.292969 27.683594 Z M 429.292969 27.683594 " fill-opacity="1" fill-rule="nonzero"/><g clip-path="url(#d9139a9ef0)"><g clip-path="url(#3123ed4870)"><g transform="matrix(1, 0, 0, 1, 424, 18)"><g clip-path="url(#cea193c84a)"><g clip-path="url(#5a024113c7)"><g clip-path="url(#e322972228)"><path fill="#ffffff" d="M 0.308594 0.445312 L 14.710938 0.445312 L 14.710938 14.847656 L 0.308594 14.847656 Z M 0.308594 0.445312 " fill-opacity="1" fill-rule="nonzero"/></g></g></g></g></g></g><g clip-path="url(#9e1f485220)"><path fill="#f7591f" d="M 430.59375 28.300781 C 430.613281 29.128906 430.636719 30.128906 430.660156 31.132812 C 430.664062 31.453125 430.445312 31.726562 430.136719 31.804688 C 429.71875 31.902344 429.316406 31.578125 429.320312 31.132812 C 429.320312 30.710938 429.339844 30.292969 429.347656 29.871094 C 429.375 28.550781 429.398438 27.230469 429.425781 25.914062 C 429.433594 25.628906 429.4375 25.347656 429.445312 25.066406 C 429.445312 25.015625 429.441406 24.984375 429.382812 24.964844 C 428.617188 24.714844 428.144531 24.074219 428.140625 23.269531 C 428.132812 22.316406 428.136719 21.363281 428.136719 20.414062 C 428.136719 20.21875 428.132812 20.027344 428.140625 19.835938 C 428.140625 19.699219 428.191406 19.589844 428.328125 19.539062 C 428.4375 19.496094 428.542969 19.507812 428.636719 19.589844 C 428.722656 19.664062 428.734375 19.765625 428.734375 19.875 C 428.734375 20.867188 428.734375 21.863281 428.730469 22.859375 C 428.730469 22.964844 428.726562 23.074219 428.734375 23.179688 C 428.742188 23.28125 428.796875 23.351562 428.902344 23.375 C 429 23.402344 429.074219 23.355469 429.128906 23.273438 C 429.164062 23.21875 429.160156 23.152344 429.160156 23.089844 C 429.160156 22.367188 429.160156 21.648438 429.160156 20.925781 C 429.160156 20.5625 429.160156 20.199219 429.160156 19.835938 C 429.164062 19.667969 429.265625 19.542969 429.410156 19.519531 C 429.597656 19.492188 429.75 19.613281 429.757812 19.804688 C 429.765625 19.894531 429.761719 19.984375 429.761719 20.074219 C 429.761719 21.078125 429.761719 22.085938 429.761719 23.089844 C 429.761719 23.144531 429.761719 23.199219 429.78125 23.25 C 429.820312 23.335938 429.914062 23.394531 430 23.382812 C 430.113281 23.371094 430.191406 23.300781 430.207031 23.199219 C 430.214844 23.152344 430.210938 23.105469 430.210938 23.058594 C 430.210938 22 430.210938 20.941406 430.210938 19.882812 C 430.210938 19.792969 430.21875 19.710938 430.273438 19.636719 C 430.34375 19.539062 430.480469 19.492188 430.597656 19.527344 C 430.722656 19.558594 430.804688 19.652344 430.808594 19.789062 C 430.816406 20.019531 430.816406 20.253906 430.816406 20.484375 C 430.816406 21.328125 430.8125 22.167969 430.8125 23.011719 C 430.8125 23.085938 430.808594 23.160156 430.832031 23.234375 C 430.863281 23.320312 430.960938 23.394531 431.042969 23.386719 C 431.152344 23.378906 431.226562 23.3125 431.242188 23.199219 C 431.25 23.152344 431.253906 23.101562 431.253906 23.050781 C 431.253906 22.003906 431.253906 20.953125 431.25 19.90625 C 431.25 19.863281 431.253906 19.820312 431.257812 19.777344 C 431.277344 19.632812 431.378906 19.53125 431.515625 19.519531 C 431.667969 19.507812 431.792969 19.585938 431.835938 19.730469 C 431.851562 19.789062 431.855469 19.847656 431.855469 19.910156 C 431.855469 21.015625 431.839844 22.121094 431.859375 23.226562 C 431.871094 23.996094 431.347656 24.757812 430.621094 24.957031 C 430.554688 24.976562 430.550781 25.015625 430.550781 25.074219 C 430.566406 26.09375 430.578125 27.109375 430.59375 28.300781 Z M 430.59375 28.300781 " fill-opacity="1" fill-rule="nonzero"/></g><g clip-path="url(#a9a9e84c43)"><path fill="#f7591f" d="M 434.875 25.460938 C 434.875 27.34375 434.875 29.226562 434.875 31.109375 C 434.875 31.457031 434.691406 31.703125 434.371094 31.796875 C 433.957031 31.917969 433.527344 31.59375 433.53125 31.148438 C 433.539062 30.429688 433.554688 29.710938 433.5625 28.988281 C 433.574219 28.148438 433.582031 27.304688 433.59375 26.464844 C 433.597656 26.375 433.566406 26.351562 433.484375 26.359375 C 433.421875 26.363281 433.355469 26.363281 433.292969 26.363281 C 433.058594 26.355469 432.9375 26.238281 432.933594 26 C 432.933594 25.796875 432.933594 25.589844 432.933594 25.382812 C 432.941406 24.355469 432.902344 23.324219 432.953125 22.300781 C 432.996094 21.453125 433.210938 20.652344 433.761719 19.976562 C 433.929688 19.769531 434.125 19.59375 434.375 19.488281 C 434.671875 19.355469 434.875 19.496094 434.875 19.820312 C 434.875 21.699219 434.875 23.578125 434.875 25.460938 Z M 434.875 25.460938 " fill-opacity="1" fill-rule="nonzero"/></g></svg>