<svg xmlns="http://www.w3.org/2000/svg" xmlns:xlink="http://www.w3.org/1999/xlink" width="816" zoomAndPan="magnify" viewBox="0 0 612 791.999994" height="1056" preserveAspectRatio="xMidYMid meet" version="1.0"><defs><g/><clipPath id="651a3c1882"><path d="M 54 66.960938 L 501.371094 66.960938 L 501.371094 87.839844 L 54 87.839844 Z M 54 66.960938 " clip-rule="nonzero"/></clipPath><clipPath id="1d7911b3e4"><path d="M 0 0.960938 L 447.371094 0.960938 L 447.371094 21.839844 L 0 21.839844 Z M 0 0.960938 " clip-rule="nonzero"/></clipPath><clipPath id="906a882a91"><rect x="0" width="448" y="0" height="22"/></clipPath><clipPath id="4a174d17d6"><path d="M 489.132812 20.992188 L 586.488281 20.992188 L 586.488281 118.347656 L 489.132812 118.347656 Z M 489.132812 20.992188 " clip-rule="nonzero"/></clipPath><clipPath id="10b4ac7d54"><path d="M 537.808594 20.992188 C 510.925781 20.992188 489.132812 42.785156 489.132812 69.671875 C 489.132812 96.554688 510.925781 118.347656 537.808594 118.347656 C 564.691406 118.347656 586.488281 96.554688 586.488281 69.671875 C 586.488281 42.785156 564.691406 20.992188 537.808594 20.992188 Z M 537.808594 20.992188 " clip-rule="nonzero"/></clipPath><clipPath id="448ae7bdbf"><path d="M 0.132812 0.992188 L 97.488281 0.992188 L 97.488281 98.347656 L 0.132812 98.347656 Z M 0.132812 0.992188 " clip-rule="nonzero"/></clipPath><clipPath id="bdadbeeffb"><path d="M 48.808594 0.992188 C 21.925781 0.992188 0.132812 22.785156 0.132812 49.671875 C 0.132812 76.554688 21.925781 98.347656 48.808594 98.347656 C 75.691406 98.347656 97.488281 76.554688 97.488281 49.671875 C 97.488281 22.785156 75.691406 0.992188 48.808594 0.992188 Z M 48.808594 0.992188 " clip-rule="nonzero"/></clipPath><clipPath id="b09dca98f1"><rect x="0" width="98" y="0" height="99"/></clipPath><clipPath id="ebc070dfb3"><path d="M 512.507812 44.949219 L 563.113281 44.949219 L 563.113281 95.554688 L 512.507812 95.554688 Z M 512.507812 44.949219 " clip-rule="nonzero"/></clipPath><clipPath id="dac1c9abf8"><path d="M 537.808594 44.949219 C 523.835938 44.949219 512.507812 56.277344 512.507812 70.25 C 512.507812 84.226562 523.835938 95.554688 537.808594 95.554688 C 551.785156 95.554688 563.113281 84.226562 563.113281 70.25 C 563.113281 56.277344 551.785156 44.949219 537.808594 44.949219 Z M 537.808594 44.949219 " clip-rule="nonzero"/></clipPath><clipPath id="1e884b395b"><path d="M 0.507812 0.949219 L 51.113281 0.949219 L 51.113281 51.554688 L 0.507812 51.554688 Z M 0.507812 0.949219 " clip-rule="nonzero"/></clipPath><clipPath id="5fe21777e9"><path d="M 25.808594 0.949219 C 11.835938 0.949219 0.507812 12.277344 0.507812 26.25 C 0.507812 40.226562 11.835938 51.554688 25.808594 51.554688 C 39.785156 51.554688 51.113281 40.226562 51.113281 26.25 C 51.113281 12.277344 39.785156 0.949219 25.808594 0.949219 Z M 25.808594 0.949219 " clip-rule="nonzero"/></clipPath><clipPath id="f9082af6ea"><rect x="0" width="52" y="0" height="52"/></clipPath><clipPath id="2cd25251fe"><path d="M 522.242188 49.199219 L 546.992188 49.199219 L 546.992188 70.199219 L 522.242188 70.199219 Z M 522.242188 49.199219 " clip-rule="nonzero"/></clipPath><clipPath id="1275116e5d"><path d="M 529.410156 72.894531 L 554.160156 72.894531 L 554.160156 89.394531 L 529.410156 89.394531 Z M 529.410156 72.894531 " clip-rule="nonzero"/></clipPath><clipPath id="b92bd0c83d"><path d="M 346.320312 17 L 364 17 L 364 34 L 346.320312 34 Z M 346.320312 17 " clip-rule="nonzero"/></clipPath><clipPath id="3f88074850"><path d="M 346.320312 16.605469 L 364.320312 16.605469 L 364.320312 34.605469 L 346.320312 34.605469 Z M 346.320312 16.605469 " clip-rule="nonzero"/></clipPath><clipPath id="6bae0fc807"><path d="M 422.640625 16.605469 L 440.640625 16.605469 L 440.640625 34.605469 L 422.640625 34.605469 Z M 422.640625 16.605469 " clip-rule="nonzero"/></clipPath><clipPath id="1d155c8e63"><path d="M 424.308594 18.445312 L 438.710938 18.445312 L 438.710938 32.847656 L 424.308594 32.847656 Z M 424.308594 18.445312 " clip-rule="nonzero"/></clipPath><clipPath id="fd8370f2f6"><path d="M 431.507812 18.445312 C 427.53125 18.445312 424.308594 21.667969 424.308594 25.644531 C 424.308594 29.625 427.53125 32.847656 431.507812 32.847656 C 435.488281 32.847656 438.710938 29.625 438.710938 25.644531 C 438.710938 21.667969 435.488281 18.445312 431.507812 18.445312 Z M 431.507812 18.445312 " clip-rule="nonzero"/></clipPath><clipPath id="227d88746e"><path d="M 0.308594 0.445312 L 14.710938 0.445312 L 14.710938 14.847656 L 0.308594 14.847656 Z M 0.308594 0.445312 " clip-rule="nonzero"/></clipPath><clipPath id="7840db1f8f"><path d="M 7.507812 0.445312 C 3.53125 0.445312 0.308594 3.667969 0.308594 7.644531 C 0.308594 11.625 3.53125 14.847656 7.507812 14.847656 C 11.488281 14.847656 14.710938 11.625 14.710938 7.644531 C 14.710938 3.667969 11.488281 0.445312 7.507812 0.445312 Z M 7.507812 0.445312 " clip-rule="nonzero"/></clipPath><clipPath id="f486a16467"><rect x="0" width="15" y="0" height="15"/></clipPath><clipPath id="f2b8b70145"><path d="M 428.132812 19.359375 L 432 19.359375 L 432 32 L 428.132812 32 Z M 428.132812 19.359375 " clip-rule="nonzero"/></clipPath><clipPath id="0707d2edc9"><path d="M 432 19.359375 L 434.882812 19.359375 L 434.882812 32 L 432 32 Z M 432 19.359375 " clip-rule="nonzero"/></clipPath></defs><rect x="-61.2" width="734.4" fill="#ffffff" y="-79.199999" height="950.399992" fill-opacity="1"/><rect x="-61.2" width="734.4" fill="#ffffff" y="-79.199999" height="950.399992" fill-opacity="1"/><g clip-path="url(#651a3c1882)"><g transform="matrix(1, 0, 0, 1, 54, 66)"><g clip-path="url(#906a882a91)"><g clip-path="url(#1d7911b3e4)"><path fill="#d2691e" d="M 0 0.960938 L 447.371094 0.960938 L 447.371094 21.839844 L 0 21.839844 Z M 0 0.960938 " fill-opacity="1" fill-rule="nonzero"/></g></g></g></g><g clip-path="url(#4a174d17d6)"><g clip-path="url(#10b4ac7d54)"><g transform="matrix(1, 0, 0, 1, 489, 20)"><g clip-path="url(#b09dca98f1)"><g clip-path="url(#448ae7bdbf)"><g clip-path="url(#bdadbeeffb)"><path fill="#d2691e" d="M 0.132812 0.992188 L 97.488281 0.992188 L 97.488281 98.347656 L 0.132812 98.347656 Z M 0.132812 0.992188 " fill-opacity="1" fill-rule="nonzero"/></g></g></g></g></g></g><g clip-path="url(#ebc070dfb3)"><g clip-path="url(#dac1c9abf8)"><g transform="matrix(1, 0, 0, 1, 512, 44)"><g clip-path="url(#f9082af6ea)"><g clip-path="url(#1e884b395b)"><g clip-path="url(#5fe21777e9)"><path fill="#ffffff" d="M 0.507812 0.949219 L 51.113281 0.949219 L 51.113281 51.554688 L 0.507812 51.554688 Z M 0.507812 0.949219 " fill-opacity="1" fill-rule="nonzero"/></g></g></g></g></g></g><g clip-path="url(#2cd25251fe)"><path fill="#d2691e" d="M 546.632812 55.25 C 546.308594 53.660156 543.730469 49.199219 536.425781 49.585938 C 532.554688 49.789062 529.242188 51.375 526.882812 52.929688 C 526.851562 52.933594 526.828125 52.9375 526.824219 52.9375 L 526.828125 52.964844 C 524.554688 54.472656 523.175781 55.933594 523.0625 56.054688 L 523.078125 56.070312 C 522.519531 56.683594 522.246094 57.433594 522.3125 58.222656 C 522.386719 59.0625 522.828125 59.839844 523.445312 60.207031 C 523.476562 60.226562 523.492188 60.257812 523.492188 60.292969 L 523.492188 66.871094 C 523.492188 67.222656 523.714844 67.535156 524.046875 67.644531 L 531.605469 70.199219 C 531.691406 70.226562 531.78125 70.242188 531.867188 70.242188 C 531.960938 70.242188 532.050781 70.222656 532.136719 70.195312 L 532.160156 70.246094 L 545.105469 64.253906 C 545.5625 64.042969 545.859375 63.582031 545.859375 63.078125 L 545.859375 57.417969 C 546.929688 56.707031 546.757812 55.855469 546.632812 55.25 Z M 531.824219 69.550781 L 524.265625 66.996094 C 524.214844 66.980469 524.175781 66.929688 524.175781 66.871094 L 524.175781 60.292969 C 524.175781 60.019531 524.03125 59.761719 523.796875 59.621094 C 523.453125 59.414062 523.054688 58.871094 522.996094 58.167969 C 522.953125 57.671875 523.066406 56.945312 523.835938 56.285156 C 524.316406 55.875 525.152344 55.652344 526.125 55.652344 C 526.542969 55.652344 526.988281 55.695312 527.4375 55.78125 C 529.605469 56.1875 531.453125 57.453125 532.375 59.171875 C 533.277344 60.855469 533.199219 61.585938 533.070312 61.875 C 532.984375 62.0625 532.828125 62.183594 532.597656 62.242188 C 532.246094 62.324219 532 62.644531 532 63.019531 L 532 69.425781 C 532 69.484375 531.964844 69.515625 531.945312 69.53125 C 531.925781 69.546875 531.882812 69.570312 531.824219 69.550781 Z M 545.179688 57.023438 C 544.074219 57.574219 537.078125 60.59375 535.503906 61.269531 C 535.332031 61.34375 535.253906 61.542969 535.328125 61.71875 C 535.402344 61.890625 535.601562 61.972656 535.777344 61.898438 C 536.449219 61.605469 538.078125 60.90625 539.820312 60.148438 L 539.820312 63.421875 C 539.820312 63.609375 539.972656 63.761719 540.160156 63.761719 C 540.351562 63.761719 540.503906 63.609375 540.503906 63.421875 L 540.503906 59.851562 C 542.40625 59.023438 544.320312 58.183594 545.175781 57.78125 L 545.175781 63.078125 C 545.175781 63.316406 545.035156 63.535156 544.820312 63.632812 L 543.480469 64.253906 L 543.480469 60.199219 C 543.480469 60.011719 543.328125 59.859375 543.136719 59.859375 C 542.949219 59.859375 542.796875 60.011719 542.796875 60.199219 L 542.796875 64.570312 L 537.753906 66.90625 L 537.753906 63.507812 C 537.753906 63.320312 537.597656 63.167969 537.410156 63.167969 C 537.222656 63.167969 537.066406 63.320312 537.066406 63.507812 L 537.066406 67.222656 L 532.683594 69.25 L 532.683594 63.019531 C 532.683594 62.964844 532.714844 62.914062 532.757812 62.90625 C 533.195312 62.800781 533.519531 62.539062 533.695312 62.152344 C 534.019531 61.429688 533.785156 60.347656 532.980469 58.851562 C 531.957031 56.949219 529.933594 55.550781 527.5625 55.105469 C 526.722656 54.949219 525.910156 54.929688 525.199219 55.039062 C 525.738281 54.59375 526.402344 54.089844 527.171875 53.578125 C 528.285156 53.445312 533.222656 53.101562 535.824219 57.105469 C 535.925781 57.261719 536.125 57.316406 536.285156 57.222656 C 536.453125 57.125 536.507812 56.90625 536.402344 56.742188 C 534.207031 53.347656 530.480469 52.828125 528.382812 52.828125 C 529.332031 52.277344 530.402344 51.753906 531.5625 51.320312 C 532.363281 51.382812 537.070312 51.925781 538.746094 55.621094 C 538.824219 55.789062 539.011719 55.875 539.1875 55.808594 C 539.367188 55.738281 539.457031 55.53125 539.378906 55.355469 C 538.015625 52.324219 534.921875 51.230469 533.03125 50.839844 C 533.863281 50.609375 534.734375 50.433594 535.636719 50.335938 L 535.636719 50.339844 C 535.683594 50.347656 540.253906 51.207031 541.71875 53.710938 C 541.808594 53.863281 542 53.914062 542.15625 53.839844 C 542.339844 53.753906 542.402344 53.523438 542.300781 53.347656 C 541.367188 51.773438 539.4375 50.808594 537.910156 50.265625 C 543.726562 50.523438 545.742188 54.300781 545.96875 55.410156 C 546.101562 56.050781 546.195312 56.515625 545.179688 57.023438 Z M 530.9375 63.238281 C 531.125 63.234375 531.28125 63.386719 531.28125 63.578125 L 531.304688 67.96875 C 531.308594 68.15625 531.15625 68.308594 530.964844 68.3125 C 530.777344 68.3125 530.625 68.160156 530.621094 67.972656 L 530.597656 63.582031 C 530.597656 63.390625 530.75 63.238281 530.9375 63.238281 Z M 527.226562 56.640625 C 528.207031 56.808594 530.863281 57.523438 532.074219 60.457031 C 532.148438 60.632812 532.050781 60.835938 531.871094 60.902344 C 531.695312 60.964844 531.507812 60.875 531.4375 60.703125 C 530.34375 58.074219 527.964844 57.453125 527.117188 57.316406 C 526.945312 57.289062 526.820312 57.136719 526.832031 56.960938 C 526.84375 56.757812 527.023438 56.609375 527.226562 56.640625 Z M 527.226562 56.640625 " fill-opacity="1" fill-rule="nonzero"/></g><g clip-path="url(#1275116e5d)"><path fill="#d2691e" d="M 554.214844 80.4375 L 553.394531 75.402344 C 553.335938 75.039062 553.171875 74.691406 552.910156 74.375 C 552.671875 74.078125 552.355469 73.816406 551.976562 73.59375 C 551.609375 73.375 551.191406 73.207031 550.742188 73.089844 C 550.28125 72.96875 549.804688 72.90625 549.320312 72.902344 L 534.34375 72.902344 C 533.859375 72.90625 533.378906 72.96875 532.917969 73.089844 C 532.46875 73.207031 532.054688 73.375 531.683594 73.59375 C 531.304688 73.816406 530.988281 74.078125 530.75 74.375 C 530.488281 74.695312 530.324219 75.039062 530.265625 75.402344 L 529.449219 80.4375 C 529.410156 80.671875 529.414062 80.90625 529.449219 81.132812 C 529.449219 81.140625 530.503906 87.289062 530.503906 87.289062 C 530.5625 87.628906 530.695312 87.949219 530.898438 88.246094 C 531.097656 88.53125 531.359375 88.785156 531.671875 89 C 531.988281 89.210938 532.34375 89.378906 532.738281 89.492188 C 533.140625 89.609375 533.550781 89.65625 534.011719 89.664062 L 549.667969 89.664062 C 550.105469 89.664062 550.527344 89.605469 550.925781 89.492188 C 551.316406 89.378906 551.675781 89.210938 551.988281 89 C 552.300781 88.785156 552.5625 88.53125 552.761719 88.242188 C 552.964844 87.949219 553.097656 87.628906 553.15625 87.289062 C 553.15625 87.289062 554.210938 81.136719 554.210938 81.128906 C 554.246094 80.902344 554.25 80.671875 554.214844 80.4375 Z M 552.558594 87.1875 C 552.515625 87.4375 552.417969 87.675781 552.265625 87.898438 C 552.109375 88.125 551.898438 88.328125 551.648438 88.5 C 551.386719 88.675781 551.085938 88.816406 550.753906 88.910156 C 550.40625 89.011719 550.019531 89.066406 549.648438 89.058594 L 534.011719 89.058594 C 533.632812 89.058594 533.253906 89.011719 532.90625 88.910156 C 532.574219 88.816406 532.273438 88.675781 532.011719 88.5 C 531.761719 88.328125 531.554688 88.125 531.398438 87.898438 C 531.246094 87.679688 531.144531 87.4375 531.101562 87.1875 L 530.3125 82.589844 C 530.335938 82.613281 530.359375 82.636719 530.386719 82.65625 C 530.738281 82.941406 531.164062 83.164062 531.648438 83.320312 C 532.144531 83.476562 532.679688 83.554688 533.242188 83.554688 L 550.4375 83.554688 C 550.992188 83.554688 551.523438 83.476562 552.011719 83.320312 C 552.496094 83.164062 552.921875 82.941406 553.273438 82.65625 C 553.300781 82.636719 553.324219 82.613281 553.347656 82.589844 Z M 532.628906 79.730469 C 533.054688 79.234375 534.0625 78.671875 535.09375 78.605469 C 536.257812 78.527344 537.171875 78.6875 537.796875 79.082031 C 539.152344 79.941406 538.957031 82.074219 538.65625 82.949219 L 533.242188 82.949219 C 532.769531 82.941406 532.234375 82.824219 532.230469 82.816406 C 532.199219 82.746094 531.453125 81.097656 532.628906 79.730469 Z M 532.949219 75.910156 C 533.328125 75.4375 534.300781 74.941406 535.269531 74.929688 C 536.054688 74.925781 537.15625 75.164062 537.746094 75.71875 C 538.695312 76.609375 538.582031 78.148438 538.53125 78.886719 C 538.53125 78.890625 538.53125 78.894531 538.53125 78.902344 C 538.40625 78.78125 538.273438 78.667969 538.121094 78.574219 C 537.386719 78.105469 536.351562 77.914062 535.050781 78 C 533.929688 78.074219 532.855469 78.644531 532.292969 79.210938 C 532.191406 78.453125 532.121094 76.9375 532.949219 75.910156 Z M 545.570312 76.671875 C 545.570312 76.664062 545.574219 76.660156 545.578125 76.652344 C 545.710938 76.082031 546.597656 74.890625 548.390625 74.929688 C 549.359375 74.941406 550.332031 75.4375 550.710938 75.90625 C 551.53125 76.929688 551.46875 78.441406 551.367188 79.210938 C 550.808594 78.644531 549.734375 78.074219 548.609375 78 C 547.402344 77.921875 546.355469 78.125 545.660156 78.511719 C 545.707031 78.214844 545.742188 77.894531 545.730469 77.597656 C 545.722656 77.273438 545.660156 76.964844 545.570312 76.671875 Z M 548.570312 78.605469 C 549.597656 78.671875 550.605469 79.234375 551.03125 79.730469 C 552.210938 81.097656 551.484375 82.761719 551.429688 82.816406 C 551.367188 82.882812 550.695312 82.9375 550.417969 82.949219 L 546 82.949219 C 546.109375 82.417969 546.304688 80.945312 545.402344 79.640625 C 545.421875 79.574219 545.472656 79.445312 545.535156 79.363281 C 545.914062 78.886719 547.03125 78.503906 548.570312 78.605469 Z M 545.378906 82.949219 L 539.289062 82.949219 C 539.523438 82.117188 539.632812 80.707031 539.066406 79.613281 C 539.5625 79.105469 540.527344 78.582031 541.820312 78.632812 C 543.304688 78.691406 544.300781 79.257812 544.699219 79.722656 C 545.808594 81.011719 545.441406 82.695312 545.378906 82.949219 Z M 544.925781 79.09375 C 544.34375 78.582031 543.300781 78.085938 541.84375 78.027344 C 540.707031 77.984375 539.789062 78.324219 539.144531 78.765625 C 539.183594 78.207031 539.207031 77.375 538.949219 76.566406 C 539.203125 75.320312 540.761719 74.785156 541.828125 74.78125 C 542.890625 74.789062 543.90625 75.222656 544.484375 75.910156 C 544.890625 76.390625 545.105469 76.96875 545.125 77.617188 C 545.140625 78.113281 545.019531 78.710938 544.925781 79.09375 Z M 553.503906 81.417969 C 553.378906 81.703125 553.175781 81.960938 552.894531 82.1875 C 552.679688 82.359375 552.421875 82.496094 552.140625 82.613281 C 552.3125 82.015625 552.472656 80.929688 551.863281 79.867188 C 551.867188 79.859375 551.871094 79.855469 551.875 79.847656 C 551.902344 79.738281 552.507812 77.171875 551.183594 75.527344 C 550.722656 74.957031 549.589844 74.339844 548.398438 74.324219 C 546.746094 74.296875 545.703125 75.152344 545.242188 75.933594 C 545.152344 75.789062 545.058594 75.652344 544.949219 75.519531 C 544.261719 74.703125 543.066406 74.1875 541.832031 74.175781 C 541.820312 74.175781 541.808594 74.175781 541.796875 74.175781 C 540.566406 74.175781 539.179688 74.746094 538.597656 75.816406 C 538.472656 75.625 538.335938 75.441406 538.160156 75.277344 C 537.445312 74.601562 536.1875 74.316406 535.261719 74.324219 C 534.070312 74.339844 532.9375 74.957031 532.476562 75.527344 C 531.15625 77.175781 531.761719 79.714844 531.785156 79.820312 C 531.789062 79.835938 531.796875 79.847656 531.800781 79.859375 C 531.1875 80.921875 531.347656 82.015625 531.519531 82.613281 C 531.238281 82.496094 530.980469 82.359375 530.765625 82.1875 C 530.488281 81.960938 530.28125 81.703125 530.15625 81.417969 C 530.035156 81.132812 529.996094 80.835938 530.046875 80.535156 L 530.863281 75.5 C 530.90625 75.242188 531.027344 74.992188 531.21875 74.753906 C 531.414062 74.515625 531.671875 74.300781 531.992188 74.117188 C 532.3125 73.925781 532.675781 73.777344 533.070312 73.675781 C 533.484375 73.566406 533.910156 73.511719 534.34375 73.507812 L 549.316406 73.507812 C 549.75 73.511719 550.179688 73.566406 550.589844 73.675781 C 550.984375 73.777344 551.347656 73.925781 551.671875 74.117188 C 551.988281 74.300781 552.246094 74.515625 552.441406 74.757812 C 552.636719 74.992188 552.753906 75.242188 552.796875 75.5 L 553.617188 80.535156 C 553.664062 80.835938 553.628906 81.132812 553.503906 81.417969 Z M 553.503906 81.417969 " fill-opacity="1" fill-rule="nonzero"/></g><g fill="#ffffff" fill-opacity="1"><g transform="translate(511.697998, 51.773854)"><g><path d="M -3.953125 -11.328125 C -3.304688 -12.054688 -2.660156 -12.441406 -2.015625 -12.484375 C -1.367188 -12.535156 -0.71875 -12.269531 -0.0625 -11.6875 C 0.289062 -11.375 0.519531 -11.007812 0.625 -10.59375 C 0.738281 -10.1875 0.71875 -9.75 0.5625 -9.28125 C 0.40625 -8.8125 0.113281 -8.332031 -0.3125 -7.84375 L -0.796875 -8.34375 C -0.585938 -8.582031 -0.316406 -8.816406 0.015625 -9.046875 C 0.347656 -9.285156 0.71875 -9.472656 1.125 -9.609375 C 1.53125 -9.753906 1.957031 -9.789062 2.40625 -9.71875 C 2.863281 -9.644531 3.316406 -9.40625 3.765625 -9 C 4.253906 -8.5625 4.582031 -8.117188 4.75 -7.671875 C 4.925781 -7.234375 4.984375 -6.804688 4.921875 -6.390625 C 4.859375 -5.984375 4.722656 -5.601562 4.515625 -5.25 C 4.316406 -4.894531 4.097656 -4.582031 3.859375 -4.3125 L 1.359375 -1.53125 C 1.191406 -1.332031 0.984375 -1.226562 0.734375 -1.21875 C 0.484375 -1.207031 0.257812 -1.285156 0.0625 -1.453125 L -6.390625 -7.21875 C -6.585938 -7.394531 -6.691406 -7.609375 -6.703125 -7.859375 C -6.710938 -8.109375 -6.632812 -8.332031 -6.46875 -8.53125 Z M -2.8125 -9.953125 L -4.59375 -7.953125 L -4.640625 -8.265625 L -2.609375 -6.453125 L -2.84375 -6.40625 L -1.03125 -8.421875 C -0.84375 -8.640625 -0.742188 -8.894531 -0.734375 -9.1875 C -0.722656 -9.488281 -0.851562 -9.765625 -1.125 -10.015625 C -1.445312 -10.296875 -1.75 -10.421875 -2.03125 -10.390625 C -2.320312 -10.359375 -2.582031 -10.210938 -2.8125 -9.953125 Z M 0.328125 -7.3125 L -1.5 -5.265625 L -1.484375 -5.453125 L 0.875 -3.34375 L 0.671875 -3.3125 L 2.578125 -5.453125 C 2.878906 -5.796875 3.023438 -6.148438 3.015625 -6.515625 C 3.015625 -6.890625 2.832031 -7.238281 2.46875 -7.5625 C 2.125 -7.863281 1.816406 -8.007812 1.546875 -8 C 1.285156 -8 1.050781 -7.921875 0.84375 -7.765625 C 0.632812 -7.617188 0.460938 -7.46875 0.328125 -7.3125 Z M 0.328125 -7.3125 "/></g></g></g><g fill="#ffffff" fill-opacity="1"><g transform="translate(518.623862, 44.093159)"><g><path d="M 1.9375 -1.046875 C 1.6875 -0.910156 1.421875 -0.867188 1.140625 -0.921875 C 0.867188 -0.972656 0.671875 -1.113281 0.546875 -1.34375 L -3.546875 -8.96875 C -3.671875 -9.195312 -3.695312 -9.429688 -3.625 -9.671875 C -3.550781 -9.910156 -3.398438 -10.09375 -3.171875 -10.21875 L 0.640625 -12.25 C 1.097656 -12.5 1.585938 -12.609375 2.109375 -12.578125 C 2.640625 -12.546875 3.144531 -12.382812 3.625 -12.09375 C 4.101562 -11.800781 4.492188 -11.382812 4.796875 -10.84375 C 4.972656 -10.5 5.078125 -10.128906 5.109375 -9.734375 C 5.140625 -9.347656 5.109375 -8.960938 5.015625 -8.578125 C 4.921875 -8.203125 4.765625 -7.867188 4.546875 -7.578125 L 4.40625 -7.875 C 4.726562 -7.882812 5.015625 -7.835938 5.265625 -7.734375 C 5.523438 -7.640625 5.753906 -7.515625 5.953125 -7.359375 C 6.160156 -7.203125 6.335938 -7.007812 6.484375 -6.78125 C 6.640625 -6.582031 6.765625 -6.398438 6.859375 -6.234375 C 6.960938 -6.078125 7.066406 -5.953125 7.171875 -5.859375 C 7.273438 -5.773438 7.40625 -5.726562 7.5625 -5.71875 C 7.800781 -5.707031 8.003906 -5.609375 8.171875 -5.421875 C 8.335938 -5.234375 8.390625 -5.007812 8.328125 -4.75 C 8.296875 -4.601562 8.210938 -4.46875 8.078125 -4.34375 C 7.941406 -4.226562 7.789062 -4.148438 7.625 -4.109375 C 7.46875 -4.066406 7.320312 -4.046875 7.1875 -4.046875 C 7 -4.046875 6.78125 -4.09375 6.53125 -4.1875 C 6.289062 -4.28125 6.046875 -4.445312 5.796875 -4.6875 C 5.546875 -4.925781 5.300781 -5.273438 5.0625 -5.734375 C 4.976562 -5.878906 4.875 -6 4.75 -6.09375 C 4.632812 -6.195312 4.5 -6.265625 4.34375 -6.296875 C 4.195312 -6.335938 4.035156 -6.34375 3.859375 -6.3125 C 3.691406 -6.289062 3.507812 -6.226562 3.3125 -6.125 L 0.640625 -4.6875 L 0.671875 -5.09375 L 2.203125 -2.234375 C 2.328125 -2.003906 2.367188 -1.773438 2.328125 -1.546875 C 2.285156 -1.328125 2.15625 -1.160156 1.9375 -1.046875 Z M -0.078125 -6.0625 L 2.984375 -7.703125 C 3.148438 -7.796875 3.269531 -7.953125 3.34375 -8.171875 C 3.414062 -8.390625 3.429688 -8.648438 3.390625 -8.953125 C 3.359375 -9.265625 3.257812 -9.570312 3.09375 -9.875 C 2.882812 -10.257812 2.601562 -10.523438 2.25 -10.671875 C 1.90625 -10.816406 1.613281 -10.828125 1.375 -10.703125 L -1.671875 -9.0625 L -1.734375 -9.578125 L 0.265625 -5.84375 Z M -0.078125 -6.0625 "/></g></g></g><g fill="#ffffff" fill-opacity="1"><g transform="translate(528.311512, 39.162061)"><g><path d="M 0.328125 -10.6875 L 5.28125 -11.5 C 5.539062 -11.539062 5.769531 -11.492188 5.96875 -11.359375 C 6.164062 -11.222656 6.285156 -11.023438 6.328125 -10.765625 C 6.367188 -10.515625 6.316406 -10.300781 6.171875 -10.125 C 6.023438 -9.957031 5.820312 -9.851562 5.5625 -9.8125 L 1.421875 -9.125 L 1.515625 -9.390625 L 1.984375 -6.515625 L 1.84375 -6.609375 L 5.3125 -7.171875 C 5.5625 -7.210938 5.785156 -7.164062 5.984375 -7.03125 C 6.191406 -6.894531 6.316406 -6.703125 6.359375 -6.453125 C 6.398438 -6.203125 6.34375 -5.984375 6.1875 -5.796875 C 6.039062 -5.617188 5.84375 -5.507812 5.59375 -5.46875 L 2.171875 -4.90625 L 2.21875 -5.046875 L 2.71875 -2.0625 L 2.5625 -2.171875 L 6.6875 -2.84375 C 6.945312 -2.882812 7.175781 -2.832031 7.375 -2.6875 C 7.582031 -2.539062 7.703125 -2.351562 7.734375 -2.125 C 7.773438 -1.882812 7.722656 -1.671875 7.578125 -1.484375 C 7.429688 -1.296875 7.226562 -1.179688 6.96875 -1.140625 L 2.015625 -0.328125 C 1.765625 -0.285156 1.535156 -0.335938 1.328125 -0.484375 C 1.128906 -0.640625 1.007812 -0.84375 0.96875 -1.09375 L -0.421875 -9.640625 C -0.460938 -9.898438 -0.410156 -10.128906 -0.265625 -10.328125 C -0.117188 -10.523438 0.078125 -10.644531 0.328125 -10.6875 Z M 0.328125 -10.6875 "/></g></g></g><g fill="#ffffff" fill-opacity="1"><g transform="translate(537.419358, 37.702297)"><g><path d="M 6.21875 -7.234375 L 1.796875 -0.25 C 1.703125 -0.0625 1.570312 0.0664062 1.40625 0.140625 C 1.25 0.222656 1.082031 0.253906 0.90625 0.234375 C 0.65625 0.191406 0.476562 0.0859375 0.375 -0.078125 C 0.269531 -0.253906 0.234375 -0.445312 0.265625 -0.65625 C 0.285156 -0.75 0.3125 -0.84375 0.34375 -0.9375 L 5.46875 -9.203125 C 5.582031 -9.398438 5.726562 -9.535156 5.90625 -9.609375 C 6.082031 -9.691406 6.265625 -9.707031 6.453125 -9.65625 C 6.628906 -9.625 6.78125 -9.546875 6.90625 -9.421875 C 7.039062 -9.296875 7.128906 -9.128906 7.171875 -8.921875 L 9.421875 0.328125 C 9.453125 0.472656 9.457031 0.597656 9.4375 0.703125 C 9.394531 0.960938 9.273438 1.160156 9.078125 1.296875 C 8.878906 1.429688 8.675781 1.484375 8.46875 1.453125 C 8.289062 1.421875 8.140625 1.335938 8.015625 1.203125 C 7.898438 1.066406 7.816406 0.894531 7.765625 0.6875 L 5.765625 -7.234375 Z M 2.546875 -1.984375 L 3.65625 -3.546875 L 7.640625 -2.90625 L 7.640625 -1.15625 Z M 2.546875 -1.984375 "/></g></g></g><g fill="#ffffff" fill-opacity="1"><g transform="translate(547.394008, 39.298235)"><g><path d="M 10.046875 -6.40625 C 10.671875 -6.050781 11.160156 -5.617188 11.515625 -5.109375 C 11.867188 -4.597656 12.097656 -4.035156 12.203125 -3.421875 C 12.304688 -2.816406 12.285156 -2.1875 12.140625 -1.53125 C 11.992188 -0.882812 11.742188 -0.25 11.390625 0.375 C 10.921875 1.21875 10.335938 1.898438 9.640625 2.421875 C 8.953125 2.953125 8.203125 3.257812 7.390625 3.34375 C 6.578125 3.425781 5.75 3.226562 4.90625 2.75 L 1.78125 1 C 1.550781 0.875 1.40625 0.6875 1.34375 0.4375 C 1.28125 0.195312 1.3125 -0.03125 1.4375 -0.25 L 5.671875 -7.8125 C 5.796875 -8.03125 5.976562 -8.171875 6.21875 -8.234375 C 6.457031 -8.304688 6.691406 -8.28125 6.921875 -8.15625 Z M 5.609375 1.171875 C 6.160156 1.484375 6.691406 1.59375 7.203125 1.5 C 7.722656 1.414062 8.191406 1.179688 8.609375 0.796875 C 9.023438 0.421875 9.382812 -0.0351562 9.6875 -0.578125 C 9.914062 -0.984375 10.09375 -1.398438 10.21875 -1.828125 C 10.34375 -2.253906 10.382812 -2.660156 10.34375 -3.046875 C 10.3125 -3.429688 10.191406 -3.789062 9.984375 -4.125 C 9.785156 -4.457031 9.476562 -4.742188 9.0625 -4.984375 L 6.78125 -6.265625 L 6.96875 -6.296875 L 3.375 0.109375 L 3.375 -0.078125 Z M 5.609375 1.171875 "/></g></g></g><g fill="#ffffff" fill-opacity="1"><g transform="translate(557.075891, 45.006169)"><g><path d="M 2.828125 3.5 C 2.367188 2.976562 2.019531 2.441406 1.78125 1.890625 C 1.550781 1.347656 1.4375 0.742188 1.4375 0.078125 C 1.4375 -0.0976562 1.460938 -0.253906 1.515625 -0.390625 C 1.578125 -0.535156 1.660156 -0.65625 1.765625 -0.75 C 1.941406 -0.894531 2.148438 -0.960938 2.390625 -0.953125 C 2.628906 -0.953125 2.832031 -0.859375 3 -0.671875 C 3.125 -0.535156 3.1875 -0.363281 3.1875 -0.15625 C 3.21875 0.320312 3.289062 0.753906 3.40625 1.140625 C 3.53125 1.535156 3.773438 1.941406 4.140625 2.359375 C 4.390625 2.640625 4.660156 2.859375 4.953125 3.015625 C 5.242188 3.171875 5.523438 3.257812 5.796875 3.28125 C 6.066406 3.300781 6.296875 3.226562 6.484375 3.0625 C 6.710938 2.863281 6.84375 2.625 6.875 2.34375 C 6.914062 2.070312 6.867188 1.75 6.734375 1.375 C 6.597656 1 6.375 0.566406 6.0625 0.078125 C 5.769531 -0.378906 5.550781 -0.8125 5.40625 -1.21875 C 5.257812 -1.632812 5.191406 -2.03125 5.203125 -2.40625 C 5.210938 -2.789062 5.300781 -3.148438 5.46875 -3.484375 C 5.644531 -3.816406 5.894531 -4.125 6.21875 -4.40625 C 6.695312 -4.820312 7.21875 -5.054688 7.78125 -5.109375 C 8.351562 -5.171875 8.921875 -5.0625 9.484375 -4.78125 C 10.046875 -4.507812 10.550781 -4.113281 11 -3.59375 C 11.425781 -3.101562 11.75 -2.582031 11.96875 -2.03125 C 12.1875 -1.488281 12.296875 -0.984375 12.296875 -0.515625 C 12.304688 -0.160156 12.195312 0.113281 11.96875 0.3125 C 11.800781 0.457031 11.597656 0.523438 11.359375 0.515625 C 11.117188 0.515625 10.921875 0.429688 10.765625 0.265625 C 10.671875 0.140625 10.613281 0.00390625 10.59375 -0.140625 C 10.59375 -0.359375 10.550781 -0.609375 10.46875 -0.890625 C 10.382812 -1.179688 10.273438 -1.460938 10.140625 -1.734375 C 10.003906 -2.015625 9.851562 -2.253906 9.6875 -2.453125 C 9.40625 -2.773438 9.125 -3.007812 8.84375 -3.15625 C 8.570312 -3.3125 8.3125 -3.382812 8.0625 -3.375 C 7.820312 -3.375 7.609375 -3.289062 7.421875 -3.125 C 7.203125 -2.925781 7.078125 -2.691406 7.046875 -2.421875 C 7.015625 -2.160156 7.0625 -1.867188 7.1875 -1.546875 C 7.3125 -1.222656 7.492188 -0.863281 7.734375 -0.46875 C 8.046875 0.0625 8.289062 0.546875 8.46875 0.984375 C 8.65625 1.429688 8.757812 1.84375 8.78125 2.21875 C 8.800781 2.601562 8.726562 2.96875 8.5625 3.3125 C 8.394531 3.65625 8.117188 4 7.734375 4.34375 C 7.242188 4.757812 6.703125 4.988281 6.109375 5.03125 C 5.523438 5.070312 4.941406 4.953125 4.359375 4.671875 C 3.785156 4.398438 3.273438 4.007812 2.828125 3.5 Z M 2.828125 3.5 "/></g></g></g><g fill="#ffffff" fill-opacity="1"><g transform="translate(500.200774, 89.477687)"><g><path d="M 2.34375 3.46875 C 1.925781 2.894531 1.675781 2.285156 1.59375 1.640625 C 1.507812 0.992188 1.570312 0.394531 1.78125 -0.15625 C 2 -0.707031 2.335938 -1.15625 2.796875 -1.5 C 3.203125 -1.789062 3.617188 -1.988281 4.046875 -2.09375 C 4.484375 -2.195312 4.9375 -2.195312 5.40625 -2.09375 C 5.875 -2 6.359375 -1.796875 6.859375 -1.484375 L 6.59375 0.171875 C 6.050781 -0.304688 5.585938 -0.546875 5.203125 -0.546875 C 4.816406 -0.554688 4.445312 -0.429688 4.09375 -0.171875 C 3.84375 0.00390625 3.644531 0.238281 3.5 0.53125 C 3.363281 0.820312 3.320312 1.15625 3.375 1.53125 C 3.4375 1.914062 3.632812 2.335938 3.96875 2.796875 C 4.25 3.171875 4.585938 3.445312 4.984375 3.625 C 5.378906 3.800781 5.800781 3.894531 6.25 3.90625 C 6.695312 3.925781 7.144531 3.875 7.59375 3.75 C 8.050781 3.632812 8.476562 3.46875 8.875 3.25 C 9.007812 3.175781 9.144531 3.148438 9.28125 3.171875 C 9.425781 3.203125 9.570312 3.320312 9.71875 3.53125 C 9.875 3.738281 9.910156 3.96875 9.828125 4.21875 C 9.742188 4.46875 9.578125 4.660156 9.328125 4.796875 C 8.796875 5.066406 8.21875 5.269531 7.59375 5.40625 C 6.976562 5.539062 6.359375 5.578125 5.734375 5.515625 C 5.117188 5.453125 4.519531 5.253906 3.9375 4.921875 C 3.351562 4.597656 2.820312 4.113281 2.34375 3.46875 Z M 5.609375 7.703125 C 5.535156 7.597656 5.484375 7.503906 5.453125 7.421875 C 5.429688 7.335938 5.421875 7.257812 5.421875 7.1875 C 5.492188 6.25 5.566406 5.382812 5.640625 4.59375 C 5.710938 3.8125 5.796875 3.070312 5.890625 2.375 C 5.984375 1.6875 6.097656 1.019531 6.234375 0.375 C 6.359375 -0.144531 6.460938 -0.613281 6.546875 -1.03125 C 6.628906 -1.457031 6.742188 -1.832031 6.890625 -2.15625 C 7.035156 -2.488281 7.253906 -2.765625 7.546875 -2.984375 C 7.941406 -3.273438 8.390625 -3.4375 8.890625 -3.46875 C 9.390625 -3.5 9.890625 -3.394531 10.390625 -3.15625 C 10.898438 -2.925781 11.351562 -2.535156 11.75 -1.984375 C 12.15625 -1.429688 12.429688 -0.863281 12.578125 -0.28125 C 12.722656 0.300781 12.695312 0.785156 12.5 1.171875 C 12.5 1.179688 12.460938 1.234375 12.390625 1.328125 C 12.316406 1.421875 12.222656 1.507812 12.109375 1.59375 C 11.941406 1.71875 11.765625 1.765625 11.578125 1.734375 C 11.390625 1.710938 11.222656 1.609375 11.078125 1.421875 C 10.984375 1.285156 10.929688 1.160156 10.921875 1.046875 C 10.910156 0.941406 10.914062 0.847656 10.9375 0.765625 C 11.050781 0.410156 11.070312 0.0859375 11 -0.203125 C 10.925781 -0.503906 10.773438 -0.804688 10.546875 -1.109375 C 10.285156 -1.472656 9.984375 -1.675781 9.640625 -1.71875 C 9.304688 -1.769531 9.007812 -1.695312 8.75 -1.5 C 8.488281 -1.320312 8.300781 -1.050781 8.1875 -0.6875 C 8.082031 -0.320312 8.003906 0.046875 7.953125 0.421875 C 7.898438 0.804688 7.847656 1.144531 7.796875 1.4375 C 7.703125 1.875 7.617188 2.359375 7.546875 2.890625 C 7.472656 3.429688 7.40625 3.960938 7.34375 4.484375 C 7.289062 5.003906 7.238281 5.488281 7.1875 5.9375 C 7.144531 6.394531 7.109375 6.769531 7.078125 7.0625 C 7.046875 7.226562 7.003906 7.375 6.953125 7.5 C 6.898438 7.632812 6.804688 7.75 6.671875 7.84375 C 6.566406 7.914062 6.398438 7.960938 6.171875 7.984375 C 5.953125 8.003906 5.765625 7.910156 5.609375 7.703125 Z M 5.609375 7.703125 "/></g></g></g><g fill="#ffffff" fill-opacity="1"><g transform="translate(510.033063, 101.040156)"><g/></g></g><g fill="#ffffff" fill-opacity="1"><g transform="translate(517.131317, 106.248002)"><g><path d="M 2.046875 0.8125 C 1.785156 0.707031 1.585938 0.53125 1.453125 0.28125 C 1.316406 0.0390625 1.296875 -0.195312 1.390625 -0.4375 L 4.609375 -8.46875 C 4.703125 -8.707031 4.863281 -8.878906 5.09375 -8.984375 C 5.320312 -9.085938 5.5625 -9.085938 5.8125 -8.984375 L 9.8125 -7.390625 C 10.289062 -7.191406 10.6875 -6.878906 11 -6.453125 C 11.320312 -6.035156 11.523438 -5.546875 11.609375 -4.984375 C 11.691406 -4.429688 11.613281 -3.867188 11.375 -3.296875 C 11.238281 -2.929688 11.03125 -2.609375 10.75 -2.328125 C 10.46875 -2.054688 10.148438 -1.832031 9.796875 -1.65625 C 9.441406 -1.488281 9.082031 -1.390625 8.71875 -1.359375 L 8.875 -1.6875 C 9.070312 -1.445312 9.21875 -1.195312 9.3125 -0.9375 C 9.414062 -0.675781 9.46875 -0.414062 9.46875 -0.15625 C 9.476562 0.101562 9.441406 0.359375 9.359375 0.609375 C 9.304688 0.867188 9.253906 1.085938 9.203125 1.265625 C 9.148438 1.441406 9.117188 1.597656 9.109375 1.734375 C 9.109375 1.867188 9.148438 2 9.234375 2.125 C 9.390625 2.320312 9.445312 2.546875 9.40625 2.796875 C 9.375 3.046875 9.238281 3.222656 9 3.328125 C 8.851562 3.410156 8.691406 3.4375 8.515625 3.40625 C 8.347656 3.375 8.191406 3.304688 8.046875 3.203125 C 7.898438 3.109375 7.789062 3.015625 7.71875 2.921875 C 7.59375 2.765625 7.488281 2.5625 7.40625 2.3125 C 7.320312 2.070312 7.289062 1.78125 7.3125 1.4375 C 7.34375 1.101562 7.453125 0.691406 7.640625 0.203125 C 7.703125 0.046875 7.734375 -0.109375 7.734375 -0.265625 C 7.734375 -0.429688 7.695312 -0.582031 7.625 -0.71875 C 7.5625 -0.851562 7.460938 -0.972656 7.328125 -1.078125 C 7.203125 -1.191406 7.03125 -1.296875 6.8125 -1.390625 L 4 -2.515625 L 4.328125 -2.765625 L 3.125 0.25 C 3.03125 0.488281 2.882812 0.664062 2.6875 0.78125 C 2.488281 0.894531 2.273438 0.90625 2.046875 0.8125 Z M 4.59375 -3.9375 L 7.828125 -2.640625 C 8.003906 -2.578125 8.195312 -2.585938 8.40625 -2.671875 C 8.625 -2.765625 8.835938 -2.921875 9.046875 -3.140625 C 9.253906 -3.367188 9.421875 -3.644531 9.546875 -3.96875 C 9.710938 -4.375 9.738281 -4.757812 9.625 -5.125 C 9.519531 -5.488281 9.34375 -5.71875 9.09375 -5.8125 L 5.875 -7.109375 L 6.21875 -7.484375 L 4.640625 -3.546875 Z M 4.59375 -3.9375 "/></g></g></g><g fill="#ffffff" fill-opacity="1"><g transform="translate(531.733687, 111.178837)"><g><path d="M 10.828125 -5.15625 C 10.816406 -4.40625 10.679688 -3.703125 10.421875 -3.046875 C 10.171875 -2.398438 9.816406 -1.832031 9.359375 -1.34375 C 8.898438 -0.851562 8.359375 -0.46875 7.734375 -0.1875 C 7.109375 0.0820312 6.425781 0.210938 5.6875 0.203125 C 4.945312 0.203125 4.265625 0.0625 3.640625 -0.21875 C 3.023438 -0.507812 2.488281 -0.90625 2.03125 -1.40625 C 1.582031 -1.90625 1.234375 -2.484375 0.984375 -3.140625 C 0.742188 -3.796875 0.628906 -4.5 0.640625 -5.25 C 0.648438 -6 0.78125 -6.695312 1.03125 -7.34375 C 1.289062 -7.988281 1.648438 -8.554688 2.109375 -9.046875 C 2.578125 -9.535156 3.117188 -9.914062 3.734375 -10.1875 C 4.359375 -10.46875 5.039062 -10.609375 5.78125 -10.609375 C 6.519531 -10.597656 7.203125 -10.445312 7.828125 -10.15625 C 8.453125 -9.875 8.988281 -9.484375 9.4375 -8.984375 C 9.882812 -8.484375 10.226562 -7.90625 10.46875 -7.25 C 10.71875 -6.601562 10.835938 -5.90625 10.828125 -5.15625 Z M 8.875 -5.171875 C 8.882812 -5.835938 8.757812 -6.441406 8.5 -6.984375 C 8.238281 -7.535156 7.867188 -7.972656 7.390625 -8.296875 C 6.921875 -8.617188 6.378906 -8.785156 5.765625 -8.796875 C 5.140625 -8.796875 4.59375 -8.640625 4.125 -8.328125 C 3.65625 -8.015625 3.285156 -7.585938 3.015625 -7.046875 C 2.742188 -6.515625 2.601562 -5.910156 2.59375 -5.234375 C 2.582031 -4.566406 2.707031 -3.957031 2.96875 -3.40625 C 3.238281 -2.851562 3.601562 -2.414062 4.0625 -2.09375 C 4.53125 -1.769531 5.078125 -1.609375 5.703125 -1.609375 C 6.316406 -1.597656 6.863281 -1.75 7.34375 -2.0625 C 7.820312 -2.375 8.191406 -2.800781 8.453125 -3.34375 C 8.722656 -3.894531 8.863281 -4.503906 8.875 -5.171875 Z M 8.875 -5.171875 "/></g></g></g><g fill="#ffffff" fill-opacity="1"><g transform="translate(548.01066, 110.211718)"><g><path d="M 5.953125 -3.953125 C 6.203125 -4.035156 6.429688 -4.023438 6.640625 -3.921875 C 6.859375 -3.828125 7.007812 -3.660156 7.09375 -3.421875 C 7.175781 -3.179688 7.164062 -2.953125 7.0625 -2.734375 C 6.957031 -2.523438 6.78125 -2.378906 6.53125 -2.296875 L 1.9375 -0.671875 C 1.6875 -0.585938 1.445312 -0.597656 1.21875 -0.703125 C 1 -0.816406 0.84375 -1 0.75 -1.25 L -2.109375 -9.40625 C -2.203125 -9.65625 -2.191406 -9.890625 -2.078125 -10.109375 C -1.960938 -10.335938 -1.78125 -10.5 -1.53125 -10.59375 C -1.300781 -10.675781 -1.066406 -10.664062 -0.828125 -10.5625 C -0.597656 -10.457031 -0.4375 -10.28125 -0.34375 -10.03125 L 2.328125 -2.421875 L 1.9375 -2.546875 Z M 5.953125 -3.953125 "/></g></g></g><g fill="#ffffff" fill-opacity="1"><g transform="translate(560.166713, 105.164897)"><g><path d="M 4.484375 -5.5625 C 4.691406 -5.71875 4.910156 -5.78125 5.140625 -5.75 C 5.367188 -5.726562 5.5625 -5.613281 5.71875 -5.40625 C 5.875 -5.207031 5.929688 -4.988281 5.890625 -4.75 C 5.859375 -4.519531 5.738281 -4.328125 5.53125 -4.171875 L 1.640625 -1.234375 C 1.429688 -1.078125 1.203125 -1.015625 0.953125 -1.046875 C 0.710938 -1.078125 0.507812 -1.195312 0.34375 -1.40625 L -4.859375 -8.328125 C -5.015625 -8.535156 -5.070312 -8.765625 -5.03125 -9.015625 C -5 -9.265625 -4.875 -9.472656 -4.65625 -9.640625 C -4.457031 -9.785156 -4.234375 -9.84375 -3.984375 -9.8125 C -3.734375 -9.789062 -3.53125 -9.675781 -3.375 -9.46875 L 1.484375 -3.015625 L 1.09375 -3 Z M 4.484375 -5.5625 "/></g></g></g><g fill="#ffffff" fill-opacity="1"><g transform="translate(570.270184, 96.662301)"><g><path d="M 2.703125 -3.59375 C 2.304688 -3.019531 1.875 -2.554688 1.40625 -2.203125 C 0.9375 -1.847656 0.378906 -1.582031 -0.265625 -1.40625 C -0.429688 -1.375 -0.59375 -1.367188 -0.75 -1.390625 C -0.90625 -1.410156 -1.039062 -1.457031 -1.15625 -1.53125 C -1.34375 -1.664062 -1.460938 -1.847656 -1.515625 -2.078125 C -1.566406 -2.316406 -1.519531 -2.539062 -1.375 -2.75 C -1.269531 -2.90625 -1.117188 -3.007812 -0.921875 -3.0625 C -0.460938 -3.207031 -0.0625 -3.382812 0.28125 -3.59375 C 0.632812 -3.8125 0.96875 -4.144531 1.28125 -4.59375 C 1.5 -4.894531 1.648438 -5.207031 1.734375 -5.53125 C 1.816406 -5.851562 1.832031 -6.144531 1.78125 -6.40625 C 1.738281 -6.675781 1.613281 -6.878906 1.40625 -7.015625 C 1.15625 -7.191406 0.894531 -7.265625 0.625 -7.234375 C 0.351562 -7.203125 0.0507812 -7.078125 -0.28125 -6.859375 C -0.613281 -6.640625 -0.984375 -6.320312 -1.390625 -5.90625 C -1.753906 -5.507812 -2.117188 -5.191406 -2.484375 -4.953125 C -2.859375 -4.710938 -3.226562 -4.550781 -3.59375 -4.46875 C -3.957031 -4.382812 -4.320312 -4.382812 -4.6875 -4.46875 C -5.0625 -4.550781 -5.421875 -4.71875 -5.765625 -4.96875 C -6.296875 -5.34375 -6.65625 -5.800781 -6.84375 -6.34375 C -7.03125 -6.882812 -7.054688 -7.457031 -6.921875 -8.0625 C -6.796875 -8.664062 -6.535156 -9.25 -6.140625 -9.8125 C -5.773438 -10.34375 -5.347656 -10.773438 -4.859375 -11.109375 C -4.378906 -11.453125 -3.914062 -11.6875 -3.46875 -11.8125 C -3.125 -11.90625 -2.828125 -11.863281 -2.578125 -11.6875 C -2.398438 -11.5625 -2.285156 -11.378906 -2.234375 -11.140625 C -2.179688 -10.910156 -2.21875 -10.703125 -2.34375 -10.515625 C -2.4375 -10.390625 -2.550781 -10.300781 -2.6875 -10.25 C -2.90625 -10.195312 -3.140625 -10.097656 -3.390625 -9.953125 C -3.648438 -9.804688 -3.898438 -9.628906 -4.140625 -9.421875 C -4.378906 -9.222656 -4.570312 -9.019531 -4.71875 -8.8125 C -4.96875 -8.457031 -5.132812 -8.128906 -5.21875 -7.828125 C -5.300781 -7.523438 -5.304688 -7.257812 -5.234375 -7.03125 C -5.160156 -6.800781 -5.023438 -6.613281 -4.828125 -6.46875 C -4.578125 -6.289062 -4.320312 -6.21875 -4.0625 -6.25 C -3.800781 -6.28125 -3.53125 -6.394531 -3.25 -6.59375 C -2.96875 -6.800781 -2.65625 -7.066406 -2.3125 -7.390625 C -1.875 -7.828125 -1.460938 -8.1875 -1.078125 -8.46875 C -0.691406 -8.75 -0.316406 -8.945312 0.046875 -9.0625 C 0.410156 -9.1875 0.78125 -9.207031 1.15625 -9.125 C 1.53125 -9.039062 1.925781 -8.847656 2.34375 -8.546875 C 2.875 -8.179688 3.226562 -7.71875 3.40625 -7.15625 C 3.59375 -6.59375 3.617188 -5.992188 3.484375 -5.359375 C 3.347656 -4.734375 3.085938 -4.144531 2.703125 -3.59375 Z M 2.703125 -3.59375 "/></g></g></g><path stroke-linecap="butt" transform="matrix(0, -0.75, 0.75, 0, 218.706568, 594.913766)" fill="none" stroke-linejoin="miter" d="M -0.000394694 1.000618 L 622.952761 1.000618 " stroke="#000000" stroke-width="2" stroke-opacity="1" stroke-miterlimit="4"/><path stroke-linecap="butt" transform="matrix(-0.75, 0, 0, -0.75, 567.503878, 628.567789)" fill="none" stroke-linejoin="miter" d="M -0.0000373015 1.001843 L 684.682288 1.001843 " stroke="#000000" stroke-width="2" stroke-opacity="1" stroke-miterlimit="4"/><g fill="#d2691e" fill-opacity="1"><g transform="translate(85.410233, 114.904337)"><g><path d="M 2.1875 -9.078125 L 2.1875 0 L 1 0 L 1 -9.078125 Z M 2.1875 -9.078125 "/></g></g></g><g fill="#d2691e" fill-opacity="1"><g transform="translate(88.610161, 114.904337)"><g><path d="M 8.140625 0 L 6.953125 0 L 2.1875 -7.21875 L 2.1875 0 L 1 0 L 1 -9.078125 L 2.1875 -9.078125 L 6.953125 -1.875 L 6.953125 -9.078125 L 8.140625 -9.078125 Z M 8.140625 0 "/></g></g></g><g fill="#d2691e" fill-opacity="1"><g transform="translate(97.754654, 114.904337)"><g><path d="M 7.875 -6.4375 C 7.625 -6.96875 7.257812 -7.378906 6.78125 -7.671875 C 6.300781 -7.960938 5.742188 -8.109375 5.109375 -8.109375 C 4.484375 -8.109375 3.914062 -7.960938 3.40625 -7.671875 C 2.894531 -7.378906 2.492188 -6.960938 2.203125 -6.421875 C 1.910156 -5.878906 1.765625 -5.253906 1.765625 -4.546875 C 1.765625 -3.828125 1.910156 -3.195312 2.203125 -2.65625 C 2.492188 -2.125 2.894531 -1.710938 3.40625 -1.421875 C 3.914062 -1.128906 4.484375 -0.984375 5.109375 -0.984375 C 5.992188 -0.984375 6.722656 -1.25 7.296875 -1.78125 C 7.867188 -2.3125 8.203125 -3.03125 8.296875 -3.9375 L 4.6875 -3.9375 L 4.6875 -4.890625 L 9.5625 -4.890625 L 9.5625 -3.984375 C 9.5 -3.234375 9.265625 -2.546875 8.859375 -1.921875 C 8.460938 -1.304688 7.9375 -0.816406 7.28125 -0.453125 C 6.632812 -0.0976562 5.910156 0.078125 5.109375 0.078125 C 4.273438 0.078125 3.507812 -0.117188 2.8125 -0.515625 C 2.113281 -0.910156 1.5625 -1.457031 1.15625 -2.15625 C 0.757812 -2.863281 0.5625 -3.660156 0.5625 -4.546875 C 0.5625 -5.429688 0.757812 -6.222656 1.15625 -6.921875 C 1.5625 -7.628906 2.113281 -8.179688 2.8125 -8.578125 C 3.507812 -8.972656 4.273438 -9.171875 5.109375 -9.171875 C 6.078125 -9.171875 6.929688 -8.929688 7.671875 -8.453125 C 8.410156 -7.984375 8.953125 -7.3125 9.296875 -6.4375 Z M 7.875 -6.4375 "/></g></g></g><g fill="#d2691e" fill-opacity="1"><g transform="translate(107.874733, 114.904337)"><g><path d="M 5.78125 0 L 3.625 -3.703125 L 2.1875 -3.703125 L 2.1875 0 L 1 0 L 1 -9.078125 L 3.9375 -9.078125 C 4.613281 -9.078125 5.1875 -8.957031 5.65625 -8.71875 C 6.132812 -8.488281 6.488281 -8.171875 6.71875 -7.765625 C 6.957031 -7.367188 7.078125 -6.914062 7.078125 -6.40625 C 7.078125 -5.78125 6.894531 -5.226562 6.53125 -4.75 C 6.175781 -4.269531 5.640625 -3.953125 4.921875 -3.796875 L 7.203125 0 Z M 2.1875 -4.65625 L 3.9375 -4.65625 C 4.570312 -4.65625 5.050781 -4.8125 5.375 -5.125 C 5.695312 -5.445312 5.859375 -5.875 5.859375 -6.40625 C 5.859375 -6.9375 5.695312 -7.347656 5.375 -7.640625 C 5.0625 -7.941406 4.582031 -8.09375 3.9375 -8.09375 L 2.1875 -8.09375 Z M 2.1875 -4.65625 "/></g></g></g><g fill="#d2691e" fill-opacity="1"><g transform="translate(115.783492, 114.904337)"><g><path d="M 2.1875 -8.109375 L 2.1875 -5.078125 L 5.5 -5.078125 L 5.5 -4.09375 L 2.1875 -4.09375 L 2.1875 -0.96875 L 5.890625 -0.96875 L 5.890625 0 L 1 0 L 1 -9.078125 L 5.890625 -9.078125 L 5.890625 -8.109375 Z M 2.1875 -8.109375 "/></g></g></g><g fill="#d2691e" fill-opacity="1"><g transform="translate(122.456507, 114.904337)"><g><path d="M 3.828125 -9.078125 C 4.816406 -9.078125 5.671875 -8.890625 6.390625 -8.515625 C 7.117188 -8.148438 7.675781 -7.625 8.0625 -6.9375 C 8.445312 -6.25 8.640625 -5.441406 8.640625 -4.515625 C 8.640625 -3.585938 8.445312 -2.78125 8.0625 -2.09375 C 7.675781 -1.414062 7.117188 -0.894531 6.390625 -0.53125 C 5.671875 -0.175781 4.816406 0 3.828125 0 L 1 0 L 1 -9.078125 Z M 3.828125 -0.96875 C 4.992188 -0.96875 5.882812 -1.28125 6.5 -1.90625 C 7.125 -2.53125 7.4375 -3.398438 7.4375 -4.515625 C 7.4375 -5.640625 7.125 -6.519531 6.5 -7.15625 C 5.882812 -7.789062 4.992188 -8.109375 3.828125 -8.109375 L 2.1875 -8.109375 L 2.1875 -0.96875 Z M 3.828125 -0.96875 "/></g></g></g><g fill="#d2691e" fill-opacity="1"><g transform="translate(131.653036, 114.904337)"><g><path d="M 2.1875 -9.078125 L 2.1875 0 L 1 0 L 1 -9.078125 Z M 2.1875 -9.078125 "/></g></g></g><g fill="#d2691e" fill-opacity="1"><g transform="translate(134.852964, 114.904337)"><g><path d="M 2.1875 -8.109375 L 2.1875 -5.078125 L 5.5 -5.078125 L 5.5 -4.09375 L 2.1875 -4.09375 L 2.1875 -0.96875 L 5.890625 -0.96875 L 5.890625 0 L 1 0 L 1 -9.078125 L 5.890625 -9.078125 L 5.890625 -8.109375 Z M 2.1875 -8.109375 "/></g></g></g><g fill="#d2691e" fill-opacity="1"><g transform="translate(141.52598, 114.904337)"><g><path d="M 8.140625 0 L 6.953125 0 L 2.1875 -7.21875 L 2.1875 0 L 1 0 L 1 -9.078125 L 2.1875 -9.078125 L 6.953125 -1.875 L 6.953125 -9.078125 L 8.140625 -9.078125 Z M 8.140625 0 "/></g></g></g><g fill="#d2691e" fill-opacity="1"><g transform="translate(150.670472, 114.904337)"><g><path d="M 6.578125 -9.078125 L 6.578125 -8.109375 L 4.109375 -8.109375 L 4.109375 0 L 2.921875 0 L 2.921875 -8.109375 L 0.4375 -8.109375 L 0.4375 -9.078125 Z M 6.578125 -9.078125 "/></g></g></g><g fill="#d2691e" fill-opacity="1"><g transform="translate(157.707707, 114.904337)"><g><path d="M 3.875 0.09375 C 3.28125 0.09375 2.742188 -0.0078125 2.265625 -0.21875 C 1.796875 -0.4375 1.425781 -0.734375 1.15625 -1.109375 C 0.882812 -1.484375 0.742188 -1.921875 0.734375 -2.421875 L 2 -2.421875 C 2.039062 -1.992188 2.21875 -1.632812 2.53125 -1.34375 C 2.84375 -1.050781 3.289062 -0.90625 3.875 -0.90625 C 4.4375 -0.90625 4.878906 -1.046875 5.203125 -1.328125 C 5.535156 -1.609375 5.703125 -1.972656 5.703125 -2.421875 C 5.703125 -2.765625 5.601562 -3.046875 5.40625 -3.265625 C 5.21875 -3.484375 4.976562 -3.648438 4.6875 -3.765625 C 4.40625 -3.878906 4.023438 -4 3.546875 -4.125 C 2.941406 -4.28125 2.457031 -4.4375 2.09375 -4.59375 C 1.738281 -4.75 1.429688 -4.992188 1.171875 -5.328125 C 0.921875 -5.660156 0.796875 -6.109375 0.796875 -6.671875 C 0.796875 -7.171875 0.921875 -7.609375 1.171875 -7.984375 C 1.421875 -8.367188 1.773438 -8.664062 2.234375 -8.875 C 2.691406 -9.082031 3.210938 -9.1875 3.796875 -9.1875 C 4.648438 -9.1875 5.347656 -8.972656 5.890625 -8.546875 C 6.429688 -8.117188 6.738281 -7.554688 6.8125 -6.859375 L 5.5 -6.859375 C 5.457031 -7.203125 5.273438 -7.503906 4.953125 -7.765625 C 4.640625 -8.035156 4.21875 -8.171875 3.6875 -8.171875 C 3.1875 -8.171875 2.78125 -8.039062 2.46875 -7.78125 C 2.15625 -7.53125 2 -7.175781 2 -6.71875 C 2 -6.382812 2.09375 -6.113281 2.28125 -5.90625 C 2.46875 -5.695312 2.695312 -5.535156 2.96875 -5.421875 C 3.25 -5.316406 3.632812 -5.195312 4.125 -5.0625 C 4.726562 -4.894531 5.210938 -4.726562 5.578125 -4.5625 C 5.941406 -4.40625 6.25 -4.160156 6.5 -3.828125 C 6.757812 -3.492188 6.890625 -3.039062 6.890625 -2.46875 C 6.890625 -2.03125 6.773438 -1.613281 6.546875 -1.21875 C 6.316406 -0.832031 5.96875 -0.515625 5.5 -0.265625 C 5.039062 -0.0234375 4.5 0.09375 3.875 0.09375 Z M 3.875 0.09375 "/></g></g></g><g fill="#d2691e" fill-opacity="1"><g transform="translate(358.88228, 114.904337)"><g><path d="M 3.828125 -9.078125 C 4.816406 -9.078125 5.671875 -8.890625 6.390625 -8.515625 C 7.117188 -8.148438 7.675781 -7.625 8.0625 -6.9375 C 8.445312 -6.25 8.640625 -5.441406 8.640625 -4.515625 C 8.640625 -3.585938 8.445312 -2.78125 8.0625 -2.09375 C 7.675781 -1.414062 7.117188 -0.894531 6.390625 -0.53125 C 5.671875 -0.175781 4.816406 0 3.828125 0 L 1 0 L 1 -9.078125 Z M 3.828125 -0.96875 C 4.992188 -0.96875 5.882812 -1.28125 6.5 -1.90625 C 7.125 -2.53125 7.4375 -3.398438 7.4375 -4.515625 C 7.4375 -5.640625 7.125 -6.519531 6.5 -7.15625 C 5.882812 -7.789062 4.992188 -8.109375 3.828125 -8.109375 L 2.1875 -8.109375 L 2.1875 -0.96875 Z M 3.828125 -0.96875 "/></g></g></g><g fill="#d2691e" fill-opacity="1"><g transform="translate(368.078809, 114.904337)"><g><path d="M 2.1875 -9.078125 L 2.1875 0 L 1 0 L 1 -9.078125 Z M 2.1875 -9.078125 "/></g></g></g><g fill="#d2691e" fill-opacity="1"><g transform="translate(371.278737, 114.904337)"><g><path d="M 5.78125 0 L 3.625 -3.703125 L 2.1875 -3.703125 L 2.1875 0 L 1 0 L 1 -9.078125 L 3.9375 -9.078125 C 4.613281 -9.078125 5.1875 -8.957031 5.65625 -8.71875 C 6.132812 -8.488281 6.488281 -8.171875 6.71875 -7.765625 C 6.957031 -7.367188 7.078125 -6.914062 7.078125 -6.40625 C 7.078125 -5.78125 6.894531 -5.226562 6.53125 -4.75 C 6.175781 -4.269531 5.640625 -3.953125 4.921875 -3.796875 L 7.203125 0 Z M 2.1875 -4.65625 L 3.9375 -4.65625 C 4.570312 -4.65625 5.050781 -4.8125 5.375 -5.125 C 5.695312 -5.445312 5.859375 -5.875 5.859375 -6.40625 C 5.859375 -6.9375 5.695312 -7.347656 5.375 -7.640625 C 5.0625 -7.941406 4.582031 -8.09375 3.9375 -8.09375 L 2.1875 -8.09375 Z M 2.1875 -4.65625 "/></g></g></g><g fill="#d2691e" fill-opacity="1"><g transform="translate(379.187497, 114.904337)"><g><path d="M 2.1875 -8.109375 L 2.1875 -5.078125 L 5.5 -5.078125 L 5.5 -4.09375 L 2.1875 -4.09375 L 2.1875 -0.96875 L 5.890625 -0.96875 L 5.890625 0 L 1 0 L 1 -9.078125 L 5.890625 -9.078125 L 5.890625 -8.109375 Z M 2.1875 -8.109375 "/></g></g></g><g fill="#d2691e" fill-opacity="1"><g transform="translate(385.860512, 114.904337)"><g><path d="M 0.5625 -4.546875 C 0.5625 -5.429688 0.757812 -6.222656 1.15625 -6.921875 C 1.550781 -7.628906 2.09375 -8.179688 2.78125 -8.578125 C 3.476562 -8.984375 4.25 -9.1875 5.09375 -9.1875 C 6.082031 -9.1875 6.941406 -8.945312 7.671875 -8.46875 C 8.410156 -7.988281 8.953125 -7.3125 9.296875 -6.4375 L 7.875 -6.4375 C 7.625 -6.988281 7.257812 -7.410156 6.78125 -7.703125 C 6.3125 -7.992188 5.75 -8.140625 5.09375 -8.140625 C 4.457031 -8.140625 3.882812 -7.992188 3.375 -7.703125 C 2.875 -7.410156 2.476562 -6.992188 2.1875 -6.453125 C 1.90625 -5.910156 1.765625 -5.273438 1.765625 -4.546875 C 1.765625 -3.828125 1.90625 -3.191406 2.1875 -2.640625 C 2.476562 -2.097656 2.875 -1.679688 3.375 -1.390625 C 3.882812 -1.097656 4.457031 -0.953125 5.09375 -0.953125 C 5.75 -0.953125 6.3125 -1.097656 6.78125 -1.390625 C 7.257812 -1.679688 7.625 -2.097656 7.875 -2.640625 L 9.296875 -2.640625 C 8.953125 -1.773438 8.410156 -1.101562 7.671875 -0.625 C 6.941406 -0.15625 6.082031 0.078125 5.09375 0.078125 C 4.25 0.078125 3.476562 -0.117188 2.78125 -0.515625 C 2.09375 -0.910156 1.550781 -1.457031 1.15625 -2.15625 C 0.757812 -2.863281 0.5625 -3.660156 0.5625 -4.546875 Z M 0.5625 -4.546875 "/></g></g></g><g fill="#d2691e" fill-opacity="1"><g transform="translate(395.902553, 114.904337)"><g><path d="M 6.578125 -9.078125 L 6.578125 -8.109375 L 4.109375 -8.109375 L 4.109375 0 L 2.921875 0 L 2.921875 -8.109375 L 0.4375 -8.109375 L 0.4375 -9.078125 Z M 6.578125 -9.078125 "/></g></g></g><g fill="#d2691e" fill-opacity="1"><g transform="translate(402.939788, 114.904337)"><g><path d="M 2.1875 -9.078125 L 2.1875 0 L 1 0 L 1 -9.078125 Z M 2.1875 -9.078125 "/></g></g></g><g fill="#d2691e" fill-opacity="1"><g transform="translate(406.139716, 114.904337)"><g><path d="M 5.109375 0.09375 C 4.273438 0.09375 3.507812 -0.101562 2.8125 -0.5 C 2.113281 -0.894531 1.5625 -1.445312 1.15625 -2.15625 C 0.757812 -2.863281 0.5625 -3.660156 0.5625 -4.546875 C 0.5625 -5.429688 0.757812 -6.222656 1.15625 -6.921875 C 1.5625 -7.628906 2.113281 -8.179688 2.8125 -8.578125 C 3.507812 -8.972656 4.273438 -9.171875 5.109375 -9.171875 C 5.960938 -9.171875 6.734375 -8.972656 7.421875 -8.578125 C 8.117188 -8.179688 8.664062 -7.632812 9.0625 -6.9375 C 9.46875 -6.238281 9.671875 -5.441406 9.671875 -4.546875 C 9.671875 -3.648438 9.46875 -2.847656 9.0625 -2.140625 C 8.664062 -1.441406 8.117188 -0.894531 7.421875 -0.5 C 6.734375 -0.101562 5.960938 0.09375 5.109375 0.09375 Z M 5.109375 -0.9375 C 5.742188 -0.9375 6.316406 -1.082031 6.828125 -1.375 C 7.335938 -1.675781 7.734375 -2.097656 8.015625 -2.640625 C 8.304688 -3.191406 8.453125 -3.828125 8.453125 -4.546875 C 8.453125 -5.273438 8.304688 -5.910156 8.015625 -6.453125 C 7.734375 -6.992188 7.335938 -7.410156 6.828125 -7.703125 C 6.328125 -7.992188 5.753906 -8.140625 5.109375 -8.140625 C 4.472656 -8.140625 3.898438 -7.992188 3.390625 -7.703125 C 2.890625 -7.410156 2.492188 -6.992188 2.203125 -6.453125 C 1.910156 -5.910156 1.765625 -5.273438 1.765625 -4.546875 C 1.765625 -3.828125 1.910156 -3.191406 2.203125 -2.640625 C 2.492188 -2.097656 2.894531 -1.675781 3.40625 -1.375 C 3.914062 -1.082031 4.484375 -0.9375 5.109375 -0.9375 Z M 5.109375 -0.9375 "/></g></g></g><g fill="#d2691e" fill-opacity="1"><g transform="translate(416.363867, 114.904337)"><g><path d="M 8.140625 0 L 6.953125 0 L 2.1875 -7.21875 L 2.1875 0 L 1 0 L 1 -9.078125 L 2.1875 -9.078125 L 6.953125 -1.875 L 6.953125 -9.078125 L 8.140625 -9.078125 Z M 8.140625 0 "/></g></g></g><g fill="#d2691e" fill-opacity="1"><g transform="translate(425.50836, 114.904337)"><g><path d="M 3.875 0.09375 C 3.28125 0.09375 2.742188 -0.0078125 2.265625 -0.21875 C 1.796875 -0.4375 1.425781 -0.734375 1.15625 -1.109375 C 0.882812 -1.484375 0.742188 -1.921875 0.734375 -2.421875 L 2 -2.421875 C 2.039062 -1.992188 2.21875 -1.632812 2.53125 -1.34375 C 2.84375 -1.050781 3.289062 -0.90625 3.875 -0.90625 C 4.4375 -0.90625 4.878906 -1.046875 5.203125 -1.328125 C 5.535156 -1.609375 5.703125 -1.972656 5.703125 -2.421875 C 5.703125 -2.765625 5.601562 -3.046875 5.40625 -3.265625 C 5.21875 -3.484375 4.976562 -3.648438 4.6875 -3.765625 C 4.40625 -3.878906 4.023438 -4 3.546875 -4.125 C 2.941406 -4.28125 2.457031 -4.4375 2.09375 -4.59375 C 1.738281 -4.75 1.429688 -4.992188 1.171875 -5.328125 C 0.921875 -5.660156 0.796875 -6.109375 0.796875 -6.671875 C 0.796875 -7.171875 0.921875 -7.609375 1.171875 -7.984375 C 1.421875 -8.367188 1.773438 -8.664062 2.234375 -8.875 C 2.691406 -9.082031 3.210938 -9.1875 3.796875 -9.1875 C 4.648438 -9.1875 5.347656 -8.972656 5.890625 -8.546875 C 6.429688 -8.117188 6.738281 -7.554688 6.8125 -6.859375 L 5.5 -6.859375 C 5.457031 -7.203125 5.273438 -7.503906 4.953125 -7.765625 C 4.640625 -8.035156 4.21875 -8.171875 3.6875 -8.171875 C 3.1875 -8.171875 2.78125 -8.039062 2.46875 -7.78125 C 2.15625 -7.53125 2 -7.175781 2 -6.71875 C 2 -6.382812 2.09375 -6.113281 2.28125 -5.90625 C 2.46875 -5.695312 2.695312 -5.535156 2.96875 -5.421875 C 3.25 -5.316406 3.632812 -5.195312 4.125 -5.0625 C 4.726562 -4.894531 5.210938 -4.726562 5.578125 -4.5625 C 5.941406 -4.40625 6.25 -4.160156 6.5 -3.828125 C 6.757812 -3.492188 6.890625 -3.039062 6.890625 -2.46875 C 6.890625 -2.03125 6.773438 -1.613281 6.546875 -1.21875 C 6.316406 -0.832031 5.96875 -0.515625 5.5 -0.265625 C 5.039062 -0.0234375 4.5 0.09375 3.875 0.09375 Z M 3.875 0.09375 "/></g></g></g><g fill="#d2691e" fill-opacity="1"><g transform="translate(54.84375, 617.267869)"><g><path d="M 8.140625 0 L 6.953125 0 L 2.1875 -7.21875 L 2.1875 0 L 1 0 L 1 -9.078125 L 2.1875 -9.078125 L 6.953125 -1.875 L 6.953125 -9.078125 L 8.140625 -9.078125 Z M 8.140625 0 "/></g></g></g><g fill="#d2691e" fill-opacity="1"><g transform="translate(63.988242, 617.267869)"><g><path d="M 5.109375 0.09375 C 4.273438 0.09375 3.507812 -0.101562 2.8125 -0.5 C 2.113281 -0.894531 1.5625 -1.445312 1.15625 -2.15625 C 0.757812 -2.863281 0.5625 -3.660156 0.5625 -4.546875 C 0.5625 -5.429688 0.757812 -6.222656 1.15625 -6.921875 C 1.5625 -7.628906 2.113281 -8.179688 2.8125 -8.578125 C 3.507812 -8.972656 4.273438 -9.171875 5.109375 -9.171875 C 5.960938 -9.171875 6.734375 -8.972656 7.421875 -8.578125 C 8.117188 -8.179688 8.664062 -7.632812 9.0625 -6.9375 C 9.46875 -6.238281 9.671875 -5.441406 9.671875 -4.546875 C 9.671875 -3.648438 9.46875 -2.847656 9.0625 -2.140625 C 8.664062 -1.441406 8.117188 -0.894531 7.421875 -0.5 C 6.734375 -0.101562 5.960938 0.09375 5.109375 0.09375 Z M 5.109375 -0.9375 C 5.742188 -0.9375 6.316406 -1.082031 6.828125 -1.375 C 7.335938 -1.675781 7.734375 -2.097656 8.015625 -2.640625 C 8.304688 -3.191406 8.453125 -3.828125 8.453125 -4.546875 C 8.453125 -5.273438 8.304688 -5.910156 8.015625 -6.453125 C 7.734375 -6.992188 7.335938 -7.410156 6.828125 -7.703125 C 6.328125 -7.992188 5.753906 -8.140625 5.109375 -8.140625 C 4.472656 -8.140625 3.898438 -7.992188 3.390625 -7.703125 C 2.890625 -7.410156 2.492188 -6.992188 2.203125 -6.453125 C 1.910156 -5.910156 1.765625 -5.273438 1.765625 -4.546875 C 1.765625 -3.828125 1.910156 -3.191406 2.203125 -2.640625 C 2.492188 -2.097656 2.894531 -1.675781 3.40625 -1.375 C 3.914062 -1.082031 4.484375 -0.9375 5.109375 -0.9375 Z M 5.109375 -0.9375 "/></g></g></g><g fill="#d2691e" fill-opacity="1"><g transform="translate(74.212393, 617.267869)"><g><path d="M 6.578125 -9.078125 L 6.578125 -8.109375 L 4.109375 -8.109375 L 4.109375 0 L 2.921875 0 L 2.921875 -8.109375 L 0.4375 -8.109375 L 0.4375 -9.078125 Z M 6.578125 -9.078125 "/></g></g></g><g fill="#d2691e" fill-opacity="1"><g transform="translate(81.249628, 617.267869)"><g><path d="M 2.1875 -8.109375 L 2.1875 -5.078125 L 5.5 -5.078125 L 5.5 -4.09375 L 2.1875 -4.09375 L 2.1875 -0.96875 L 5.890625 -0.96875 L 5.890625 0 L 1 0 L 1 -9.078125 L 5.890625 -9.078125 L 5.890625 -8.109375 Z M 2.1875 -8.109375 "/></g></g></g><g fill="#d2691e" fill-opacity="1"><g transform="translate(87.922644, 617.267869)"><g><path d="M 3.875 0.09375 C 3.28125 0.09375 2.742188 -0.0078125 2.265625 -0.21875 C 1.796875 -0.4375 1.425781 -0.734375 1.15625 -1.109375 C 0.882812 -1.484375 0.742188 -1.921875 0.734375 -2.421875 L 2 -2.421875 C 2.039062 -1.992188 2.21875 -1.632812 2.53125 -1.34375 C 2.84375 -1.050781 3.289062 -0.90625 3.875 -0.90625 C 4.4375 -0.90625 4.878906 -1.046875 5.203125 -1.328125 C 5.535156 -1.609375 5.703125 -1.972656 5.703125 -2.421875 C 5.703125 -2.765625 5.601562 -3.046875 5.40625 -3.265625 C 5.21875 -3.484375 4.976562 -3.648438 4.6875 -3.765625 C 4.40625 -3.878906 4.023438 -4 3.546875 -4.125 C 2.941406 -4.28125 2.457031 -4.4375 2.09375 -4.59375 C 1.738281 -4.75 1.429688 -4.992188 1.171875 -5.328125 C 0.921875 -5.660156 0.796875 -6.109375 0.796875 -6.671875 C 0.796875 -7.171875 0.921875 -7.609375 1.171875 -7.984375 C 1.421875 -8.367188 1.773438 -8.664062 2.234375 -8.875 C 2.691406 -9.082031 3.210938 -9.1875 3.796875 -9.1875 C 4.648438 -9.1875 5.347656 -8.972656 5.890625 -8.546875 C 6.429688 -8.117188 6.738281 -7.554688 6.8125 -6.859375 L 5.5 -6.859375 C 5.457031 -7.203125 5.273438 -7.503906 4.953125 -7.765625 C 4.640625 -8.035156 4.21875 -8.171875 3.6875 -8.171875 C 3.1875 -8.171875 2.78125 -8.039062 2.46875 -7.78125 C 2.15625 -7.53125 2 -7.175781 2 -6.71875 C 2 -6.382812 2.09375 -6.113281 2.28125 -5.90625 C 2.46875 -5.695312 2.695312 -5.535156 2.96875 -5.421875 C 3.25 -5.316406 3.632812 -5.195312 4.125 -5.0625 C 4.726562 -4.894531 5.210938 -4.726562 5.578125 -4.5625 C 5.941406 -4.40625 6.25 -4.160156 6.5 -3.828125 C 6.757812 -3.492188 6.890625 -3.039062 6.890625 -2.46875 C 6.890625 -2.03125 6.773438 -1.613281 6.546875 -1.21875 C 6.316406 -0.832031 5.96875 -0.515625 5.5 -0.265625 C 5.039062 -0.0234375 4.5 0.09375 3.875 0.09375 Z M 3.875 0.09375 "/></g></g></g><g clip-path="url(#b92bd0c83d)"><path fill="#ffffff" d="M 363.527344 25.46875 C 363.527344 26.019531 363.476562 26.5625 363.367188 27.097656 C 363.261719 27.636719 363.101562 28.15625 362.894531 28.664062 C 362.683594 29.167969 362.425781 29.648438 362.121094 30.105469 C 361.820312 30.5625 361.472656 30.984375 361.085938 31.371094 C 360.699219 31.757812 360.277344 32.101562 359.820312 32.40625 C 359.363281 32.710938 358.882812 32.96875 358.378906 33.179688 C 357.871094 33.386719 357.351562 33.546875 356.8125 33.652344 C 356.277344 33.761719 355.734375 33.8125 355.183594 33.8125 C 354.636719 33.8125 354.09375 33.761719 353.558594 33.652344 C 353.019531 33.546875 352.5 33.386719 351.992188 33.179688 C 351.484375 32.96875 351.003906 32.710938 350.550781 32.40625 C 350.09375 32.101562 349.671875 31.757812 349.285156 31.371094 C 348.898438 30.984375 348.550781 30.5625 348.246094 30.105469 C 347.941406 29.648438 347.6875 29.167969 347.476562 28.664062 C 347.265625 28.15625 347.109375 27.636719 347 27.097656 C 346.894531 26.5625 346.839844 26.019531 346.839844 25.46875 C 346.839844 24.921875 346.894531 24.378906 347 23.84375 C 347.109375 23.304688 347.265625 22.785156 347.476562 22.277344 C 347.6875 21.769531 347.941406 21.289062 348.246094 20.835938 C 348.550781 20.378906 348.898438 19.957031 349.285156 19.570312 C 349.671875 19.183594 350.09375 18.835938 350.550781 18.53125 C 351.003906 18.226562 351.484375 17.972656 351.992188 17.761719 C 352.5 17.550781 353.019531 17.394531 353.558594 17.285156 C 354.09375 17.179688 354.636719 17.125 355.183594 17.125 C 355.734375 17.125 356.277344 17.179688 356.8125 17.285156 C 357.351562 17.394531 357.871094 17.550781 358.378906 17.761719 C 358.882812 17.972656 359.363281 18.226562 359.820312 18.53125 C 360.277344 18.835938 360.699219 19.183594 361.085938 19.570312 C 361.472656 19.957031 361.820312 20.378906 362.121094 20.835938 C 362.425781 21.289062 362.683594 21.769531 362.894531 22.277344 C 363.101562 22.785156 363.261719 23.304688 363.367188 23.84375 C 363.476562 24.378906 363.527344 24.921875 363.527344 25.46875 Z M 363.527344 25.46875 " fill-opacity="1" fill-rule="nonzero"/></g><g clip-path="url(#3f88074850)"><path fill="#d2691e" d="M 355.183594 16.605469 C 350.285156 16.605469 346.320312 20.570312 346.320312 25.46875 C 346.320312 30.371094 350.285156 34.335938 355.183594 34.335938 C 360.085938 34.335938 364.050781 30.371094 364.050781 25.46875 C 364.050781 20.570312 360.085938 16.605469 355.183594 16.605469 Z M 355.183594 33.292969 C 350.871094 33.292969 347.363281 29.785156 347.363281 25.46875 C 347.363281 21.15625 350.871094 17.648438 355.183594 17.648438 C 359.5 17.648438 363.007812 21.15625 363.007812 25.46875 C 363.007812 29.785156 359.5 33.292969 355.183594 33.292969 Z M 355.183594 33.292969 " fill-opacity="1" fill-rule="nonzero"/></g><path fill="#d2691e" d="M 355.921875 27.683594 L 354.449219 29.15625 C 353.632812 29.972656 352.3125 29.972656 351.496094 29.15625 C 350.683594 28.34375 350.683594 27.019531 351.496094 26.207031 L 352.972656 24.734375 C 353.175781 24.527344 353.175781 24.199219 352.972656 23.996094 C 352.769531 23.792969 352.4375 23.792969 352.234375 23.996094 L 350.761719 25.46875 C 349.539062 26.691406 349.539062 28.675781 350.761719 29.894531 C 351.980469 31.113281 353.964844 31.113281 355.183594 29.894531 L 356.660156 28.421875 C 356.863281 28.214844 356.863281 27.886719 356.660156 27.683594 C 356.457031 27.480469 356.125 27.480469 355.921875 27.683594 Z M 355.921875 27.683594 " fill-opacity="1" fill-rule="nonzero"/><path fill="#d2691e" d="M 355.183594 21.046875 L 353.710938 22.519531 C 353.507812 22.722656 353.507812 23.054688 353.710938 23.257812 C 353.914062 23.460938 354.242188 23.460938 354.449219 23.257812 L 355.921875 21.78125 C 356.734375 20.96875 358.058594 20.96875 358.871094 21.78125 C 359.6875 22.597656 359.6875 23.917969 358.871094 24.734375 L 357.398438 26.207031 C 357.195312 26.410156 357.195312 26.742188 357.398438 26.945312 C 357.601562 27.148438 357.929688 27.148438 358.136719 26.945312 L 359.609375 25.46875 C 360.832031 24.25 360.832031 22.265625 359.609375 21.046875 C 358.390625 19.824219 356.40625 19.824219 355.183594 21.046875 Z M 355.183594 21.046875 " fill-opacity="1" fill-rule="nonzero"/><path fill="#d2691e" d="M 352.972656 27.683594 C 353.175781 27.886719 353.507812 27.886719 353.710938 27.683594 L 357.398438 23.996094 C 357.601562 23.792969 357.601562 23.460938 357.398438 23.257812 C 357.195312 23.054688 356.863281 23.054688 356.660156 23.257812 L 352.972656 26.945312 C 352.769531 27.148438 352.769531 27.480469 352.972656 27.683594 Z M 352.972656 27.683594 " fill-opacity="1" fill-rule="nonzero"/><path fill="#ffffff" d="M 439.847656 25.46875 C 439.847656 26.019531 439.796875 26.5625 439.6875 27.097656 C 439.582031 27.636719 439.421875 28.15625 439.214844 28.664062 C 439.003906 29.167969 438.746094 29.648438 438.441406 30.105469 C 438.136719 30.5625 437.792969 30.984375 437.40625 31.371094 C 437.019531 31.757812 436.597656 32.101562 436.140625 32.40625 C 435.683594 32.710938 435.203125 32.96875 434.699219 33.179688 C 434.191406 33.386719 433.671875 33.546875 433.132812 33.652344 C 432.59375 33.761719 432.054688 33.8125 431.503906 33.8125 C 430.957031 33.8125 430.414062 33.761719 429.878906 33.652344 C 429.339844 33.546875 428.816406 33.386719 428.3125 33.179688 C 427.804688 32.96875 427.324219 32.710938 426.871094 32.40625 C 426.414062 32.101562 425.992188 31.757812 425.605469 31.371094 C 425.21875 30.984375 424.871094 30.5625 424.566406 30.105469 C 424.261719 29.648438 424.007812 29.167969 423.796875 28.664062 C 423.585938 28.15625 423.429688 27.636719 423.320312 27.097656 C 423.214844 26.5625 423.160156 26.019531 423.160156 25.46875 C 423.160156 24.921875 423.214844 24.378906 423.320312 23.84375 C 423.429688 23.304688 423.585938 22.785156 423.796875 22.277344 C 424.007812 21.769531 424.261719 21.289062 424.566406 20.835938 C 424.871094 20.378906 425.21875 19.957031 425.605469 19.570312 C 425.992188 19.183594 426.414062 18.835938 426.871094 18.53125 C 427.324219 18.226562 427.804688 17.972656 428.3125 17.761719 C 428.816406 17.550781 429.339844 17.394531 429.878906 17.285156 C 430.414062 17.179688 430.957031 17.125 431.503906 17.125 C 432.054688 17.125 432.59375 17.179688 433.132812 17.285156 C 433.671875 17.394531 434.191406 17.550781 434.699219 17.761719 C 435.203125 17.972656 435.683594 18.226562 436.140625 18.53125 C 436.597656 18.835938 437.019531 19.183594 437.40625 19.570312 C 437.792969 19.957031 438.136719 20.378906 438.441406 20.835938 C 438.746094 21.289062 439.003906 21.769531 439.214844 22.277344 C 439.421875 22.785156 439.582031 23.304688 439.6875 23.84375 C 439.796875 24.378906 439.847656 24.921875 439.847656 25.46875 Z M 439.847656 25.46875 " fill-opacity="1" fill-rule="nonzero"/><g clip-path="url(#6bae0fc807)"><path fill="#d2691e" d="M 431.503906 16.605469 C 426.605469 16.605469 422.640625 20.570312 422.640625 25.46875 C 422.640625 30.371094 426.605469 34.335938 431.503906 34.335938 C 436.40625 34.335938 440.371094 30.371094 440.371094 25.46875 C 440.371094 20.570312 436.40625 16.605469 431.503906 16.605469 Z M 431.503906 33.292969 C 427.191406 33.292969 423.683594 29.785156 423.683594 25.46875 C 423.683594 21.15625 427.191406 17.648438 431.503906 17.648438 C 435.820312 17.648438 439.328125 21.15625 439.328125 25.46875 C 439.328125 29.785156 435.820312 33.292969 431.503906 33.292969 Z M 431.503906 33.292969 " fill-opacity="1" fill-rule="nonzero"/></g><path fill="#d2691e" d="M 432.242188 27.683594 L 430.769531 29.15625 C 429.953125 29.972656 428.632812 29.972656 427.816406 29.15625 C 427.003906 28.34375 427.003906 27.019531 427.816406 26.207031 L 429.292969 24.734375 C 429.496094 24.527344 429.496094 24.199219 429.292969 23.996094 C 429.089844 23.792969 428.757812 23.792969 428.554688 23.996094 L 427.082031 25.46875 C 425.859375 26.691406 425.859375 28.675781 427.082031 29.894531 C 428.300781 31.113281 430.285156 31.113281 431.503906 29.894531 L 432.980469 28.421875 C 433.183594 28.214844 433.183594 27.886719 432.980469 27.683594 C 432.777344 27.480469 432.445312 27.480469 432.242188 27.683594 Z M 432.242188 27.683594 " fill-opacity="1" fill-rule="nonzero"/><path fill="#d2691e" d="M 431.503906 21.046875 L 430.03125 22.519531 C 429.828125 22.722656 429.828125 23.054688 430.03125 23.257812 C 430.234375 23.460938 430.5625 23.460938 430.769531 23.257812 L 432.242188 21.78125 C 433.054688 20.96875 434.378906 20.96875 435.191406 21.78125 C 436.007812 22.597656 436.007812 23.917969 435.191406 24.734375 L 433.71875 26.207031 C 433.515625 26.410156 433.515625 26.742188 433.71875 26.945312 C 433.921875 27.148438 434.25 27.148438 434.457031 26.945312 L 435.929688 25.46875 C 437.148438 24.25 437.148438 22.265625 435.929688 21.046875 C 434.710938 19.824219 432.726562 19.824219 431.503906 21.046875 Z M 431.503906 21.046875 " fill-opacity="1" fill-rule="nonzero"/><path fill="#d2691e" d="M 429.292969 27.683594 C 429.496094 27.886719 429.828125 27.886719 430.03125 27.683594 L 433.71875 23.996094 C 433.921875 23.792969 433.921875 23.460938 433.71875 23.257812 C 433.515625 23.054688 433.183594 23.054688 432.980469 23.257812 L 429.292969 26.945312 C 429.089844 27.148438 429.089844 27.480469 429.292969 27.683594 Z M 429.292969 27.683594 " fill-opacity="1" fill-rule="nonzero"/><g clip-path="url(#1d155c8e63)"><g clip-path="url(#fd8370f2f6)"><g transform="matrix(1, 0, 0, 1, 424, 18)"><g clip-path="url(#f486a16467)"><g clip-path="url(#227d88746e)"><g clip-path="url(#7840db1f8f)"><path fill="#ffffff" d="M 0.308594 0.445312 L 14.710938 0.445312 L 14.710938 14.847656 L 0.308594 14.847656 Z M 0.308594 0.445312 " fill-opacity="1" fill-rule="nonzero"/></g></g></g></g></g></g><g clip-path="url(#f2b8b70145)"><path fill="#d2691e" d="M 430.59375 28.300781 C 430.613281 29.128906 430.636719 30.128906 430.660156 31.132812 C 430.664062 31.453125 430.445312 31.726562 430.136719 31.804688 C 429.71875 31.902344 429.316406 31.578125 429.320312 31.132812 C 429.320312 30.710938 429.339844 30.292969 429.347656 29.871094 C 429.375 28.550781 429.398438 27.230469 429.425781 25.914062 C 429.433594 25.628906 429.4375 25.347656 429.445312 25.066406 C 429.445312 25.015625 429.441406 24.984375 429.382812 24.964844 C 428.617188 24.714844 428.144531 24.074219 428.140625 23.269531 C 428.132812 22.316406 428.136719 21.363281 428.136719 20.414062 C 428.136719 20.21875 428.132812 20.027344 428.140625 19.835938 C 428.140625 19.699219 428.191406 19.589844 428.328125 19.539062 C 428.4375 19.496094 428.542969 19.507812 428.636719 19.589844 C 428.722656 19.664062 428.734375 19.765625 428.734375 19.875 C 428.734375 20.867188 428.734375 21.863281 428.730469 22.859375 C 428.730469 22.964844 428.726562 23.074219 428.734375 23.179688 C 428.742188 23.28125 428.796875 23.351562 428.902344 23.375 C 429 23.402344 429.074219 23.355469 429.128906 23.273438 C 429.164062 23.21875 429.160156 23.152344 429.160156 23.089844 C 429.160156 22.367188 429.160156 21.648438 429.160156 20.925781 C 429.160156 20.5625 429.160156 20.199219 429.160156 19.835938 C 429.164062 19.667969 429.265625 19.542969 429.410156 19.519531 C 429.597656 19.492188 429.75 19.613281 429.757812 19.804688 C 429.765625 19.894531 429.761719 19.984375 429.761719 20.074219 C 429.761719 21.078125 429.761719 22.085938 429.761719 23.089844 C 429.761719 23.144531 429.761719 23.199219 429.78125 23.25 C 429.820312 23.335938 429.914062 23.394531 430 23.382812 C 430.113281 23.371094 430.191406 23.300781 430.207031 23.199219 C 430.214844 23.152344 430.210938 23.105469 430.210938 23.058594 C 430.210938 22 430.210938 20.941406 430.210938 19.882812 C 430.210938 19.792969 430.21875 19.710938 430.273438 19.636719 C 430.34375 19.539062 430.480469 19.492188 430.597656 19.527344 C 430.722656 19.558594 430.804688 19.652344 430.808594 19.789062 C 430.816406 20.019531 430.816406 20.253906 430.816406 20.484375 C 430.816406 21.328125 430.8125 22.167969 430.8125 23.011719 C 430.8125 23.085938 430.808594 23.160156 430.832031 23.234375 C 430.863281 23.320312 430.960938 23.394531 431.042969 23.386719 C 431.152344 23.378906 431.226562 23.3125 431.242188 23.199219 C 431.25 23.152344 431.253906 23.101562 431.253906 23.050781 C 431.253906 22.003906 431.253906 20.953125 431.25 19.90625 C 431.25 19.863281 431.253906 19.820312 431.257812 19.777344 C 431.277344 19.632812 431.378906 19.53125 431.515625 19.519531 C 431.667969 19.507812 431.792969 19.585938 431.835938 19.730469 C 431.851562 19.789062 431.855469 19.847656 431.855469 19.910156 C 431.855469 21.015625 431.839844 22.121094 431.859375 23.226562 C 431.871094 23.996094 431.347656 24.757812 430.621094 24.957031 C 430.554688 24.976562 430.550781 25.015625 430.550781 25.074219 C 430.566406 26.09375 430.578125 27.109375 430.59375 28.300781 Z M 430.59375 28.300781 " fill-opacity="1" fill-rule="nonzero"/></g><g clip-path="url(#0707d2edc9)"><path fill="#d2691e" d="M 434.875 25.460938 C 434.875 27.34375 434.875 29.226562 434.875 31.109375 C 434.875 31.457031 434.691406 31.703125 434.371094 31.796875 C 433.957031 31.917969 433.527344 31.59375 433.53125 31.148438 C 433.539062 30.429688 433.554688 29.710938 433.5625 28.988281 C 433.574219 28.148438 433.582031 27.304688 433.59375 26.464844 C 433.597656 26.375 433.566406 26.351562 433.484375 26.359375 C 433.421875 26.363281 433.355469 26.363281 433.292969 26.363281 C 433.058594 26.355469 432.9375 26.238281 432.933594 26 C 432.933594 25.796875 432.933594 25.589844 432.933594 25.382812 C 432.941406 24.355469 432.902344 23.324219 432.953125 22.300781 C 432.996094 21.453125 433.210938 20.652344 433.761719 19.976562 C 433.929688 19.769531 434.125 19.59375 434.375 19.488281 C 434.671875 19.355469 434.875 19.496094 434.875 19.820312 C 434.875 21.699219 434.875 23.578125 434.875 25.460938 Z M 434.875 25.460938 " fill-opacity="1" fill-rule="nonzero"/></g></svg>