<svg xmlns="http://www.w3.org/2000/svg" xmlns:xlink="http://www.w3.org/1999/xlink" width="816" zoomAndPan="magnify" viewBox="0 0 612 791.999994" height="1056" preserveAspectRatio="xMidYMid meet" version="1.0"><defs><g/><clipPath id="0fdd602fa5"><path d="M 54 66.960938 L 501.1875 66.960938 L 501.1875 87.839844 L 54 87.839844 Z M 54 66.960938 " clip-rule="nonzero"/></clipPath><clipPath id="7ac2321f30"><path d="M 0 0.960938 L 447.1875 0.960938 L 447.1875 21.839844 L 0 21.839844 Z M 0 0.960938 " clip-rule="nonzero"/></clipPath><clipPath id="7228f5d9b7"><rect x="0" width="448" y="0" height="22"/></clipPath><clipPath id="d9667e3536"><path d="M 489.132812 20.992188 L 586.488281 20.992188 L 586.488281 118.347656 L 489.132812 118.347656 Z M 489.132812 20.992188 " clip-rule="nonzero"/></clipPath><clipPath id="7c6651f433"><path d="M 537.808594 20.992188 C 510.925781 20.992188 489.132812 42.785156 489.132812 69.671875 C 489.132812 96.554688 510.925781 118.347656 537.808594 118.347656 C 564.691406 118.347656 586.488281 96.554688 586.488281 69.671875 C 586.488281 42.785156 564.691406 20.992188 537.808594 20.992188 Z M 537.808594 20.992188 " clip-rule="nonzero"/></clipPath><clipPath id="e22b1c2c9e"><path d="M 0.132812 0.992188 L 97.488281 0.992188 L 97.488281 98.347656 L 0.132812 98.347656 Z M 0.132812 0.992188 " clip-rule="nonzero"/></clipPath><clipPath id="6a0770dd6b"><path d="M 48.808594 0.992188 C 21.925781 0.992188 0.132812 22.785156 0.132812 49.671875 C 0.132812 76.554688 21.925781 98.347656 48.808594 98.347656 C 75.691406 98.347656 97.488281 76.554688 97.488281 49.671875 C 97.488281 22.785156 75.691406 0.992188 48.808594 0.992188 Z M 48.808594 0.992188 " clip-rule="nonzero"/></clipPath><clipPath id="2ae2f87b12"><rect x="0" width="98" y="0" height="99"/></clipPath><clipPath id="9f63348065"><path d="M 512.507812 44.949219 L 563.113281 44.949219 L 563.113281 95.554688 L 512.507812 95.554688 Z M 512.507812 44.949219 " clip-rule="nonzero"/></clipPath><clipPath id="7a52d0df4c"><path d="M 537.808594 44.949219 C 523.835938 44.949219 512.507812 56.277344 512.507812 70.25 C 512.507812 84.226562 523.835938 95.554688 537.808594 95.554688 C 551.785156 95.554688 563.113281 84.226562 563.113281 70.25 C 563.113281 56.277344 551.785156 44.949219 537.808594 44.949219 Z M 537.808594 44.949219 " clip-rule="nonzero"/></clipPath><clipPath id="48a3a33bd7"><path d="M 0.507812 0.949219 L 51.113281 0.949219 L 51.113281 51.554688 L 0.507812 51.554688 Z M 0.507812 0.949219 " clip-rule="nonzero"/></clipPath><clipPath id="48676401b8"><path d="M 25.808594 0.949219 C 11.835938 0.949219 0.507812 12.277344 0.507812 26.25 C 0.507812 40.226562 11.835938 51.554688 25.808594 51.554688 C 39.785156 51.554688 51.113281 40.226562 51.113281 26.25 C 51.113281 12.277344 39.785156 0.949219 25.808594 0.949219 Z M 25.808594 0.949219 " clip-rule="nonzero"/></clipPath><clipPath id="9fb2e5771d"><rect x="0" width="52" y="0" height="52"/></clipPath><clipPath id="3dfc3ab26f"><path d="M 521 57 L 554 57 L 554 82.382812 L 521 82.382812 Z M 521 57 " clip-rule="nonzero"/></clipPath><clipPath id="4f99f626b8"><path d="M 553 65 L 556.863281 65 L 556.863281 75 L 553 75 Z M 553 65 " clip-rule="nonzero"/></clipPath><clipPath id="75d2b4a05f"><path d="M 518.613281 65 L 523 65 L 523 75 L 518.613281 75 Z M 518.613281 65 " clip-rule="nonzero"/></clipPath><clipPath id="9ec4b0f2da"><path d="M 346.320312 17 L 364 17 L 364 34 L 346.320312 34 Z M 346.320312 17 " clip-rule="nonzero"/></clipPath><clipPath id="945478e799"><path d="M 346.320312 16.605469 L 364.320312 16.605469 L 364.320312 34.605469 L 346.320312 34.605469 Z M 346.320312 16.605469 " clip-rule="nonzero"/></clipPath><clipPath id="fe80efc7b8"><path d="M 422.640625 16.605469 L 440.640625 16.605469 L 440.640625 34.605469 L 422.640625 34.605469 Z M 422.640625 16.605469 " clip-rule="nonzero"/></clipPath><clipPath id="93708278ea"><path d="M 424.308594 18.445312 L 438.710938 18.445312 L 438.710938 32.847656 L 424.308594 32.847656 Z M 424.308594 18.445312 " clip-rule="nonzero"/></clipPath><clipPath id="09156912b6"><path d="M 431.507812 18.445312 C 427.53125 18.445312 424.308594 21.667969 424.308594 25.644531 C 424.308594 29.625 427.53125 32.847656 431.507812 32.847656 C 435.488281 32.847656 438.710938 29.625 438.710938 25.644531 C 438.710938 21.667969 435.488281 18.445312 431.507812 18.445312 Z M 431.507812 18.445312 " clip-rule="nonzero"/></clipPath><clipPath id="a2a36dcc2f"><path d="M 0.308594 0.445312 L 14.710938 0.445312 L 14.710938 14.847656 L 0.308594 14.847656 Z M 0.308594 0.445312 " clip-rule="nonzero"/></clipPath><clipPath id="a2ac896a15"><path d="M 7.507812 0.445312 C 3.53125 0.445312 0.308594 3.667969 0.308594 7.644531 C 0.308594 11.625 3.53125 14.847656 7.507812 14.847656 C 11.488281 14.847656 14.710938 11.625 14.710938 7.644531 C 14.710938 3.667969 11.488281 0.445312 7.507812 0.445312 Z M 7.507812 0.445312 " clip-rule="nonzero"/></clipPath><clipPath id="9f3a2a3ba6"><rect x="0" width="15" y="0" height="15"/></clipPath><clipPath id="33adde82dd"><path d="M 428.132812 19.359375 L 432 19.359375 L 432 32.109375 L 428.132812 32.109375 Z M 428.132812 19.359375 " clip-rule="nonzero"/></clipPath><clipPath id="308ccb8cbe"><path d="M 432 19.359375 L 434.882812 19.359375 L 434.882812 32.109375 L 432 32.109375 Z M 432 19.359375 " clip-rule="nonzero"/></clipPath></defs><rect x="-61.2" width="734.4" fill="#ffffff" y="-79.199999" height="950.399992" fill-opacity="1"/><rect x="-61.2" width="734.4" fill="#ffffff" y="-79.199999" height="950.399992" fill-opacity="1"/><g clip-path="url(#0fdd602fa5)"><g transform="matrix(1, 0, 0, 1, 54, 66)"><g clip-path="url(#7228f5d9b7)"><g clip-path="url(#7ac2321f30)"><path fill="#000000" d="M 0 0.960938 L 447.207031 0.960938 L 447.207031 21.839844 L 0 21.839844 Z M 0 0.960938 " fill-opacity="1" fill-rule="nonzero"/></g></g></g></g><g clip-path="url(#d9667e3536)"><g clip-path="url(#7c6651f433)"><g transform="matrix(1, 0, 0, 1, 489, 20)"><g clip-path="url(#2ae2f87b12)"><g clip-path="url(#e22b1c2c9e)"><g clip-path="url(#6a0770dd6b)"><path fill="#000000" d="M 0.132812 0.992188 L 97.488281 0.992188 L 97.488281 98.347656 L 0.132812 98.347656 Z M 0.132812 0.992188 " fill-opacity="1" fill-rule="nonzero"/></g></g></g></g></g></g><g clip-path="url(#9f63348065)"><g clip-path="url(#7a52d0df4c)"><g transform="matrix(1, 0, 0, 1, 512, 44)"><g clip-path="url(#9fb2e5771d)"><g clip-path="url(#48a3a33bd7)"><g clip-path="url(#48676401b8)"><path fill="#ffffff" d="M 0.507812 0.949219 L 51.113281 0.949219 L 51.113281 51.554688 L 0.507812 51.554688 Z M 0.507812 0.949219 " fill-opacity="1" fill-rule="nonzero"/></g></g></g></g></g></g><g clip-path="url(#3dfc3ab26f)"><path fill="#000000" d="M 553.105469 62.25 C 553.105469 60.210938 551.445312 58.546875 549.402344 58.546875 L 526.539062 58.546875 C 524.496094 58.546875 522.835938 60.210938 522.835938 62.25 L 522.835938 77.804688 C 522.835938 79.847656 524.496094 81.507812 526.539062 81.507812 L 549.402344 81.507812 C 551.445312 81.507812 553.105469 79.847656 553.105469 77.804688 Z M 521.996094 77.804688 L 521.996094 62.25 C 521.996094 59.75 524.035156 57.710938 526.539062 57.710938 L 549.402344 57.710938 C 551.90625 57.710938 553.941406 59.75 553.941406 62.25 L 553.941406 77.804688 C 553.941406 80.308594 551.90625 82.34375 549.402344 82.34375 L 526.539062 82.34375 C 524.035156 82.34375 521.996094 80.308594 521.996094 77.804688 Z M 521.996094 77.804688 " fill-opacity="1" fill-rule="evenodd"/></g><path fill="#000000" d="M 550.882812 62.140625 C 550.882812 61.382812 550.269531 60.769531 549.515625 60.769531 L 526.425781 60.769531 C 525.667969 60.769531 525.054688 61.382812 525.054688 62.140625 L 525.054688 77.917969 C 525.054688 78.671875 525.667969 79.289062 526.425781 79.289062 L 549.515625 79.289062 C 550.269531 79.289062 550.882812 78.671875 550.882812 77.917969 Z M 524.21875 77.917969 L 524.21875 62.140625 C 524.21875 60.921875 525.210938 59.933594 526.425781 59.933594 L 549.515625 59.933594 C 550.730469 59.933594 551.71875 60.921875 551.71875 62.140625 L 551.71875 77.917969 C 551.71875 79.132812 550.730469 80.125 549.515625 80.125 L 526.425781 80.125 C 525.207031 80.125 524.21875 79.132812 524.21875 77.917969 Z M 524.21875 77.917969 " fill-opacity="1" fill-rule="evenodd"/><g clip-path="url(#4f99f626b8)"><path fill="#000000" d="M 553.105469 65.644531 C 553.105469 65.601562 553.113281 65.558594 553.125 65.515625 C 553.199219 65.292969 553.4375 65.175781 553.65625 65.25 L 556.832031 66.304688 C 557 66.359375 557.117188 66.519531 557.117188 66.699219 L 557.117188 73.355469 C 557.117188 73.535156 557 73.695312 556.832031 73.753906 L 553.65625 74.808594 C 553.4375 74.882812 553.199219 74.761719 553.125 74.542969 C 553.054688 74.324219 553.171875 74.085938 553.390625 74.015625 L 556.28125 73.054688 L 556.28125 67.003906 L 553.390625 66.042969 C 553.214844 65.984375 553.105469 65.820312 553.105469 65.644531 Z M 553.105469 65.644531 " fill-opacity="1" fill-rule="evenodd"/></g><g clip-path="url(#75d2b4a05f)"><path fill="#000000" d="M 518.824219 73.355469 L 518.824219 66.699219 C 518.824219 66.519531 518.9375 66.359375 519.109375 66.304688 L 522.285156 65.25 C 522.503906 65.175781 522.738281 65.292969 522.8125 65.515625 C 522.886719 65.734375 522.765625 65.96875 522.546875 66.042969 L 519.660156 67.003906 L 519.660156 73.054688 L 522.546875 74.015625 C 522.765625 74.085938 522.886719 74.324219 522.8125 74.542969 C 522.738281 74.761719 522.503906 74.882812 522.285156 74.808594 L 519.109375 73.753906 C 518.9375 73.695312 518.824219 73.535156 518.824219 73.355469 Z M 518.824219 73.355469 " fill-opacity="1" fill-rule="evenodd"/></g><path fill="#000000" d="M 546.726562 65.546875 C 546.726562 65.039062 546.3125 64.625 545.804688 64.625 C 545.296875 64.625 544.882812 65.039062 544.882812 65.546875 C 544.882812 66.054688 545.296875 66.464844 545.804688 66.464844 C 546.3125 66.464844 546.722656 66.054688 546.726562 65.546875 Z M 544.046875 65.546875 C 544.046875 64.578125 544.835938 63.789062 545.804688 63.789062 C 546.773438 63.789062 547.5625 64.578125 547.5625 65.546875 C 547.5625 66.515625 546.773438 67.300781 545.804688 67.300781 C 544.835938 67.300781 544.046875 66.515625 544.046875 65.546875 Z M 544.046875 65.546875 " fill-opacity="1" fill-rule="evenodd"/><path fill="#000000" d="M 538.910156 64.203125 C 538.910156 63.695312 538.5 63.285156 537.992188 63.285156 C 537.484375 63.285156 537.070312 63.695312 537.070312 64.203125 C 537.070312 64.710938 537.484375 65.125 537.992188 65.125 C 538.5 65.125 538.910156 64.710938 538.910156 64.203125 Z M 536.234375 64.203125 C 536.234375 63.234375 537.023438 62.445312 537.992188 62.445312 C 538.960938 62.445312 539.746094 63.234375 539.746094 64.203125 C 539.746094 65.171875 538.960938 65.960938 537.992188 65.960938 C 537.023438 65.960938 536.234375 65.171875 536.234375 64.203125 Z M 536.234375 64.203125 " fill-opacity="1" fill-rule="evenodd"/><path fill="#000000" d="M 528.796875 65.664062 C 528.796875 65.15625 528.382812 64.742188 527.875 64.742188 C 527.367188 64.742188 526.957031 65.15625 526.957031 65.664062 C 526.957031 66.171875 527.367188 66.582031 527.875 66.582031 C 528.382812 66.582031 528.796875 66.171875 528.796875 65.664062 Z M 526.121094 65.664062 C 526.121094 64.695312 526.90625 63.90625 527.875 63.90625 C 528.84375 63.90625 529.632812 64.695312 529.632812 65.664062 C 529.632812 66.632812 528.84375 67.417969 527.875 67.417969 C 526.90625 67.417969 526.121094 66.632812 526.121094 65.664062 Z M 526.121094 65.664062 " fill-opacity="1" fill-rule="evenodd"/><path fill="#000000" d="M 537.597656 69.972656 C 537.597656 69.46875 537.1875 69.054688 536.679688 69.054688 C 536.171875 69.054688 535.757812 69.46875 535.757812 69.972656 C 535.757812 70.480469 536.171875 70.894531 536.679688 70.894531 C 537.1875 70.894531 537.597656 70.480469 537.597656 69.972656 Z M 534.921875 69.972656 C 534.921875 69.003906 535.710938 68.21875 536.679688 68.21875 C 537.648438 68.21875 538.433594 69.003906 538.433594 69.972656 C 538.433594 70.941406 537.648438 71.730469 536.679688 71.730469 C 535.710938 71.730469 534.921875 70.941406 534.921875 69.972656 Z M 534.921875 69.972656 " fill-opacity="1" fill-rule="evenodd"/><path fill="#000000" d="M 528.945312 75.402344 C 528.945312 74.894531 528.53125 74.484375 528.023438 74.484375 C 527.515625 74.484375 527.105469 74.894531 527.105469 75.402344 C 527.105469 75.910156 527.515625 76.324219 528.023438 76.324219 C 528.53125 76.324219 528.945312 75.910156 528.945312 75.402344 Z M 526.269531 75.402344 C 526.269531 74.433594 527.054688 73.648438 528.023438 73.648438 C 528.992188 73.648438 529.78125 74.433594 529.78125 75.402344 C 529.78125 76.371094 528.992188 77.160156 528.023438 77.160156 C 527.054688 77.160156 526.269531 76.371094 526.269531 75.402344 Z M 526.269531 75.402344 " fill-opacity="1" fill-rule="evenodd"/><path fill="#000000" d="M 540.070312 75.296875 C 540.070312 74.789062 539.65625 74.375 539.148438 74.375 C 538.640625 74.375 538.230469 74.789062 538.230469 75.296875 C 538.230469 75.804688 538.640625 76.214844 539.148438 76.214844 C 539.65625 76.214844 540.070312 75.804688 540.070312 75.296875 Z M 537.394531 75.296875 C 537.394531 74.328125 538.179688 73.539062 539.148438 73.539062 C 540.117188 73.539062 540.90625 74.328125 540.90625 75.296875 C 540.90625 76.265625 540.117188 77.050781 539.148438 77.050781 C 538.179688 77.050781 537.394531 76.265625 537.394531 75.296875 Z M 537.394531 75.296875 " fill-opacity="1" fill-rule="evenodd"/><path fill="#000000" d="M 546.949219 71.648438 C 546.949219 71.140625 546.539062 70.730469 546.03125 70.730469 C 545.523438 70.730469 545.109375 71.140625 545.109375 71.648438 C 545.109375 72.15625 545.523438 72.570312 546.03125 72.570312 C 546.539062 72.570312 546.949219 72.15625 546.949219 71.648438 Z M 544.273438 71.648438 C 544.273438 70.679688 545.0625 69.894531 546.03125 69.894531 C 547 69.894531 547.785156 70.679688 547.785156 71.648438 C 547.785156 72.617188 547 73.40625 546.03125 73.40625 C 545.0625 73.40625 544.273438 72.617188 544.273438 71.648438 Z M 544.273438 71.648438 " fill-opacity="1" fill-rule="evenodd"/><path fill="#000000" d="M 541.21875 77.722656 C 541.21875 77.652344 541.234375 77.585938 541.269531 77.519531 C 541.519531 77.074219 541.621094 76.519531 541.578125 75.882812 C 541.5625 75.652344 541.738281 75.453125 541.96875 75.4375 C 542.199219 75.421875 542.398438 75.59375 542.414062 75.824219 C 542.46875 76.628906 542.328125 77.335938 542 77.925781 C 541.890625 78.128906 541.636719 78.199219 541.433594 78.089844 C 541.296875 78.011719 541.21875 77.871094 541.21875 77.722656 Z M 541.21875 77.722656 " fill-opacity="1" fill-rule="evenodd"/><path fill="#000000" d="M 548.316406 74.625 C 548.316406 74.542969 548.339844 74.464844 548.386719 74.390625 C 548.746094 73.859375 548.929688 73.332031 548.9375 72.820312 C 548.941406 72.589844 549.132812 72.40625 549.363281 72.40625 C 549.59375 72.410156 549.773438 72.597656 549.773438 72.824219 C 549.777344 72.828125 549.773438 72.832031 549.773438 72.832031 C 549.765625 73.507812 549.53125 74.191406 549.082031 74.859375 C 548.953125 75.050781 548.691406 75.101562 548.5 74.972656 C 548.382812 74.890625 548.316406 74.757812 548.316406 74.625 Z M 548.316406 74.625 " fill-opacity="1" fill-rule="evenodd"/><path fill="#000000" d="M 532.777344 64.828125 C 532.777344 64.714844 532.828125 64.597656 532.921875 64.515625 C 533.402344 64.09375 533.71875 63.632812 533.863281 63.136719 C 533.925781 62.914062 534.15625 62.789062 534.378906 62.851562 C 534.601562 62.914062 534.730469 63.144531 534.664062 63.367188 C 534.480469 64.019531 534.078125 64.617188 533.472656 65.144531 C 533.296875 65.296875 533.03125 65.277344 532.878906 65.105469 C 532.8125 65.023438 532.777344 64.925781 532.777344 64.828125 Z M 532.777344 64.828125 " fill-opacity="1" fill-rule="evenodd"/><path fill="#000000" d="M 526.753906 71.929688 C 526.753906 71.8125 526.800781 71.695312 526.894531 71.613281 C 527.378906 71.191406 527.695312 70.730469 527.835938 70.238281 C 527.898438 70.015625 528.128906 69.886719 528.351562 69.949219 C 528.574219 70.011719 528.703125 70.246094 528.636719 70.464844 C 528.453125 71.117188 528.050781 71.714844 527.445312 72.242188 C 527.269531 72.394531 527.007812 72.375 526.855469 72.203125 C 526.785156 72.125 526.753906 72.027344 526.753906 71.929688 Z M 526.753906 71.929688 " fill-opacity="1" fill-rule="evenodd"/><path fill="#000000" d="M 540.722656 64.292969 C 540.722656 64.179688 540.773438 64.0625 540.867188 63.980469 C 541.347656 63.558594 541.664062 63.097656 541.804688 62.601562 C 541.871094 62.382812 542.101562 62.253906 542.324219 62.316406 C 542.542969 62.378906 542.671875 62.609375 542.609375 62.832031 C 542.425781 63.484375 542.023438 64.082031 541.414062 64.609375 C 541.242188 64.761719 540.976562 64.742188 540.824219 64.570312 C 540.757812 64.492188 540.722656 64.390625 540.722656 64.292969 Z M 540.722656 64.292969 " fill-opacity="1" fill-rule="evenodd"/><path fill="#000000" d="M 547.628906 69.066406 C 547.628906 68.949219 547.675781 68.835938 547.769531 68.75 C 548.253906 68.332031 548.570312 67.867188 548.710938 67.375 C 548.773438 67.152344 549.003906 67.023438 549.226562 67.089844 C 549.449219 67.152344 549.578125 67.382812 549.515625 67.605469 C 549.328125 68.253906 548.925781 68.855469 548.320312 69.382812 C 548.148438 69.535156 547.882812 69.515625 547.730469 69.339844 C 547.660156 69.261719 547.628906 69.164062 547.628906 69.066406 Z M 547.628906 69.066406 " fill-opacity="1" fill-rule="evenodd"/><path fill="#000000" d="M 547.917969 62.570312 C 547.917969 62.472656 547.949219 62.375 548.019531 62.296875 C 548.171875 62.121094 548.4375 62.101562 548.609375 62.253906 C 549.214844 62.785156 549.617188 63.382812 549.804688 64.03125 C 549.867188 64.253906 549.738281 64.484375 549.515625 64.550781 C 549.292969 64.613281 549.0625 64.484375 549 64.261719 C 548.859375 63.769531 548.542969 63.304688 548.058594 62.886719 C 547.964844 62.804688 547.917969 62.6875 547.917969 62.570312 Z M 547.917969 62.570312 " fill-opacity="1" fill-rule="evenodd"/><path fill="#000000" d="M 545.007812 77.453125 C 545.007812 77.273438 545.128906 77.105469 545.3125 77.050781 C 545.804688 76.910156 546.265625 76.59375 546.6875 76.113281 C 546.839844 75.9375 547.105469 75.921875 547.277344 76.074219 C 547.453125 76.222656 547.46875 76.488281 547.320312 76.664062 C 546.789062 77.269531 546.191406 77.667969 545.542969 77.855469 C 545.320312 77.917969 545.089844 77.789062 545.027344 77.570312 C 545.015625 77.53125 545.007812 77.492188 545.007812 77.453125 Z M 545.007812 77.453125 " fill-opacity="1" fill-rule="evenodd"/><path fill="#000000" d="M 531.125 75.699219 C 531.125 75.527344 531.234375 75.363281 531.40625 75.304688 C 531.625 75.230469 531.863281 75.347656 531.9375 75.566406 C 532.199219 76.324219 532.246094 77.042969 532.082031 77.699219 C 532.027344 77.925781 531.800781 78.058594 531.574219 78.003906 C 531.351562 77.949219 531.214844 77.722656 531.273438 77.496094 C 531.398438 77 531.355469 76.441406 531.148438 75.835938 C 531.132812 75.792969 531.125 75.746094 531.125 75.699219 Z M 531.125 75.699219 " fill-opacity="1" fill-rule="evenodd"/><path fill="#000000" d="M 530.828125 72.121094 C 530.828125 72.003906 530.878906 71.886719 530.972656 71.804688 C 531.453125 71.382812 531.769531 70.921875 531.910156 70.425781 C 531.976562 70.207031 532.207031 70.078125 532.429688 70.140625 C 532.648438 70.203125 532.777344 70.433594 532.714844 70.65625 C 532.527344 71.308594 532.128906 71.90625 531.519531 72.433594 C 531.347656 72.585938 531.082031 72.566406 530.933594 72.394531 C 530.863281 72.316406 530.828125 72.214844 530.828125 72.121094 Z M 530.828125 72.121094 " fill-opacity="1" fill-rule="evenodd"/><path fill="#000000" d="M 529.1875 62.335938 C 529.1875 62.21875 529.234375 62.101562 529.332031 62.019531 C 529.503906 61.867188 529.769531 61.882812 529.921875 62.058594 C 530.339844 62.542969 530.804688 62.859375 531.296875 63 C 531.519531 63.0625 531.648438 63.292969 531.582031 63.515625 C 531.519531 63.738281 531.289062 63.863281 531.066406 63.800781 C 530.417969 63.617188 529.820312 63.214844 529.289062 62.609375 C 529.222656 62.527344 529.1875 62.429688 529.1875 62.335938 Z M 529.1875 62.335938 " fill-opacity="1" fill-rule="evenodd"/><path fill="#000000" d="M 532.800781 67.199219 C 532.800781 67.191406 532.796875 67.1875 532.796875 67.183594 C 532.792969 67.171875 532.789062 67.160156 532.773438 67.152344 L 531.824219 66.605469 C 531.800781 66.589844 531.769531 66.601562 531.757812 66.625 L 531.210938 67.570312 C 531.195312 67.59375 531.203125 67.628906 531.230469 67.640625 L 532.175781 68.1875 C 532.199219 68.203125 532.230469 68.195312 532.246094 68.167969 L 532.792969 67.222656 C 532.796875 67.214844 532.800781 67.203125 532.800781 67.199219 Z M 530.367188 67.59375 C 530.367188 67.445312 530.40625 67.292969 530.484375 67.152344 L 531.03125 66.207031 C 531.277344 65.78125 531.820312 65.636719 532.242188 65.882812 L 533.191406 66.429688 C 533.394531 66.546875 533.542969 66.738281 533.605469 66.96875 C 533.667969 67.195312 533.636719 67.4375 533.515625 67.640625 L 532.96875 68.585938 C 532.726562 69.011719 532.179688 69.15625 531.757812 68.910156 L 530.808594 68.363281 C 530.527344 68.203125 530.367188 67.902344 530.367188 67.59375 Z M 530.367188 67.59375 " fill-opacity="1" fill-rule="evenodd"/><path fill="#000000" d="M 535.535156 75.261719 C 535.535156 75.253906 535.535156 75.25 535.53125 75.246094 C 535.53125 75.238281 535.523438 75.222656 535.507812 75.214844 L 534.5625 74.667969 C 534.546875 74.660156 534.53125 74.660156 534.523438 74.664062 C 534.515625 74.667969 534.5 74.671875 534.492188 74.6875 L 533.945312 75.632812 C 533.9375 75.648438 533.9375 75.664062 533.941406 75.671875 C 533.941406 75.683594 533.949219 75.695312 533.964844 75.703125 L 534.910156 76.25 C 534.933594 76.265625 534.96875 76.257812 534.980469 76.234375 L 535.527344 75.285156 C 535.53125 75.277344 535.535156 75.269531 535.535156 75.261719 Z M 533.101562 75.65625 C 533.101562 75.503906 533.140625 75.351562 533.21875 75.214844 L 533.765625 74.269531 C 534.011719 73.84375 534.554688 73.699219 534.980469 73.945312 L 535.925781 74.492188 C 536.132812 74.609375 536.277344 74.800781 536.339844 75.03125 C 536.402344 75.257812 536.371094 75.5 536.253906 75.703125 L 535.707031 76.652344 C 535.460938 77.074219 534.917969 77.21875 534.492188 76.976562 L 533.546875 76.429688 C 533.339844 76.308594 533.195312 76.117188 533.132812 75.890625 C 533.113281 75.8125 533.101562 75.734375 533.101562 75.65625 Z M 533.101562 75.65625 " fill-opacity="1" fill-rule="evenodd"/><path fill="#000000" d="M 542.238281 69.894531 C 542.238281 69.886719 542.238281 69.882812 542.234375 69.878906 C 542.234375 69.871094 542.226562 69.855469 542.214844 69.847656 L 541.265625 69.300781 C 541.242188 69.289062 541.210938 69.296875 541.195312 69.320312 L 540.648438 70.265625 C 540.640625 70.28125 540.640625 70.296875 540.644531 70.304688 C 540.648438 70.316406 540.652344 70.328125 540.667969 70.335938 L 541.613281 70.882812 C 541.636719 70.898438 541.671875 70.890625 541.683594 70.867188 L 542.230469 69.917969 C 542.238281 69.910156 542.238281 69.902344 542.238281 69.894531 Z M 539.804688 70.289062 C 539.804688 70.136719 539.84375 69.984375 539.925781 69.847656 L 540.472656 68.902344 C 540.714844 68.476562 541.257812 68.332031 541.683594 68.578125 L 542.632812 69.125 C 542.835938 69.242188 542.980469 69.433594 543.042969 69.664062 C 543.105469 69.894531 543.074219 70.132812 542.957031 70.335938 L 542.410156 71.285156 C 542.164062 71.707031 541.621094 71.851562 541.195312 71.609375 L 540.25 71.0625 C 540.042969 70.941406 539.898438 70.753906 539.835938 70.523438 C 539.816406 70.445312 539.804688 70.367188 539.804688 70.289062 Z M 539.804688 70.289062 " fill-opacity="1" fill-rule="evenodd"/><path fill="#000000" d="M 541.582031 66.164062 C 541.582031 66.089844 541.601562 66.015625 541.644531 65.949219 C 541.761719 65.75 542.019531 65.6875 542.214844 65.804688 C 542.796875 66.152344 543.269531 66.695312 543.625 67.417969 C 543.722656 67.625 543.640625 67.875 543.433594 67.976562 C 543.222656 68.078125 542.972656 67.992188 542.871094 67.785156 C 542.589844 67.210938 542.226562 66.785156 541.785156 66.523438 C 541.65625 66.445312 541.582031 66.304688 541.582031 66.164062 Z M 541.582031 66.164062 " fill-opacity="1" fill-rule="evenodd"/><path fill="#000000" d="M 542.890625 73.910156 C 542.890625 73.8125 542.925781 73.714844 542.996094 73.636719 C 543.144531 73.460938 543.410156 73.445312 543.585938 73.597656 C 544.191406 74.125 544.59375 74.722656 544.777344 75.375 C 544.839844 75.59375 544.710938 75.824219 544.492188 75.890625 C 544.269531 75.953125 544.039062 75.824219 543.972656 75.601562 C 543.832031 75.109375 543.515625 74.648438 543.035156 74.226562 C 542.941406 74.144531 542.890625 74.027344 542.890625 73.910156 Z M 542.890625 73.910156 " fill-opacity="1" fill-rule="evenodd"/><g fill="#ffffff" fill-opacity="1"><g transform="translate(519.238188, 43.674015)"><g><path d="M -2.671875 -10.375 C -2.535156 -10.4375 -2.378906 -10.46875 -2.203125 -10.46875 C -2.035156 -10.476562 -1.894531 -10.441406 -1.78125 -10.359375 L 3.9375 -6.875 L 3.25 -6.578125 L 4.203125 -13.21875 C 4.265625 -13.539062 4.429688 -13.769531 4.703125 -13.90625 C 4.921875 -14.007812 5.148438 -14.019531 5.390625 -13.9375 C 5.628906 -13.863281 5.804688 -13.707031 5.921875 -13.46875 L 9.671875 -5.640625 C 9.773438 -5.410156 9.789062 -5.175781 9.71875 -4.9375 C 9.644531 -4.707031 9.484375 -4.535156 9.234375 -4.421875 C 8.984375 -4.296875 8.738281 -4.273438 8.5 -4.359375 C 8.257812 -4.441406 8.085938 -4.597656 7.984375 -4.828125 L 4.9375 -11.203125 L 5.515625 -11.34375 L 4.765625 -5.8125 C 4.734375 -5.664062 4.671875 -5.53125 4.578125 -5.40625 C 4.492188 -5.28125 4.390625 -5.1875 4.265625 -5.125 C 4.140625 -5.070312 4 -5.050781 3.84375 -5.0625 C 3.695312 -5.070312 3.5625 -5.109375 3.4375 -5.171875 L -1.109375 -8.015625 L -1.109375 -8.90625 L 2.171875 -2.0625 C 2.273438 -1.832031 2.296875 -1.601562 2.234375 -1.375 C 2.171875 -1.144531 2.023438 -0.972656 1.796875 -0.859375 C 1.566406 -0.742188 1.335938 -0.734375 1.109375 -0.828125 C 0.890625 -0.921875 0.726562 -1.082031 0.625 -1.3125 L -3.125 -9.140625 C -3.226562 -9.367188 -3.234375 -9.601562 -3.140625 -9.84375 C -3.054688 -10.09375 -2.898438 -10.269531 -2.671875 -10.375 Z M -2.671875 -10.375 "/></g></g></g><g fill="#ffffff" fill-opacity="1"><g transform="translate(530.784436, 38.508162)"><g><path d="M 4.375 -8.484375 L 1.703125 -0.65625 C 1.648438 -0.457031 1.550781 -0.300781 1.40625 -0.1875 C 1.269531 -0.0703125 1.113281 -0.00390625 0.9375 0.015625 C 0.675781 0.0234375 0.472656 -0.0351562 0.328125 -0.171875 C 0.191406 -0.316406 0.117188 -0.5 0.109375 -0.71875 C 0.0976562 -0.8125 0.0976562 -0.90625 0.109375 -1 L 3.203125 -10.203125 C 3.253906 -10.421875 3.359375 -10.585938 3.515625 -10.703125 C 3.679688 -10.828125 3.859375 -10.882812 4.046875 -10.875 C 4.222656 -10.894531 4.394531 -10.859375 4.5625 -10.765625 C 4.726562 -10.671875 4.851562 -10.523438 4.9375 -10.328125 L 9.25 -1.84375 C 9.3125 -1.71875 9.34375 -1.601562 9.34375 -1.5 C 9.363281 -1.226562 9.289062 -1.003906 9.125 -0.828125 C 8.957031 -0.648438 8.773438 -0.554688 8.578125 -0.546875 C 8.398438 -0.535156 8.234375 -0.578125 8.078125 -0.671875 C 7.929688 -0.773438 7.804688 -0.921875 7.703125 -1.109375 L 3.953125 -8.375 Z M 2.03125 -2.515625 L 2.71875 -4.28125 L 6.765625 -4.578125 L 7.171875 -2.890625 Z M 2.03125 -2.515625 "/></g></g></g><g fill="#ffffff" fill-opacity="1"><g transform="translate(541.253841, 38.217322)"><g><path d="M 3.125 -0.359375 C 3.070312 -0.0976562 2.9375 0.0976562 2.71875 0.234375 C 2.5 0.378906 2.269531 0.425781 2.03125 0.375 C 1.75 0.320312 1.539062 0.195312 1.40625 0 C 1.269531 -0.207031 1.226562 -0.441406 1.28125 -0.703125 L 2.875 -9.203125 C 2.925781 -9.460938 3.054688 -9.660156 3.265625 -9.796875 C 3.472656 -9.929688 3.710938 -9.972656 3.984375 -9.921875 C 4.210938 -9.878906 4.40625 -9.753906 4.5625 -9.546875 C 4.71875 -9.347656 4.769531 -9.117188 4.71875 -8.859375 Z M 3.125 -0.359375 "/></g></g></g><g fill="#ffffff" fill-opacity="1"><g transform="translate(546.251832, 38.790371)"><g><path d="M 12.828125 -5.328125 C 13.046875 -5.210938 13.1875 -5.046875 13.25 -4.828125 C 13.3125 -4.617188 13.289062 -4.410156 13.1875 -4.203125 L 9.265625 3.609375 C 9.148438 3.847656 8.972656 4.003906 8.734375 4.078125 C 8.503906 4.148438 8.269531 4.128906 8.03125 4.015625 C 7.914062 3.960938 7.804688 3.882812 7.703125 3.78125 C 7.609375 3.675781 7.546875 3.578125 7.515625 3.484375 L 5.609375 -5.859375 L 6.0625 -5.890625 L 2.859375 0.5 C 2.753906 0.707031 2.59375 0.847656 2.375 0.921875 C 2.164062 0.992188 1.953125 0.972656 1.734375 0.859375 C 1.515625 0.753906 1.375 0.59375 1.3125 0.375 C 1.25 0.164062 1.269531 -0.0390625 1.375 -0.25 L 5.28125 -8.0625 C 5.40625 -8.300781 5.585938 -8.457031 5.828125 -8.53125 C 6.066406 -8.613281 6.300781 -8.59375 6.53125 -8.46875 C 6.65625 -8.414062 6.769531 -8.328125 6.875 -8.203125 C 6.988281 -8.085938 7.050781 -7.960938 7.0625 -7.828125 L 8.890625 1.234375 L 8.59375 1.28125 L 11.71875 -4.9375 C 11.820312 -5.144531 11.976562 -5.285156 12.1875 -5.359375 C 12.394531 -5.441406 12.609375 -5.429688 12.828125 -5.328125 Z M 12.828125 -5.328125 "/></g></g></g><g fill="#ffffff" fill-opacity="1"><g transform="translate(499.806781, 88.818048)"><g><path d="M 13.03125 1.25 C 13.082031 1.539062 13.003906 1.785156 12.796875 1.984375 C 12.597656 2.179688 12.347656 2.269531 12.046875 2.25 C 11.828125 2.238281 11.648438 2.15625 11.515625 2 C 11.378906 1.851562 11.289062 1.660156 11.25 1.421875 C 11.207031 1.160156 11.132812 0.898438 11.03125 0.640625 C 10.9375 0.390625 10.804688 0.144531 10.640625 -0.09375 C 10.328125 -0.53125 9.976562 -0.875 9.59375 -1.125 C 9.207031 -1.375 8.796875 -1.53125 8.359375 -1.59375 C 7.929688 -1.664062 7.5 -1.640625 7.0625 -1.515625 C 6.625 -1.398438 6.191406 -1.195312 5.765625 -0.90625 C 5.253906 -0.550781 4.863281 -0.175781 4.59375 0.21875 C 4.332031 0.625 4.164062 1.035156 4.09375 1.453125 C 4.019531 1.878906 4.046875 2.304688 4.171875 2.734375 C 4.296875 3.171875 4.5 3.585938 4.78125 3.984375 C 4.9375 4.210938 5.109375 4.421875 5.296875 4.609375 C 5.492188 4.796875 5.71875 4.957031 5.96875 5.09375 C 6.175781 5.21875 6.320312 5.367188 6.40625 5.546875 C 6.5 5.734375 6.515625 5.9375 6.453125 6.15625 C 6.359375 6.46875 6.1875 6.675781 5.9375 6.78125 C 5.6875 6.882812 5.441406 6.863281 5.203125 6.71875 C 4.941406 6.570312 4.695312 6.414062 4.46875 6.25 C 4.25 6.082031 4.039062 5.894531 3.84375 5.6875 C 3.644531 5.476562 3.460938 5.253906 3.296875 5.015625 C 2.890625 4.429688 2.597656 3.804688 2.421875 3.140625 C 2.242188 2.472656 2.191406 1.800781 2.265625 1.125 C 2.347656 0.457031 2.582031 -0.1875 2.96875 -0.8125 C 3.363281 -1.4375 3.925781 -2.003906 4.65625 -2.515625 C 5.289062 -2.953125 5.945312 -3.242188 6.625 -3.390625 C 7.3125 -3.546875 7.988281 -3.5625 8.65625 -3.4375 C 9.320312 -3.3125 9.953125 -3.050781 10.546875 -2.65625 C 11.140625 -2.257812 11.660156 -1.742188 12.109375 -1.109375 C 12.359375 -0.742188 12.5625 -0.363281 12.71875 0.03125 C 12.875 0.4375 12.976562 0.84375 13.03125 1.25 Z M 13.03125 1.25 "/></g></g></g><g fill="#ffffff" fill-opacity="1"><g transform="translate(507.925068, 99.585312)"><g><path d="M 11.8125 2.0625 C 11.375 2.664062 10.859375 3.15625 10.265625 3.53125 C 9.679688 3.914062 9.0625 4.175781 8.40625 4.3125 C 7.757812 4.445312 7.097656 4.445312 6.421875 4.3125 C 5.742188 4.175781 5.109375 3.890625 4.515625 3.453125 C 3.910156 3.023438 3.441406 2.515625 3.109375 1.921875 C 2.773438 1.328125 2.566406 0.691406 2.484375 0.015625 C 2.398438 -0.648438 2.445312 -1.316406 2.625 -1.984375 C 2.8125 -2.660156 3.125 -3.300781 3.5625 -3.90625 C 4 -4.519531 4.507812 -5.015625 5.09375 -5.390625 C 5.675781 -5.773438 6.296875 -6.03125 6.953125 -6.15625 C 7.617188 -6.289062 8.285156 -6.289062 8.953125 -6.15625 C 9.617188 -6.019531 10.253906 -5.738281 10.859375 -5.3125 C 11.453125 -4.875 11.921875 -4.359375 12.265625 -3.765625 C 12.609375 -3.171875 12.816406 -2.539062 12.890625 -1.875 C 12.960938 -1.207031 12.910156 -0.539062 12.734375 0.125 C 12.554688 0.800781 12.25 1.445312 11.8125 2.0625 Z M 10.234375 0.921875 C 10.617188 0.378906 10.863281 -0.1875 10.96875 -0.78125 C 11.070312 -1.382812 11.023438 -1.953125 10.828125 -2.484375 C 10.640625 -3.023438 10.296875 -3.476562 9.796875 -3.84375 C 9.285156 -4.207031 8.742188 -4.394531 8.171875 -4.40625 C 7.609375 -4.425781 7.0625 -4.289062 6.53125 -4 C 6 -3.71875 5.535156 -3.300781 5.140625 -2.75 C 4.742188 -2.207031 4.492188 -1.640625 4.390625 -1.046875 C 4.285156 -0.453125 4.328125 0.109375 4.515625 0.640625 C 4.710938 1.171875 5.066406 1.617188 5.578125 1.984375 C 6.078125 2.347656 6.609375 2.539062 7.171875 2.5625 C 7.742188 2.582031 8.296875 2.445312 8.828125 2.15625 C 9.367188 1.875 9.835938 1.460938 10.234375 0.921875 Z M 10.234375 0.921875 "/></g></g></g><g fill="#ffffff" fill-opacity="1"><g transform="translate(520.95705, 108.019762)"><g><path d="M 11.109375 -7.8125 C 11.359375 -7.738281 11.535156 -7.59375 11.640625 -7.375 C 11.753906 -7.164062 11.773438 -6.9375 11.703125 -6.6875 L 10.234375 -1.46875 C 10.003906 -0.664062 9.628906 -0.00390625 9.109375 0.515625 C 8.597656 1.035156 7.992188 1.382812 7.296875 1.5625 C 6.609375 1.75 5.867188 1.734375 5.078125 1.515625 C 4.285156 1.285156 3.632812 0.910156 3.125 0.390625 C 2.625 -0.117188 2.285156 -0.726562 2.109375 -1.4375 C 1.941406 -2.15625 1.972656 -2.914062 2.203125 -3.71875 L 3.671875 -8.9375 C 3.742188 -9.1875 3.890625 -9.367188 4.109375 -9.484375 C 4.335938 -9.609375 4.582031 -9.632812 4.84375 -9.5625 C 5.070312 -9.5 5.25 -9.351562 5.375 -9.125 C 5.507812 -8.90625 5.539062 -8.671875 5.46875 -8.421875 L 4 -3.203125 C 3.863281 -2.722656 3.847656 -2.273438 3.953125 -1.859375 C 4.054688 -1.453125 4.253906 -1.101562 4.546875 -0.8125 C 4.835938 -0.53125 5.175781 -0.332031 5.5625 -0.21875 C 5.976562 -0.101562 6.390625 -0.09375 6.796875 -0.1875 C 7.203125 -0.28125 7.566406 -0.472656 7.890625 -0.765625 C 8.210938 -1.054688 8.441406 -1.441406 8.578125 -1.921875 L 10.046875 -7.140625 C 10.117188 -7.390625 10.25 -7.578125 10.4375 -7.703125 C 10.632812 -7.835938 10.859375 -7.875 11.109375 -7.8125 Z M 11.109375 -7.8125 "/></g></g></g><g fill="#ffffff" fill-opacity="1"><g transform="translate(535.226239, 111.281475)"><g><path d="M 2.203125 -0.140625 C 1.921875 -0.117188 1.664062 -0.191406 1.4375 -0.359375 C 1.207031 -0.523438 1.082031 -0.738281 1.0625 -1 L 0.5 -9.640625 C 0.488281 -9.898438 0.5625 -10.125 0.71875 -10.3125 C 0.882812 -10.5 1.097656 -10.601562 1.359375 -10.625 L 5.65625 -10.890625 C 6.175781 -10.929688 6.671875 -10.828125 7.140625 -10.578125 C 7.617188 -10.328125 8.015625 -9.96875 8.328125 -9.5 C 8.640625 -9.039062 8.816406 -8.5 8.859375 -7.875 C 8.878906 -7.488281 8.820312 -7.109375 8.6875 -6.734375 C 8.5625 -6.367188 8.375 -6.03125 8.125 -5.71875 C 7.875 -5.414062 7.59375 -5.175781 7.28125 -5 L 7.28125 -5.34375 C 7.570312 -5.207031 7.8125 -5.039062 8 -4.84375 C 8.195312 -4.65625 8.351562 -4.445312 8.46875 -4.21875 C 8.59375 -4 8.675781 -3.753906 8.71875 -3.484375 C 8.769531 -3.234375 8.8125 -3.015625 8.84375 -2.828125 C 8.875 -2.648438 8.914062 -2.492188 8.96875 -2.359375 C 9.019531 -2.234375 9.113281 -2.140625 9.25 -2.078125 C 9.476562 -1.960938 9.628906 -1.785156 9.703125 -1.546875 C 9.773438 -1.304688 9.726562 -1.082031 9.5625 -0.875 C 9.46875 -0.738281 9.332031 -0.644531 9.15625 -0.59375 C 8.988281 -0.550781 8.820312 -0.539062 8.65625 -0.5625 C 8.488281 -0.59375 8.34375 -0.632812 8.21875 -0.6875 C 8.050781 -0.769531 7.875 -0.90625 7.6875 -1.09375 C 7.5 -1.28125 7.34375 -1.535156 7.21875 -1.859375 C 7.09375 -2.179688 7.015625 -2.601562 6.984375 -3.125 C 6.972656 -3.289062 6.929688 -3.441406 6.859375 -3.578125 C 6.785156 -3.722656 6.691406 -3.84375 6.578125 -3.9375 C 6.460938 -4.039062 6.316406 -4.113281 6.140625 -4.15625 C 5.972656 -4.195312 5.773438 -4.207031 5.546875 -4.1875 L 2.53125 -4 L 2.734375 -4.34375 L 2.9375 -1.109375 C 2.957031 -0.847656 2.898438 -0.625 2.765625 -0.4375 C 2.640625 -0.257812 2.453125 -0.160156 2.203125 -0.140625 Z M 2.453125 -5.546875 L 5.921875 -5.765625 C 6.109375 -5.773438 6.28125 -5.863281 6.4375 -6.03125 C 6.59375 -6.207031 6.710938 -6.441406 6.796875 -6.734375 C 6.890625 -7.035156 6.925781 -7.359375 6.90625 -7.703125 C 6.875 -8.140625 6.726562 -8.5 6.46875 -8.78125 C 6.21875 -9.0625 5.957031 -9.191406 5.6875 -9.171875 L 2.234375 -8.953125 L 2.40625 -9.421875 L 2.671875 -5.1875 Z M 2.453125 -5.546875 "/></g></g></g><g fill="#ffffff" fill-opacity="1"><g transform="translate(549.364868, 109.628359)"><g><path d="M 4.234375 -1.53125 C 3.585938 -1.269531 2.96875 -1.113281 2.375 -1.0625 C 1.789062 -1.019531 1.175781 -1.109375 0.53125 -1.328125 C 0.375 -1.378906 0.234375 -1.457031 0.109375 -1.5625 C -0.00390625 -1.675781 -0.0859375 -1.796875 -0.140625 -1.921875 C -0.222656 -2.128906 -0.21875 -2.347656 -0.125 -2.578125 C -0.03125 -2.804688 0.128906 -2.96875 0.359375 -3.0625 C 0.535156 -3.132812 0.71875 -3.132812 0.90625 -3.0625 C 1.363281 -2.925781 1.796875 -2.851562 2.203125 -2.84375 C 2.609375 -2.84375 3.066406 -2.941406 3.578125 -3.140625 C 3.929688 -3.285156 4.226562 -3.46875 4.46875 -3.6875 C 4.707031 -3.90625 4.878906 -4.140625 4.984375 -4.390625 C 5.097656 -4.640625 5.109375 -4.882812 5.015625 -5.125 C 4.910156 -5.40625 4.734375 -5.601562 4.484375 -5.71875 C 4.234375 -5.84375 3.90625 -5.90625 3.5 -5.90625 C 3.101562 -5.90625 2.625 -5.835938 2.0625 -5.703125 C 1.53125 -5.578125 1.046875 -5.507812 0.609375 -5.5 C 0.179688 -5.5 -0.203125 -5.566406 -0.546875 -5.703125 C -0.898438 -5.835938 -1.207031 -6.039062 -1.46875 -6.3125 C -1.738281 -6.582031 -1.957031 -6.914062 -2.125 -7.3125 C -2.363281 -7.914062 -2.410156 -8.492188 -2.265625 -9.046875 C -2.128906 -9.597656 -1.835938 -10.09375 -1.390625 -10.53125 C -0.953125 -10.96875 -0.414062 -11.316406 0.21875 -11.578125 C 0.820312 -11.816406 1.414062 -11.945312 2 -11.96875 C 2.59375 -12 3.113281 -11.9375 3.5625 -11.78125 C 3.90625 -11.664062 4.132812 -11.46875 4.25 -11.1875 C 4.332031 -10.988281 4.328125 -10.773438 4.234375 -10.546875 C 4.140625 -10.316406 3.988281 -10.160156 3.78125 -10.078125 C 3.632812 -10.023438 3.488281 -10.019531 3.34375 -10.0625 C 3.144531 -10.132812 2.894531 -10.175781 2.59375 -10.1875 C 2.300781 -10.207031 2 -10.195312 1.6875 -10.15625 C 1.375 -10.125 1.097656 -10.0625 0.859375 -9.96875 C 0.460938 -9.800781 0.148438 -9.609375 -0.078125 -9.390625 C -0.316406 -9.179688 -0.472656 -8.960938 -0.546875 -8.734375 C -0.617188 -8.503906 -0.609375 -8.273438 -0.515625 -8.046875 C -0.398438 -7.765625 -0.222656 -7.566406 0.015625 -7.453125 C 0.253906 -7.335938 0.546875 -7.285156 0.890625 -7.296875 C 1.242188 -7.316406 1.648438 -7.375 2.109375 -7.46875 C 2.710938 -7.582031 3.25 -7.65625 3.71875 -7.6875 C 4.195312 -7.71875 4.617188 -7.679688 4.984375 -7.578125 C 5.359375 -7.472656 5.679688 -7.28125 5.953125 -7 C 6.222656 -6.726562 6.453125 -6.351562 6.640625 -5.875 C 6.878906 -5.28125 6.921875 -4.695312 6.765625 -4.125 C 6.609375 -3.550781 6.304688 -3.039062 5.859375 -2.59375 C 5.410156 -2.144531 4.867188 -1.789062 4.234375 -1.53125 Z M 4.234375 -1.53125 "/></g></g></g><g fill="#ffffff" fill-opacity="1"><g transform="translate(560.978945, 104.330384)"><g><path d="M -4.96875 -9.46875 L -1.046875 -12.609375 C -0.847656 -12.765625 -0.625 -12.832031 -0.375 -12.8125 C -0.132812 -12.800781 0.0625 -12.695312 0.21875 -12.5 C 0.375 -12.300781 0.425781 -12.082031 0.375 -11.84375 C 0.332031 -11.613281 0.210938 -11.421875 0.015625 -11.265625 L -3.265625 -8.625 L -3.3125 -8.921875 L -1.484375 -6.640625 L -1.640625 -6.65625 L 1.09375 -8.859375 C 1.300781 -9.015625 1.519531 -9.082031 1.75 -9.0625 C 1.988281 -9.050781 2.191406 -8.945312 2.359375 -8.75 C 2.515625 -8.550781 2.570312 -8.332031 2.53125 -8.09375 C 2.5 -7.863281 2.378906 -7.671875 2.171875 -7.515625 L -0.53125 -5.34375 L -0.546875 -5.484375 L 1.34375 -3.125 L 1.171875 -3.140625 L 4.4375 -5.765625 C 4.632812 -5.921875 4.859375 -5.988281 5.109375 -5.96875 C 5.359375 -5.945312 5.554688 -5.847656 5.703125 -5.671875 C 5.859375 -5.472656 5.914062 -5.253906 5.875 -5.015625 C 5.832031 -4.773438 5.710938 -4.578125 5.515625 -4.421875 L 1.59375 -1.28125 C 1.394531 -1.113281 1.171875 -1.046875 0.921875 -1.078125 C 0.671875 -1.109375 0.460938 -1.222656 0.296875 -1.421875 L -5.109375 -8.171875 C -5.273438 -8.378906 -5.34375 -8.601562 -5.3125 -8.84375 C -5.28125 -9.09375 -5.164062 -9.300781 -4.96875 -9.46875 Z M -4.96875 -9.46875 "/></g></g></g><g fill="#ffffff" fill-opacity="1"><g transform="translate(570.308298, 96.167424)"><g><path d="M 2.671875 -3.609375 C 2.273438 -3.035156 1.84375 -2.566406 1.375 -2.203125 C 0.914062 -1.847656 0.363281 -1.582031 -0.28125 -1.40625 C -0.445312 -1.375 -0.609375 -1.363281 -0.765625 -1.375 C -0.929688 -1.394531 -1.066406 -1.441406 -1.171875 -1.515625 C -1.367188 -1.648438 -1.488281 -1.835938 -1.53125 -2.078125 C -1.582031 -2.316406 -1.539062 -2.539062 -1.40625 -2.75 C -1.300781 -2.894531 -1.148438 -3 -0.953125 -3.0625 C -0.492188 -3.195312 -0.09375 -3.375 0.25 -3.59375 C 0.601562 -3.8125 0.9375 -4.144531 1.25 -4.59375 C 1.457031 -4.90625 1.601562 -5.222656 1.6875 -5.546875 C 1.769531 -5.867188 1.785156 -6.160156 1.734375 -6.421875 C 1.679688 -6.691406 1.550781 -6.894531 1.34375 -7.03125 C 1.09375 -7.195312 0.828125 -7.265625 0.546875 -7.234375 C 0.273438 -7.203125 -0.0195312 -7.078125 -0.34375 -6.859375 C -0.675781 -6.640625 -1.039062 -6.316406 -1.4375 -5.890625 C -1.8125 -5.492188 -2.175781 -5.171875 -2.53125 -4.921875 C -2.894531 -4.679688 -3.257812 -4.519531 -3.625 -4.4375 C -4 -4.351562 -4.367188 -4.347656 -4.734375 -4.421875 C -5.097656 -4.503906 -5.457031 -4.664062 -5.8125 -4.90625 C -6.34375 -5.269531 -6.703125 -5.722656 -6.890625 -6.265625 C -7.085938 -6.804688 -7.125 -7.378906 -7 -7.984375 C -6.875 -8.597656 -6.617188 -9.1875 -6.234375 -9.75 C -5.859375 -10.28125 -5.429688 -10.71875 -4.953125 -11.0625 C -4.484375 -11.414062 -4.023438 -11.65625 -3.578125 -11.78125 C -3.222656 -11.875 -2.921875 -11.835938 -2.671875 -11.671875 C -2.492188 -11.546875 -2.378906 -11.363281 -2.328125 -11.125 C -2.285156 -10.894531 -2.328125 -10.679688 -2.453125 -10.484375 C -2.535156 -10.359375 -2.644531 -10.269531 -2.78125 -10.21875 C -3 -10.164062 -3.234375 -10.066406 -3.484375 -9.921875 C -3.742188 -9.773438 -3.988281 -9.597656 -4.21875 -9.390625 C -4.457031 -9.191406 -4.65625 -8.984375 -4.8125 -8.765625 C -5.050781 -8.421875 -5.207031 -8.09375 -5.28125 -7.78125 C -5.363281 -7.476562 -5.367188 -7.210938 -5.296875 -6.984375 C -5.222656 -6.753906 -5.082031 -6.566406 -4.875 -6.421875 C -4.625 -6.253906 -4.367188 -6.1875 -4.109375 -6.21875 C -3.847656 -6.25 -3.578125 -6.367188 -3.296875 -6.578125 C -3.023438 -6.785156 -2.722656 -7.050781 -2.390625 -7.375 C -1.953125 -7.8125 -1.539062 -8.171875 -1.15625 -8.453125 C -0.78125 -8.742188 -0.410156 -8.945312 -0.046875 -9.0625 C 0.316406 -9.175781 0.6875 -9.195312 1.0625 -9.125 C 1.445312 -9.050781 1.847656 -8.867188 2.265625 -8.578125 C 2.804688 -8.210938 3.171875 -7.742188 3.359375 -7.171875 C 3.546875 -6.609375 3.570312 -6.015625 3.4375 -5.390625 C 3.3125 -4.765625 3.054688 -4.171875 2.671875 -3.609375 Z M 2.671875 -3.609375 "/></g></g></g><path stroke-linecap="butt" transform="matrix(0, -0.75, 0.75, 0, 218.706568, 594.913766)" fill="none" stroke-linejoin="miter" d="M -0.000394694 1.000618 L 622.952761 1.000618 " stroke="#000000" stroke-width="2" stroke-opacity="1" stroke-miterlimit="4"/><path stroke-linecap="butt" transform="matrix(-0.75, 0, 0, -0.75, 567.503878, 628.567789)" fill="none" stroke-linejoin="miter" d="M -0.0000373015 1.001843 L 684.682288 1.001843 " stroke="#000000" stroke-width="2" stroke-opacity="1" stroke-miterlimit="4"/><g fill="#000000" fill-opacity="1"><g transform="translate(85.410233, 114.904337)"><g><path d="M 2.1875 -9.078125 L 2.1875 0 L 1 0 L 1 -9.078125 Z M 2.1875 -9.078125 "/></g></g></g><g fill="#000000" fill-opacity="1"><g transform="translate(88.610161, 114.904337)"><g><path d="M 8.140625 0 L 6.953125 0 L 2.1875 -7.21875 L 2.1875 0 L 1 0 L 1 -9.078125 L 2.1875 -9.078125 L 6.953125 -1.875 L 6.953125 -9.078125 L 8.140625 -9.078125 Z M 8.140625 0 "/></g></g></g><g fill="#000000" fill-opacity="1"><g transform="translate(97.754654, 114.904337)"><g><path d="M 7.875 -6.4375 C 7.625 -6.96875 7.257812 -7.378906 6.78125 -7.671875 C 6.300781 -7.960938 5.742188 -8.109375 5.109375 -8.109375 C 4.484375 -8.109375 3.914062 -7.960938 3.40625 -7.671875 C 2.894531 -7.378906 2.492188 -6.960938 2.203125 -6.421875 C 1.910156 -5.878906 1.765625 -5.253906 1.765625 -4.546875 C 1.765625 -3.828125 1.910156 -3.195312 2.203125 -2.65625 C 2.492188 -2.125 2.894531 -1.710938 3.40625 -1.421875 C 3.914062 -1.128906 4.484375 -0.984375 5.109375 -0.984375 C 5.992188 -0.984375 6.722656 -1.25 7.296875 -1.78125 C 7.867188 -2.3125 8.203125 -3.03125 8.296875 -3.9375 L 4.6875 -3.9375 L 4.6875 -4.890625 L 9.5625 -4.890625 L 9.5625 -3.984375 C 9.5 -3.234375 9.265625 -2.546875 8.859375 -1.921875 C 8.460938 -1.304688 7.9375 -0.816406 7.28125 -0.453125 C 6.632812 -0.0976562 5.910156 0.078125 5.109375 0.078125 C 4.273438 0.078125 3.507812 -0.117188 2.8125 -0.515625 C 2.113281 -0.910156 1.5625 -1.457031 1.15625 -2.15625 C 0.757812 -2.863281 0.5625 -3.660156 0.5625 -4.546875 C 0.5625 -5.429688 0.757812 -6.222656 1.15625 -6.921875 C 1.5625 -7.628906 2.113281 -8.179688 2.8125 -8.578125 C 3.507812 -8.972656 4.273438 -9.171875 5.109375 -9.171875 C 6.078125 -9.171875 6.929688 -8.929688 7.671875 -8.453125 C 8.410156 -7.984375 8.953125 -7.3125 9.296875 -6.4375 Z M 7.875 -6.4375 "/></g></g></g><g fill="#000000" fill-opacity="1"><g transform="translate(107.874733, 114.904337)"><g><path d="M 5.78125 0 L 3.625 -3.703125 L 2.1875 -3.703125 L 2.1875 0 L 1 0 L 1 -9.078125 L 3.9375 -9.078125 C 4.613281 -9.078125 5.1875 -8.957031 5.65625 -8.71875 C 6.132812 -8.488281 6.488281 -8.171875 6.71875 -7.765625 C 6.957031 -7.367188 7.078125 -6.914062 7.078125 -6.40625 C 7.078125 -5.78125 6.894531 -5.226562 6.53125 -4.75 C 6.175781 -4.269531 5.640625 -3.953125 4.921875 -3.796875 L 7.203125 0 Z M 2.1875 -4.65625 L 3.9375 -4.65625 C 4.570312 -4.65625 5.050781 -4.8125 5.375 -5.125 C 5.695312 -5.445312 5.859375 -5.875 5.859375 -6.40625 C 5.859375 -6.9375 5.695312 -7.347656 5.375 -7.640625 C 5.0625 -7.941406 4.582031 -8.09375 3.9375 -8.09375 L 2.1875 -8.09375 Z M 2.1875 -4.65625 "/></g></g></g><g fill="#000000" fill-opacity="1"><g transform="translate(115.783492, 114.904337)"><g><path d="M 2.1875 -8.109375 L 2.1875 -5.078125 L 5.5 -5.078125 L 5.5 -4.09375 L 2.1875 -4.09375 L 2.1875 -0.96875 L 5.890625 -0.96875 L 5.890625 0 L 1 0 L 1 -9.078125 L 5.890625 -9.078125 L 5.890625 -8.109375 Z M 2.1875 -8.109375 "/></g></g></g><g fill="#000000" fill-opacity="1"><g transform="translate(122.456507, 114.904337)"><g><path d="M 3.828125 -9.078125 C 4.816406 -9.078125 5.671875 -8.890625 6.390625 -8.515625 C 7.117188 -8.148438 7.675781 -7.625 8.0625 -6.9375 C 8.445312 -6.25 8.640625 -5.441406 8.640625 -4.515625 C 8.640625 -3.585938 8.445312 -2.78125 8.0625 -2.09375 C 7.675781 -1.414062 7.117188 -0.894531 6.390625 -0.53125 C 5.671875 -0.175781 4.816406 0 3.828125 0 L 1 0 L 1 -9.078125 Z M 3.828125 -0.96875 C 4.992188 -0.96875 5.882812 -1.28125 6.5 -1.90625 C 7.125 -2.53125 7.4375 -3.398438 7.4375 -4.515625 C 7.4375 -5.640625 7.125 -6.519531 6.5 -7.15625 C 5.882812 -7.789062 4.992188 -8.109375 3.828125 -8.109375 L 2.1875 -8.109375 L 2.1875 -0.96875 Z M 3.828125 -0.96875 "/></g></g></g><g fill="#000000" fill-opacity="1"><g transform="translate(131.653036, 114.904337)"><g><path d="M 2.1875 -9.078125 L 2.1875 0 L 1 0 L 1 -9.078125 Z M 2.1875 -9.078125 "/></g></g></g><g fill="#000000" fill-opacity="1"><g transform="translate(134.852964, 114.904337)"><g><path d="M 2.1875 -8.109375 L 2.1875 -5.078125 L 5.5 -5.078125 L 5.5 -4.09375 L 2.1875 -4.09375 L 2.1875 -0.96875 L 5.890625 -0.96875 L 5.890625 0 L 1 0 L 1 -9.078125 L 5.890625 -9.078125 L 5.890625 -8.109375 Z M 2.1875 -8.109375 "/></g></g></g><g fill="#000000" fill-opacity="1"><g transform="translate(141.52598, 114.904337)"><g><path d="M 8.140625 0 L 6.953125 0 L 2.1875 -7.21875 L 2.1875 0 L 1 0 L 1 -9.078125 L 2.1875 -9.078125 L 6.953125 -1.875 L 6.953125 -9.078125 L 8.140625 -9.078125 Z M 8.140625 0 "/></g></g></g><g fill="#000000" fill-opacity="1"><g transform="translate(150.670472, 114.904337)"><g><path d="M 6.578125 -9.078125 L 6.578125 -8.109375 L 4.109375 -8.109375 L 4.109375 0 L 2.921875 0 L 2.921875 -8.109375 L 0.4375 -8.109375 L 0.4375 -9.078125 Z M 6.578125 -9.078125 "/></g></g></g><g fill="#000000" fill-opacity="1"><g transform="translate(157.707707, 114.904337)"><g><path d="M 3.875 0.09375 C 3.28125 0.09375 2.742188 -0.0078125 2.265625 -0.21875 C 1.796875 -0.4375 1.425781 -0.734375 1.15625 -1.109375 C 0.882812 -1.484375 0.742188 -1.921875 0.734375 -2.421875 L 2 -2.421875 C 2.039062 -1.992188 2.21875 -1.632812 2.53125 -1.34375 C 2.84375 -1.050781 3.289062 -0.90625 3.875 -0.90625 C 4.4375 -0.90625 4.878906 -1.046875 5.203125 -1.328125 C 5.535156 -1.609375 5.703125 -1.972656 5.703125 -2.421875 C 5.703125 -2.765625 5.601562 -3.046875 5.40625 -3.265625 C 5.21875 -3.484375 4.976562 -3.648438 4.6875 -3.765625 C 4.40625 -3.878906 4.023438 -4 3.546875 -4.125 C 2.941406 -4.28125 2.457031 -4.4375 2.09375 -4.59375 C 1.738281 -4.75 1.429688 -4.992188 1.171875 -5.328125 C 0.921875 -5.660156 0.796875 -6.109375 0.796875 -6.671875 C 0.796875 -7.171875 0.921875 -7.609375 1.171875 -7.984375 C 1.421875 -8.367188 1.773438 -8.664062 2.234375 -8.875 C 2.691406 -9.082031 3.210938 -9.1875 3.796875 -9.1875 C 4.648438 -9.1875 5.347656 -8.972656 5.890625 -8.546875 C 6.429688 -8.117188 6.738281 -7.554688 6.8125 -6.859375 L 5.5 -6.859375 C 5.457031 -7.203125 5.273438 -7.503906 4.953125 -7.765625 C 4.640625 -8.035156 4.21875 -8.171875 3.6875 -8.171875 C 3.1875 -8.171875 2.78125 -8.039062 2.46875 -7.78125 C 2.15625 -7.53125 2 -7.175781 2 -6.71875 C 2 -6.382812 2.09375 -6.113281 2.28125 -5.90625 C 2.46875 -5.695312 2.695312 -5.535156 2.96875 -5.421875 C 3.25 -5.316406 3.632812 -5.195312 4.125 -5.0625 C 4.726562 -4.894531 5.210938 -4.726562 5.578125 -4.5625 C 5.941406 -4.40625 6.25 -4.160156 6.5 -3.828125 C 6.757812 -3.492188 6.890625 -3.039062 6.890625 -2.46875 C 6.890625 -2.03125 6.773438 -1.613281 6.546875 -1.21875 C 6.316406 -0.832031 5.96875 -0.515625 5.5 -0.265625 C 5.039062 -0.0234375 4.5 0.09375 3.875 0.09375 Z M 3.875 0.09375 "/></g></g></g><g fill="#000000" fill-opacity="1"><g transform="translate(358.88228, 114.904337)"><g><path d="M 3.828125 -9.078125 C 4.816406 -9.078125 5.671875 -8.890625 6.390625 -8.515625 C 7.117188 -8.148438 7.675781 -7.625 8.0625 -6.9375 C 8.445312 -6.25 8.640625 -5.441406 8.640625 -4.515625 C 8.640625 -3.585938 8.445312 -2.78125 8.0625 -2.09375 C 7.675781 -1.414062 7.117188 -0.894531 6.390625 -0.53125 C 5.671875 -0.175781 4.816406 0 3.828125 0 L 1 0 L 1 -9.078125 Z M 3.828125 -0.96875 C 4.992188 -0.96875 5.882812 -1.28125 6.5 -1.90625 C 7.125 -2.53125 7.4375 -3.398438 7.4375 -4.515625 C 7.4375 -5.640625 7.125 -6.519531 6.5 -7.15625 C 5.882812 -7.789062 4.992188 -8.109375 3.828125 -8.109375 L 2.1875 -8.109375 L 2.1875 -0.96875 Z M 3.828125 -0.96875 "/></g></g></g><g fill="#000000" fill-opacity="1"><g transform="translate(368.078809, 114.904337)"><g><path d="M 2.1875 -9.078125 L 2.1875 0 L 1 0 L 1 -9.078125 Z M 2.1875 -9.078125 "/></g></g></g><g fill="#000000" fill-opacity="1"><g transform="translate(371.278737, 114.904337)"><g><path d="M 5.78125 0 L 3.625 -3.703125 L 2.1875 -3.703125 L 2.1875 0 L 1 0 L 1 -9.078125 L 3.9375 -9.078125 C 4.613281 -9.078125 5.1875 -8.957031 5.65625 -8.71875 C 6.132812 -8.488281 6.488281 -8.171875 6.71875 -7.765625 C 6.957031 -7.367188 7.078125 -6.914062 7.078125 -6.40625 C 7.078125 -5.78125 6.894531 -5.226562 6.53125 -4.75 C 6.175781 -4.269531 5.640625 -3.953125 4.921875 -3.796875 L 7.203125 0 Z M 2.1875 -4.65625 L 3.9375 -4.65625 C 4.570312 -4.65625 5.050781 -4.8125 5.375 -5.125 C 5.695312 -5.445312 5.859375 -5.875 5.859375 -6.40625 C 5.859375 -6.9375 5.695312 -7.347656 5.375 -7.640625 C 5.0625 -7.941406 4.582031 -8.09375 3.9375 -8.09375 L 2.1875 -8.09375 Z M 2.1875 -4.65625 "/></g></g></g><g fill="#000000" fill-opacity="1"><g transform="translate(379.187497, 114.904337)"><g><path d="M 2.1875 -8.109375 L 2.1875 -5.078125 L 5.5 -5.078125 L 5.5 -4.09375 L 2.1875 -4.09375 L 2.1875 -0.96875 L 5.890625 -0.96875 L 5.890625 0 L 1 0 L 1 -9.078125 L 5.890625 -9.078125 L 5.890625 -8.109375 Z M 2.1875 -8.109375 "/></g></g></g><g fill="#000000" fill-opacity="1"><g transform="translate(385.860512, 114.904337)"><g><path d="M 0.5625 -4.546875 C 0.5625 -5.429688 0.757812 -6.222656 1.15625 -6.921875 C 1.550781 -7.628906 2.09375 -8.179688 2.78125 -8.578125 C 3.476562 -8.984375 4.25 -9.1875 5.09375 -9.1875 C 6.082031 -9.1875 6.941406 -8.945312 7.671875 -8.46875 C 8.410156 -7.988281 8.953125 -7.3125 9.296875 -6.4375 L 7.875 -6.4375 C 7.625 -6.988281 7.257812 -7.410156 6.78125 -7.703125 C 6.3125 -7.992188 5.75 -8.140625 5.09375 -8.140625 C 4.457031 -8.140625 3.882812 -7.992188 3.375 -7.703125 C 2.875 -7.410156 2.476562 -6.992188 2.1875 -6.453125 C 1.90625 -5.910156 1.765625 -5.273438 1.765625 -4.546875 C 1.765625 -3.828125 1.90625 -3.191406 2.1875 -2.640625 C 2.476562 -2.097656 2.875 -1.679688 3.375 -1.390625 C 3.882812 -1.097656 4.457031 -0.953125 5.09375 -0.953125 C 5.75 -0.953125 6.3125 -1.097656 6.78125 -1.390625 C 7.257812 -1.679688 7.625 -2.097656 7.875 -2.640625 L 9.296875 -2.640625 C 8.953125 -1.773438 8.410156 -1.101562 7.671875 -0.625 C 6.941406 -0.15625 6.082031 0.078125 5.09375 0.078125 C 4.25 0.078125 3.476562 -0.117188 2.78125 -0.515625 C 2.09375 -0.910156 1.550781 -1.457031 1.15625 -2.15625 C 0.757812 -2.863281 0.5625 -3.660156 0.5625 -4.546875 Z M 0.5625 -4.546875 "/></g></g></g><g fill="#000000" fill-opacity="1"><g transform="translate(395.902553, 114.904337)"><g><path d="M 6.578125 -9.078125 L 6.578125 -8.109375 L 4.109375 -8.109375 L 4.109375 0 L 2.921875 0 L 2.921875 -8.109375 L 0.4375 -8.109375 L 0.4375 -9.078125 Z M 6.578125 -9.078125 "/></g></g></g><g fill="#000000" fill-opacity="1"><g transform="translate(402.939788, 114.904337)"><g><path d="M 2.1875 -9.078125 L 2.1875 0 L 1 0 L 1 -9.078125 Z M 2.1875 -9.078125 "/></g></g></g><g fill="#000000" fill-opacity="1"><g transform="translate(406.139716, 114.904337)"><g><path d="M 5.109375 0.09375 C 4.273438 0.09375 3.507812 -0.101562 2.8125 -0.5 C 2.113281 -0.894531 1.5625 -1.445312 1.15625 -2.15625 C 0.757812 -2.863281 0.5625 -3.660156 0.5625 -4.546875 C 0.5625 -5.429688 0.757812 -6.222656 1.15625 -6.921875 C 1.5625 -7.628906 2.113281 -8.179688 2.8125 -8.578125 C 3.507812 -8.972656 4.273438 -9.171875 5.109375 -9.171875 C 5.960938 -9.171875 6.734375 -8.972656 7.421875 -8.578125 C 8.117188 -8.179688 8.664062 -7.632812 9.0625 -6.9375 C 9.46875 -6.238281 9.671875 -5.441406 9.671875 -4.546875 C 9.671875 -3.648438 9.46875 -2.847656 9.0625 -2.140625 C 8.664062 -1.441406 8.117188 -0.894531 7.421875 -0.5 C 6.734375 -0.101562 5.960938 0.09375 5.109375 0.09375 Z M 5.109375 -0.9375 C 5.742188 -0.9375 6.316406 -1.082031 6.828125 -1.375 C 7.335938 -1.675781 7.734375 -2.097656 8.015625 -2.640625 C 8.304688 -3.191406 8.453125 -3.828125 8.453125 -4.546875 C 8.453125 -5.273438 8.304688 -5.910156 8.015625 -6.453125 C 7.734375 -6.992188 7.335938 -7.410156 6.828125 -7.703125 C 6.328125 -7.992188 5.753906 -8.140625 5.109375 -8.140625 C 4.472656 -8.140625 3.898438 -7.992188 3.390625 -7.703125 C 2.890625 -7.410156 2.492188 -6.992188 2.203125 -6.453125 C 1.910156 -5.910156 1.765625 -5.273438 1.765625 -4.546875 C 1.765625 -3.828125 1.910156 -3.191406 2.203125 -2.640625 C 2.492188 -2.097656 2.894531 -1.675781 3.40625 -1.375 C 3.914062 -1.082031 4.484375 -0.9375 5.109375 -0.9375 Z M 5.109375 -0.9375 "/></g></g></g><g fill="#000000" fill-opacity="1"><g transform="translate(416.363867, 114.904337)"><g><path d="M 8.140625 0 L 6.953125 0 L 2.1875 -7.21875 L 2.1875 0 L 1 0 L 1 -9.078125 L 2.1875 -9.078125 L 6.953125 -1.875 L 6.953125 -9.078125 L 8.140625 -9.078125 Z M 8.140625 0 "/></g></g></g><g fill="#000000" fill-opacity="1"><g transform="translate(425.50836, 114.904337)"><g><path d="M 3.875 0.09375 C 3.28125 0.09375 2.742188 -0.0078125 2.265625 -0.21875 C 1.796875 -0.4375 1.425781 -0.734375 1.15625 -1.109375 C 0.882812 -1.484375 0.742188 -1.921875 0.734375 -2.421875 L 2 -2.421875 C 2.039062 -1.992188 2.21875 -1.632812 2.53125 -1.34375 C 2.84375 -1.050781 3.289062 -0.90625 3.875 -0.90625 C 4.4375 -0.90625 4.878906 -1.046875 5.203125 -1.328125 C 5.535156 -1.609375 5.703125 -1.972656 5.703125 -2.421875 C 5.703125 -2.765625 5.601562 -3.046875 5.40625 -3.265625 C 5.21875 -3.484375 4.976562 -3.648438 4.6875 -3.765625 C 4.40625 -3.878906 4.023438 -4 3.546875 -4.125 C 2.941406 -4.28125 2.457031 -4.4375 2.09375 -4.59375 C 1.738281 -4.75 1.429688 -4.992188 1.171875 -5.328125 C 0.921875 -5.660156 0.796875 -6.109375 0.796875 -6.671875 C 0.796875 -7.171875 0.921875 -7.609375 1.171875 -7.984375 C 1.421875 -8.367188 1.773438 -8.664062 2.234375 -8.875 C 2.691406 -9.082031 3.210938 -9.1875 3.796875 -9.1875 C 4.648438 -9.1875 5.347656 -8.972656 5.890625 -8.546875 C 6.429688 -8.117188 6.738281 -7.554688 6.8125 -6.859375 L 5.5 -6.859375 C 5.457031 -7.203125 5.273438 -7.503906 4.953125 -7.765625 C 4.640625 -8.035156 4.21875 -8.171875 3.6875 -8.171875 C 3.1875 -8.171875 2.78125 -8.039062 2.46875 -7.78125 C 2.15625 -7.53125 2 -7.175781 2 -6.71875 C 2 -6.382812 2.09375 -6.113281 2.28125 -5.90625 C 2.46875 -5.695312 2.695312 -5.535156 2.96875 -5.421875 C 3.25 -5.316406 3.632812 -5.195312 4.125 -5.0625 C 4.726562 -4.894531 5.210938 -4.726562 5.578125 -4.5625 C 5.941406 -4.40625 6.25 -4.160156 6.5 -3.828125 C 6.757812 -3.492188 6.890625 -3.039062 6.890625 -2.46875 C 6.890625 -2.03125 6.773438 -1.613281 6.546875 -1.21875 C 6.316406 -0.832031 5.96875 -0.515625 5.5 -0.265625 C 5.039062 -0.0234375 4.5 0.09375 3.875 0.09375 Z M 3.875 0.09375 "/></g></g></g><g fill="#000000" fill-opacity="1"><g transform="translate(54.84375, 617.267869)"><g><path d="M 8.140625 0 L 6.953125 0 L 2.1875 -7.21875 L 2.1875 0 L 1 0 L 1 -9.078125 L 2.1875 -9.078125 L 6.953125 -1.875 L 6.953125 -9.078125 L 8.140625 -9.078125 Z M 8.140625 0 "/></g></g></g><g fill="#000000" fill-opacity="1"><g transform="translate(63.988242, 617.267869)"><g><path d="M 5.109375 0.09375 C 4.273438 0.09375 3.507812 -0.101562 2.8125 -0.5 C 2.113281 -0.894531 1.5625 -1.445312 1.15625 -2.15625 C 0.757812 -2.863281 0.5625 -3.660156 0.5625 -4.546875 C 0.5625 -5.429688 0.757812 -6.222656 1.15625 -6.921875 C 1.5625 -7.628906 2.113281 -8.179688 2.8125 -8.578125 C 3.507812 -8.972656 4.273438 -9.171875 5.109375 -9.171875 C 5.960938 -9.171875 6.734375 -8.972656 7.421875 -8.578125 C 8.117188 -8.179688 8.664062 -7.632812 9.0625 -6.9375 C 9.46875 -6.238281 9.671875 -5.441406 9.671875 -4.546875 C 9.671875 -3.648438 9.46875 -2.847656 9.0625 -2.140625 C 8.664062 -1.441406 8.117188 -0.894531 7.421875 -0.5 C 6.734375 -0.101562 5.960938 0.09375 5.109375 0.09375 Z M 5.109375 -0.9375 C 5.742188 -0.9375 6.316406 -1.082031 6.828125 -1.375 C 7.335938 -1.675781 7.734375 -2.097656 8.015625 -2.640625 C 8.304688 -3.191406 8.453125 -3.828125 8.453125 -4.546875 C 8.453125 -5.273438 8.304688 -5.910156 8.015625 -6.453125 C 7.734375 -6.992188 7.335938 -7.410156 6.828125 -7.703125 C 6.328125 -7.992188 5.753906 -8.140625 5.109375 -8.140625 C 4.472656 -8.140625 3.898438 -7.992188 3.390625 -7.703125 C 2.890625 -7.410156 2.492188 -6.992188 2.203125 -6.453125 C 1.910156 -5.910156 1.765625 -5.273438 1.765625 -4.546875 C 1.765625 -3.828125 1.910156 -3.191406 2.203125 -2.640625 C 2.492188 -2.097656 2.894531 -1.675781 3.40625 -1.375 C 3.914062 -1.082031 4.484375 -0.9375 5.109375 -0.9375 Z M 5.109375 -0.9375 "/></g></g></g><g fill="#000000" fill-opacity="1"><g transform="translate(74.212393, 617.267869)"><g><path d="M 6.578125 -9.078125 L 6.578125 -8.109375 L 4.109375 -8.109375 L 4.109375 0 L 2.921875 0 L 2.921875 -8.109375 L 0.4375 -8.109375 L 0.4375 -9.078125 Z M 6.578125 -9.078125 "/></g></g></g><g fill="#000000" fill-opacity="1"><g transform="translate(81.249628, 617.267869)"><g><path d="M 2.1875 -8.109375 L 2.1875 -5.078125 L 5.5 -5.078125 L 5.5 -4.09375 L 2.1875 -4.09375 L 2.1875 -0.96875 L 5.890625 -0.96875 L 5.890625 0 L 1 0 L 1 -9.078125 L 5.890625 -9.078125 L 5.890625 -8.109375 Z M 2.1875 -8.109375 "/></g></g></g><g fill="#000000" fill-opacity="1"><g transform="translate(87.922644, 617.267869)"><g><path d="M 3.875 0.09375 C 3.28125 0.09375 2.742188 -0.0078125 2.265625 -0.21875 C 1.796875 -0.4375 1.425781 -0.734375 1.15625 -1.109375 C 0.882812 -1.484375 0.742188 -1.921875 0.734375 -2.421875 L 2 -2.421875 C 2.039062 -1.992188 2.21875 -1.632812 2.53125 -1.34375 C 2.84375 -1.050781 3.289062 -0.90625 3.875 -0.90625 C 4.4375 -0.90625 4.878906 -1.046875 5.203125 -1.328125 C 5.535156 -1.609375 5.703125 -1.972656 5.703125 -2.421875 C 5.703125 -2.765625 5.601562 -3.046875 5.40625 -3.265625 C 5.21875 -3.484375 4.976562 -3.648438 4.6875 -3.765625 C 4.40625 -3.878906 4.023438 -4 3.546875 -4.125 C 2.941406 -4.28125 2.457031 -4.4375 2.09375 -4.59375 C 1.738281 -4.75 1.429688 -4.992188 1.171875 -5.328125 C 0.921875 -5.660156 0.796875 -6.109375 0.796875 -6.671875 C 0.796875 -7.171875 0.921875 -7.609375 1.171875 -7.984375 C 1.421875 -8.367188 1.773438 -8.664062 2.234375 -8.875 C 2.691406 -9.082031 3.210938 -9.1875 3.796875 -9.1875 C 4.648438 -9.1875 5.347656 -8.972656 5.890625 -8.546875 C 6.429688 -8.117188 6.738281 -7.554688 6.8125 -6.859375 L 5.5 -6.859375 C 5.457031 -7.203125 5.273438 -7.503906 4.953125 -7.765625 C 4.640625 -8.035156 4.21875 -8.171875 3.6875 -8.171875 C 3.1875 -8.171875 2.78125 -8.039062 2.46875 -7.78125 C 2.15625 -7.53125 2 -7.175781 2 -6.71875 C 2 -6.382812 2.09375 -6.113281 2.28125 -5.90625 C 2.46875 -5.695312 2.695312 -5.535156 2.96875 -5.421875 C 3.25 -5.316406 3.632812 -5.195312 4.125 -5.0625 C 4.726562 -4.894531 5.210938 -4.726562 5.578125 -4.5625 C 5.941406 -4.40625 6.25 -4.160156 6.5 -3.828125 C 6.757812 -3.492188 6.890625 -3.039062 6.890625 -2.46875 C 6.890625 -2.03125 6.773438 -1.613281 6.546875 -1.21875 C 6.316406 -0.832031 5.96875 -0.515625 5.5 -0.265625 C 5.039062 -0.0234375 4.5 0.09375 3.875 0.09375 Z M 3.875 0.09375 "/></g></g></g><g clip-path="url(#9ec4b0f2da)"><path fill="#ffffff" d="M 363.527344 25.46875 C 363.527344 26.019531 363.476562 26.5625 363.367188 27.097656 C 363.261719 27.636719 363.101562 28.15625 362.894531 28.664062 C 362.683594 29.167969 362.425781 29.648438 362.121094 30.105469 C 361.820312 30.5625 361.472656 30.984375 361.085938 31.371094 C 360.699219 31.757812 360.277344 32.101562 359.820312 32.40625 C 359.363281 32.710938 358.882812 32.96875 358.378906 33.179688 C 357.871094 33.386719 357.351562 33.546875 356.8125 33.652344 C 356.277344 33.761719 355.734375 33.8125 355.183594 33.8125 C 354.636719 33.8125 354.09375 33.761719 353.558594 33.652344 C 353.019531 33.546875 352.5 33.386719 351.992188 33.179688 C 351.484375 32.96875 351.003906 32.710938 350.550781 32.40625 C 350.09375 32.101562 349.671875 31.757812 349.285156 31.371094 C 348.898438 30.984375 348.550781 30.5625 348.246094 30.105469 C 347.941406 29.648438 347.6875 29.167969 347.476562 28.664062 C 347.265625 28.15625 347.109375 27.636719 347 27.097656 C 346.894531 26.5625 346.839844 26.019531 346.839844 25.46875 C 346.839844 24.921875 346.894531 24.378906 347 23.84375 C 347.109375 23.304688 347.265625 22.785156 347.476562 22.277344 C 347.6875 21.769531 347.941406 21.289062 348.246094 20.835938 C 348.550781 20.378906 348.898438 19.957031 349.285156 19.570312 C 349.671875 19.183594 350.09375 18.835938 350.550781 18.53125 C 351.003906 18.226562 351.484375 17.972656 351.992188 17.761719 C 352.5 17.550781 353.019531 17.394531 353.558594 17.285156 C 354.09375 17.179688 354.636719 17.125 355.183594 17.125 C 355.734375 17.125 356.277344 17.179688 356.8125 17.285156 C 357.351562 17.394531 357.871094 17.550781 358.378906 17.761719 C 358.882812 17.972656 359.363281 18.226562 359.820312 18.53125 C 360.277344 18.835938 360.699219 19.183594 361.085938 19.570312 C 361.472656 19.957031 361.820312 20.378906 362.121094 20.835938 C 362.425781 21.289062 362.683594 21.769531 362.894531 22.277344 C 363.101562 22.785156 363.261719 23.304688 363.367188 23.84375 C 363.476562 24.378906 363.527344 24.921875 363.527344 25.46875 Z M 363.527344 25.46875 " fill-opacity="1" fill-rule="nonzero"/></g><g clip-path="url(#945478e799)"><path fill="#000000" d="M 355.183594 16.605469 C 350.285156 16.605469 346.320312 20.570312 346.320312 25.46875 C 346.320312 30.371094 350.285156 34.335938 355.183594 34.335938 C 360.085938 34.335938 364.050781 30.371094 364.050781 25.46875 C 364.050781 20.570312 360.085938 16.605469 355.183594 16.605469 Z M 355.183594 33.292969 C 350.871094 33.292969 347.363281 29.785156 347.363281 25.46875 C 347.363281 21.15625 350.871094 17.648438 355.183594 17.648438 C 359.5 17.648438 363.007812 21.15625 363.007812 25.46875 C 363.007812 29.785156 359.5 33.292969 355.183594 33.292969 Z M 355.183594 33.292969 " fill-opacity="1" fill-rule="nonzero"/></g><path fill="#000000" d="M 355.921875 27.683594 L 354.449219 29.15625 C 353.632812 29.972656 352.3125 29.972656 351.496094 29.15625 C 350.683594 28.34375 350.683594 27.019531 351.496094 26.207031 L 352.972656 24.734375 C 353.175781 24.527344 353.175781 24.199219 352.972656 23.996094 C 352.769531 23.792969 352.4375 23.792969 352.234375 23.996094 L 350.761719 25.46875 C 349.539062 26.691406 349.539062 28.675781 350.761719 29.894531 C 351.980469 31.113281 353.964844 31.113281 355.183594 29.894531 L 356.660156 28.421875 C 356.863281 28.214844 356.863281 27.886719 356.660156 27.683594 C 356.457031 27.480469 356.125 27.480469 355.921875 27.683594 Z M 355.921875 27.683594 " fill-opacity="1" fill-rule="nonzero"/><path fill="#000000" d="M 355.183594 21.046875 L 353.710938 22.519531 C 353.507812 22.722656 353.507812 23.054688 353.710938 23.257812 C 353.914062 23.460938 354.242188 23.460938 354.449219 23.257812 L 355.921875 21.78125 C 356.734375 20.96875 358.058594 20.96875 358.871094 21.78125 C 359.6875 22.597656 359.6875 23.917969 358.871094 24.734375 L 357.398438 26.207031 C 357.195312 26.410156 357.195312 26.742188 357.398438 26.945312 C 357.601562 27.148438 357.929688 27.148438 358.136719 26.945312 L 359.609375 25.46875 C 360.832031 24.25 360.832031 22.265625 359.609375 21.046875 C 358.390625 19.824219 356.40625 19.824219 355.183594 21.046875 Z M 355.183594 21.046875 " fill-opacity="1" fill-rule="nonzero"/><path fill="#000000" d="M 352.972656 27.683594 C 353.175781 27.886719 353.507812 27.886719 353.710938 27.683594 L 357.398438 23.996094 C 357.601562 23.792969 357.601562 23.460938 357.398438 23.257812 C 357.195312 23.054688 356.863281 23.054688 356.660156 23.257812 L 352.972656 26.945312 C 352.769531 27.148438 352.769531 27.480469 352.972656 27.683594 Z M 352.972656 27.683594 " fill-opacity="1" fill-rule="nonzero"/><path fill="#ffffff" d="M 439.847656 25.46875 C 439.847656 26.019531 439.796875 26.5625 439.6875 27.097656 C 439.582031 27.636719 439.421875 28.15625 439.214844 28.664062 C 439.003906 29.167969 438.746094 29.648438 438.441406 30.105469 C 438.136719 30.5625 437.792969 30.984375 437.40625 31.371094 C 437.019531 31.757812 436.597656 32.101562 436.140625 32.40625 C 435.683594 32.710938 435.203125 32.96875 434.699219 33.179688 C 434.191406 33.386719 433.671875 33.546875 433.132812 33.652344 C 432.59375 33.761719 432.054688 33.8125 431.503906 33.8125 C 430.957031 33.8125 430.414062 33.761719 429.878906 33.652344 C 429.339844 33.546875 428.816406 33.386719 428.3125 33.179688 C 427.804688 32.96875 427.324219 32.710938 426.871094 32.40625 C 426.414062 32.101562 425.992188 31.757812 425.605469 31.371094 C 425.21875 30.984375 424.871094 30.5625 424.566406 30.105469 C 424.261719 29.648438 424.007812 29.167969 423.796875 28.664062 C 423.585938 28.15625 423.429688 27.636719 423.320312 27.097656 C 423.214844 26.5625 423.160156 26.019531 423.160156 25.46875 C 423.160156 24.921875 423.214844 24.378906 423.320312 23.84375 C 423.429688 23.304688 423.585938 22.785156 423.796875 22.277344 C 424.007812 21.769531 424.261719 21.289062 424.566406 20.835938 C 424.871094 20.378906 425.21875 19.957031 425.605469 19.570312 C 425.992188 19.183594 426.414062 18.835938 426.871094 18.53125 C 427.324219 18.226562 427.804688 17.972656 428.3125 17.761719 C 428.816406 17.550781 429.339844 17.394531 429.878906 17.285156 C 430.414062 17.179688 430.957031 17.125 431.503906 17.125 C 432.054688 17.125 432.59375 17.179688 433.132812 17.285156 C 433.671875 17.394531 434.191406 17.550781 434.699219 17.761719 C 435.203125 17.972656 435.683594 18.226562 436.140625 18.53125 C 436.597656 18.835938 437.019531 19.183594 437.40625 19.570312 C 437.792969 19.957031 438.136719 20.378906 438.441406 20.835938 C 438.746094 21.289062 439.003906 21.769531 439.214844 22.277344 C 439.421875 22.785156 439.582031 23.304688 439.6875 23.84375 C 439.796875 24.378906 439.847656 24.921875 439.847656 25.46875 Z M 439.847656 25.46875 " fill-opacity="1" fill-rule="nonzero"/><g clip-path="url(#fe80efc7b8)"><path fill="#000000" d="M 431.503906 16.605469 C 426.605469 16.605469 422.640625 20.570312 422.640625 25.46875 C 422.640625 30.371094 426.605469 34.335938 431.503906 34.335938 C 436.40625 34.335938 440.371094 30.371094 440.371094 25.46875 C 440.371094 20.570312 436.40625 16.605469 431.503906 16.605469 Z M 431.503906 33.292969 C 427.191406 33.292969 423.683594 29.785156 423.683594 25.46875 C 423.683594 21.15625 427.191406 17.648438 431.503906 17.648438 C 435.820312 17.648438 439.328125 21.15625 439.328125 25.46875 C 439.328125 29.785156 435.820312 33.292969 431.503906 33.292969 Z M 431.503906 33.292969 " fill-opacity="1" fill-rule="nonzero"/></g><path fill="#000000" d="M 432.242188 27.683594 L 430.769531 29.15625 C 429.953125 29.972656 428.632812 29.972656 427.816406 29.15625 C 427.003906 28.34375 427.003906 27.019531 427.816406 26.207031 L 429.292969 24.734375 C 429.496094 24.527344 429.496094 24.199219 429.292969 23.996094 C 429.089844 23.792969 428.757812 23.792969 428.554688 23.996094 L 427.082031 25.46875 C 425.859375 26.691406 425.859375 28.675781 427.082031 29.894531 C 428.300781 31.113281 430.285156 31.113281 431.503906 29.894531 L 432.980469 28.421875 C 433.183594 28.214844 433.183594 27.886719 432.980469 27.683594 C 432.777344 27.480469 432.445312 27.480469 432.242188 27.683594 Z M 432.242188 27.683594 " fill-opacity="1" fill-rule="nonzero"/><path fill="#000000" d="M 431.503906 21.046875 L 430.03125 22.519531 C 429.828125 22.722656 429.828125 23.054688 430.03125 23.257812 C 430.234375 23.460938 430.5625 23.460938 430.769531 23.257812 L 432.242188 21.78125 C 433.054688 20.96875 434.378906 20.96875 435.191406 21.78125 C 436.007812 22.597656 436.007812 23.917969 435.191406 24.734375 L 433.71875 26.207031 C 433.515625 26.410156 433.515625 26.742188 433.71875 26.945312 C 433.921875 27.148438 434.25 27.148438 434.457031 26.945312 L 435.929688 25.46875 C 437.148438 24.25 437.148438 22.265625 435.929688 21.046875 C 434.710938 19.824219 432.726562 19.824219 431.503906 21.046875 Z M 431.503906 21.046875 " fill-opacity="1" fill-rule="nonzero"/><path fill="#000000" d="M 429.292969 27.683594 C 429.496094 27.886719 429.828125 27.886719 430.03125 27.683594 L 433.71875 23.996094 C 433.921875 23.792969 433.921875 23.460938 433.71875 23.257812 C 433.515625 23.054688 433.183594 23.054688 432.980469 23.257812 L 429.292969 26.945312 C 429.089844 27.148438 429.089844 27.480469 429.292969 27.683594 Z M 429.292969 27.683594 " fill-opacity="1" fill-rule="nonzero"/><g clip-path="url(#93708278ea)"><g clip-path="url(#09156912b6)"><g transform="matrix(1, 0, 0, 1, 424, 18)"><g clip-path="url(#9f3a2a3ba6)"><g clip-path="url(#a2a36dcc2f)"><g clip-path="url(#a2ac896a15)"><path fill="#ffffff" d="M 0.308594 0.445312 L 14.710938 0.445312 L 14.710938 14.847656 L 0.308594 14.847656 Z M 0.308594 0.445312 " fill-opacity="1" fill-rule="nonzero"/></g></g></g></g></g></g><g clip-path="url(#33adde82dd)"><path fill="#000000" d="M 430.59375 28.4375 C 430.613281 29.273438 430.636719 30.289062 430.660156 31.308594 C 430.664062 31.632812 430.445312 31.914062 430.136719 31.988281 C 429.71875 32.089844 429.316406 31.761719 429.320312 31.308594 C 429.320312 30.882812 429.339844 30.453125 429.347656 30.027344 C 429.375 28.6875 429.398438 27.347656 429.425781 26.011719 C 429.433594 25.722656 429.4375 25.4375 429.445312 25.152344 C 429.445312 25.101562 429.441406 25.070312 429.382812 25.050781 C 428.617188 24.792969 428.144531 24.144531 428.140625 23.328125 C 428.132812 22.359375 428.136719 21.394531 428.136719 20.429688 C 428.136719 20.230469 428.132812 20.035156 428.140625 19.839844 C 428.140625 19.707031 428.191406 19.59375 428.328125 19.539062 C 428.4375 19.496094 428.542969 19.511719 428.636719 19.59375 C 428.722656 19.667969 428.734375 19.773438 428.734375 19.878906 C 428.734375 20.890625 428.734375 21.902344 428.730469 22.910156 C 428.730469 23.019531 428.726562 23.128906 428.734375 23.238281 C 428.742188 23.339844 428.796875 23.414062 428.902344 23.4375 C 429 23.460938 429.074219 23.414062 429.128906 23.332031 C 429.164062 23.277344 429.160156 23.210938 429.160156 23.144531 C 429.160156 22.414062 429.160156 21.683594 429.160156 20.949219 C 429.160156 20.582031 429.160156 20.210938 429.160156 19.84375 C 429.164062 19.671875 429.265625 19.546875 429.410156 19.523438 C 429.597656 19.496094 429.75 19.617188 429.757812 19.8125 C 429.765625 19.902344 429.761719 19.992188 429.761719 20.082031 C 429.761719 21.105469 429.761719 22.125 429.761719 23.148438 C 429.761719 23.199219 429.761719 23.253906 429.78125 23.304688 C 429.820312 23.398438 429.914062 23.457031 430 23.445312 C 430.113281 23.429688 430.191406 23.359375 430.207031 23.253906 C 430.214844 23.210938 430.210938 23.160156 430.210938 23.113281 C 430.210938 22.039062 430.210938 20.964844 430.210938 19.890625 C 430.210938 19.800781 430.21875 19.714844 430.273438 19.640625 C 430.34375 19.542969 430.480469 19.496094 430.597656 19.527344 C 430.722656 19.5625 430.804688 19.65625 430.808594 19.796875 C 430.816406 20.03125 430.816406 20.265625 430.816406 20.5 C 430.816406 21.355469 430.8125 22.210938 430.8125 23.066406 C 430.8125 23.140625 430.808594 23.21875 430.832031 23.289062 C 430.863281 23.382812 430.960938 23.453125 431.042969 23.449219 C 431.152344 23.441406 431.226562 23.371094 431.242188 23.257812 C 431.25 23.207031 431.253906 23.15625 431.253906 23.105469 C 431.253906 22.042969 431.253906 20.976562 431.25 19.914062 C 431.25 19.871094 431.253906 19.828125 431.257812 19.785156 C 431.277344 19.636719 431.378906 19.535156 431.515625 19.523438 C 431.667969 19.507812 431.792969 19.589844 431.835938 19.734375 C 431.851562 19.792969 431.855469 19.855469 431.855469 19.917969 C 431.855469 21.039062 431.839844 22.160156 431.859375 23.285156 C 431.871094 24.0625 431.347656 24.839844 430.621094 25.042969 C 430.554688 25.0625 430.550781 25.101562 430.550781 25.160156 C 430.566406 26.191406 430.578125 27.222656 430.59375 28.4375 Z M 430.59375 28.4375 " fill-opacity="1" fill-rule="nonzero"/></g><g clip-path="url(#308ccb8cbe)"><path fill="#000000" d="M 434.875 25.550781 C 434.875 27.460938 434.875 29.375 434.875 31.285156 C 434.875 31.636719 434.691406 31.886719 434.371094 31.980469 C 433.957031 32.105469 433.527344 31.773438 433.53125 31.324219 C 433.539062 30.59375 433.554688 29.863281 433.5625 29.132812 C 433.574219 28.277344 433.582031 27.421875 433.59375 26.570312 C 433.597656 26.480469 433.566406 26.457031 433.484375 26.464844 C 433.421875 26.46875 433.355469 26.46875 433.292969 26.464844 C 433.058594 26.460938 432.9375 26.339844 432.933594 26.101562 C 432.933594 25.890625 432.933594 25.679688 432.933594 25.472656 C 432.941406 24.429688 432.902344 23.386719 432.953125 22.34375 C 432.996094 21.480469 433.210938 20.671875 433.761719 19.984375 C 433.929688 19.777344 434.125 19.597656 434.375 19.488281 C 434.671875 19.355469 434.875 19.496094 434.875 19.828125 C 434.875 21.734375 434.875 23.644531 434.875 25.550781 Z M 434.875 25.550781 " fill-opacity="1" fill-rule="nonzero"/></g></svg>