<svg xmlns="http://www.w3.org/2000/svg" xmlns:xlink="http://www.w3.org/1999/xlink" width="147" zoomAndPan="magnify" viewBox="0 0 110.25 110.249996" height="147" preserveAspectRatio="xMidYMid meet" version="1.0"><defs><clipPath id="3718135f62"><path d="M 0 0 L 109.503906 0 L 109.503906 109.503906 L 0 109.503906 Z M 0 0 " clip-rule="nonzero"/></clipPath><clipPath id="4a93017634"><path d="M 2.570312 2.570312 L 106.933594 2.570312 L 106.933594 106.933594 L 2.570312 106.933594 Z M 2.570312 2.570312 " clip-rule="nonzero"/></clipPath><clipPath id="fee512f74f"><path d="M 54.75 2.570312 C 25.933594 2.570312 2.570312 25.933594 2.570312 54.75 C 2.570312 83.570312 25.933594 106.933594 54.75 106.933594 C 83.570312 106.933594 106.933594 83.570312 106.933594 54.75 C 106.933594 25.933594 83.570312 2.570312 54.75 2.570312 Z M 54.75 2.570312 " clip-rule="nonzero"/></clipPath><clipPath id="32e5446671"><path d="M 32.261719 17.503906 L 76.996094 17.503906 L 76.996094 92 L 32.261719 92 Z M 32.261719 17.503906 " clip-rule="nonzero"/></clipPath><clipPath id="958bc07657"><rect x="0" width="110" y="0" height="110"/></clipPath></defs><g clip-path="url(#3718135f62)"><g transform="matrix(1, 0, 0, 1, -0, 0.000000000000001051)"><g clip-path="url(#958bc07657)"><g clip-path="url(#4a93017634)"><g clip-path="url(#fee512f74f)"><path stroke-linecap="butt" transform="matrix(0.745541, 0, 0, 0.745541, 2.569471, 2.569469)" fill="none" stroke-linejoin="miter" d="M 69.990157 0.00113206 C 31.338483 0.00113206 0.00112805 31.338487 0.00112805 69.990161 C 0.00112805 108.647075 31.338483 139.98443 69.990157 139.98443 C 108.647071 139.98443 139.984426 108.647075 139.984426 69.990161 C 139.984426 31.338487 108.647071 0.00113206 69.990157 0.00113206 Z M 69.990157 0.00113206 " stroke="#000000" stroke-width="4" stroke-opacity="1" stroke-miterlimit="4"/></g></g><g clip-path="url(#32e5446671)"><path fill="#000000" d="M 54.027344 20.707031 L 54.867188 37.902344 C 55.046875 41.496094 53.546875 44.96875 50.820312 47.289062 C 47.863281 49.796875 46.359375 53.640625 46.84375 57.507812 C 48.273438 69 49.273438 83.941406 49.273438 85.835938 C 49.273438 88.96875 46.761719 91.507812 43.660156 91.507812 C 40.558594 91.507812 38.042969 88.96875 38.042969 85.835938 C 38.042969 83.941406 39.042969 69.015625 40.472656 57.53125 C 40.949219 53.675781 39.457031 49.847656 36.523438 47.335938 L 36.464844 47.289062 C 33.757812 44.96875 32.269531 41.507812 32.445312 37.929688 L 33.292969 20.707031 C 33.339844 19.714844 34.152344 18.933594 35.136719 18.933594 C 36.15625 18.933594 36.984375 19.769531 36.984375 20.800781 L 36.984375 35.140625 C 36.984375 36.375 37.972656 37.371094 39.191406 37.371094 C 40.414062 37.371094 41.402344 36.375 41.402344 35.140625 L 41.402344 21.214844 C 41.402344 19.957031 42.414062 18.933594 43.660156 18.933594 C 44.90625 18.933594 45.914062 19.957031 45.914062 21.214844 L 45.914062 35.140625 C 45.914062 36.375 46.902344 37.371094 48.125 37.371094 C 49.34375 37.371094 50.335938 36.375 50.335938 35.140625 L 50.335938 20.800781 C 50.335938 19.769531 51.160156 18.933594 52.179688 18.933594 C 53.164062 18.933594 53.976562 19.714844 54.027344 20.707031 Z M 74.738281 17.648438 L 74.738281 17.625 C 74.707031 17.625 74.667969 17.636719 74.636719 17.640625 C 74.589844 17.636719 74.550781 17.625 74.503906 17.625 C 74.347656 17.625 74.207031 17.683594 74.058594 17.710938 C 74.054688 17.714844 74.046875 17.714844 74.042969 17.714844 C 73.78125 17.765625 73.542969 17.847656 73.320312 17.972656 C 70.152344 19.46875 64.773438 27.179688 62.691406 43.304688 C 62.011719 48.550781 62.222656 52.988281 62.597656 56.101562 C 62.957031 59.054688 64.621094 61.683594 67.085938 63.316406 C 68.285156 64.109375 68.964844 65.492188 68.867188 66.933594 L 67.675781 86.488281 C 67.480469 89.464844 70.0625 91.941406 73.113281 91.441406 C 75.394531 91.070312 76.996094 88.941406 76.996094 86.605469 L 76.996094 20.140625 C 76.996094 18.832031 76.003906 17.769531 74.738281 17.648438 Z M 74.738281 17.648438 " fill-opacity="1" fill-rule="nonzero"/></g></g></g></g></svg>